<svg xmlns="http://www.w3.org/2000/svg" viewBox="0 0 750 500"><g id="freepik--background-simple--inject-114"><path d="M690,163.25C637.91,59.45,474.66.47,379.17,110.1c-3.76,4.31-7.31,8.83-10.65,13.5-24.35,34.12-60.9,93.18-105.52,78.74-30.54-9.89-51.49-37.17-81.7-47.78-39.83-14-77.68,14.65-102.06,51.25-28.33,42.55-41.89,92.48-25.77,138.64,30,86,147,105.34,227,97.46,58.61-5.78,115.17-37.05,173.86-39C496.54,401.46,536.93,413,575,427.29c17.63,6.63,35.25,13.94,54.33,15.77,68.25,6.54,81.28-60.71,82.91-117.28C713.85,269.59,714.32,211.68,690,163.25Z" style="fill:#92E3A9"></path><path d="M690,163.25C637.91,59.45,474.66.47,379.17,110.1c-3.76,4.31-7.31,8.83-10.65,13.5-24.35,34.12-60.9,93.18-105.52,78.74-30.54-9.89-51.49-37.17-81.7-47.78-39.83-14-77.68,14.65-102.06,51.25-28.33,42.55-41.89,92.48-25.77,138.64,30,86,147,105.34,227,97.46,58.61-5.78,115.17-37.05,173.86-39C496.54,401.46,536.93,413,575,427.29c17.63,6.63,35.25,13.94,54.33,15.77,68.25,6.54,81.28-60.71,82.91-117.28C713.85,269.59,714.32,211.68,690,163.25Z" style="fill:#fff;opacity:0.7000000000000001"></path></g><g id="freepik--Floor--inject-114"><path d="M722.47,447.53H29.26a.5.5,0,0,1-.5-.5.51.51,0,0,1,.5-.5H722.47a.5.5,0,0,1,.5.5A.5.5,0,0,1,722.47,447.53Z" style="fill:#263238"></path></g><g id="freepik--Plant--inject-114"><path d="M54.49,354.29a13.47,13.47,0,0,0-.76-2.34,24.57,24.57,0,0,0-1.18-2.5,28.93,28.93,0,0,0-2.61-4,.23.23,0,0,0-.4.21c.13.53.3,1.23.5,2s.36,1.72.54,2.62c.38,1.8.64,3.72,1,5.08l.58,2.37a18.3,18.3,0,0,0,.59,1.87L51,358.06c-.58-.53-1.23-1-1.84-1.48A4.8,4.8,0,0,0,49.4,354a16.46,16.46,0,0,0-1.14-4.32,19,19,0,0,0-1.15-2.22,26.07,26.07,0,0,0-1.65-2.27,26.76,26.76,0,0,0-3.4-3.5.24.24,0,0,0-.37.28c.25.51.58,1.16.92,1.92l1,2.49,1.87,4.87c.34.82.67,1.57,1,2.23a19.08,19.08,0,0,0,.86,1.79l-1.43-1-1.49-.88a2.17,2.17,0,0,0-.43-.82,7.45,7.45,0,0,0-1-1,12.14,12.14,0,0,0-3.44-1.83,14.58,14.58,0,0,0-4.53-.73,16.73,16.73,0,0,0-4,.38c-.2,0-.18.41,0,.46a35.53,35.53,0,0,1,3.51,1.31c1.37.56,2.75,1.26,3.87,1.65,2.33.85,4.44,1.39,5.44,1.22l1.48.88c.48.3.94.64,1.42,1a12,12,0,0,0-1.85-.07,16.3,16.3,0,0,0-2.2.3,10.89,10.89,0,0,0-2.1.66,17.43,17.43,0,0,0-2.18,1.05c-.7.41-1.35.83-1.9,1.22s-1,.8-1.36,1.09c-.16.13-.16.45,0,.41a31.81,31.81,0,0,1,3.16-.72l2.06-.37c.69-.09,1.37-.21,2-.35,1.4-.31,2.74-.58,3.86-.92a6.41,6.41,0,0,0,2.33-1c.58.47,1.2.91,1.76,1.42L52,360.22a13.8,13.8,0,0,0-1.84-.34A11.41,11.41,0,0,0,48,359.8a16.6,16.6,0,0,0-4.55.93c-.77.26-1.49.53-2.13.82s-1.18.57-1.58.79c-.19.1-.24.42-.07.41.74-.07,2-.06,3.35-.07.7,0,1.41,0,2.13,0h2.05c1.43,0,2.86-.16,4-.28a6.09,6.09,0,0,0,2.44-.61c1.08,1.06,2,2.24,3,3.4a14.79,14.79,0,0,0-4-1,19,19,0,0,0-4.68.21,27.82,27.82,0,0,0-4,.95c-.2.07-.3.37-.13.38l3.4.55c1.35.29,2.95.52,4.19.7a33.48,33.48,0,0,0,4,.28A5.94,5.94,0,0,0,58,367l1.35,1.83,1.26,1.89a14.43,14.43,0,0,0-3.86-1.43,19,19,0,0,0-4.71-.44,34.11,34.11,0,0,0-4.1.34c-.22,0-.35.32-.19.37.73.25,2,.65,3.37,1.07a36,36,0,0,0,4.17,1.3,30.37,30.37,0,0,0,4,.75,6.26,6.26,0,0,0,2.54-.05l1.15,2,1.06,2a14.39,14.39,0,0,0-3.69-1.82,19.86,19.86,0,0,0-4.65-.91,35.37,35.37,0,0,0-4.17-.17c-.22,0-.39.29-.22.36.77.32,1.93.91,3.3,1.5a41.35,41.35,0,0,0,4,1.7,32.35,32.35,0,0,0,3.88,1.14,6.08,6.08,0,0,0,2.52.23c.66,1.36,1.21,2.78,1.76,4.19a15.14,15.14,0,0,0-3.45-2.22,20.51,20.51,0,0,0-4.53-1.39,32.43,32.43,0,0,0-4.12-.58c-.22,0-.41.24-.25.33.72.39,1.81,1.09,3.11,1.81s2.64,1.53,3.77,2.1c2.67,1.23,5.18,2.24,6.22,2.07l.65,2.17.57,2.2a14.15,14.15,0,0,0-3.16-2.61,19.72,19.72,0,0,0-4.3-1.9,38.36,38.36,0,0,0-4-1c-.21,0-.43.2-.29.3.61.48,1.73,1.25,2.85,2.12s2.4,1.8,3.5,2.48c2.46,1.53,4.85,2.84,5.88,2.82a32.43,32.43,0,0,1,.53,4.47.41.41,0,0,0,.45.33.39.39,0,0,0,.43-.36,32,32,0,0,0-.54-4.59c1-.27,2.77-2.46,4-5.62a22.41,22.41,0,0,0,1.14-5,38.68,38.68,0,0,0,.27-4.54c0-.24-.34-.28-.44-.06l-1.92,4.23c-.8,1.67-1.58,3.35-2.11,4.66a36.26,36.26,0,0,0-1.38,4.16c-.18-.76-.38-1.52-.58-2.28l-.68-2.26A4.85,4.85,0,0,0,70,382.72a16.68,16.68,0,0,0,1.61-4.1,23.25,23.25,0,0,0,.57-5.05,41.7,41.7,0,0,0-.24-4.49c0-.23-.37-.23-.45,0-.3,1-.88,2.68-1.45,4.39s-1.22,3.5-1.54,4.85a30.92,30.92,0,0,0-.86,4.28c-.57-1.46-1.14-2.92-1.82-4.34a5.09,5.09,0,0,0,1.43-2.14,20.26,20.26,0,0,0,1.13-4.24,24.15,24.15,0,0,0,0-5,43.65,43.65,0,0,0-.67-4.42c0-.22-.4-.19-.45.05-.2,1-.61,2.75-1,4.5s-.83,3.59-1,5a35.23,35.23,0,0,0-.38,4.35l-1.09-2.08-1.19-2a4.82,4.82,0,0,0,1.18-2.28,19.87,19.87,0,0,0,.7-4.33,26.52,26.52,0,0,0-.48-5c-.39-1.73-.88-3.39-1.21-4.4-.07-.24-.43-.16-.44.08-.11,1.07-.29,2.82-.47,4.66s-.48,3.67-.52,5a35,35,0,0,0,.08,4.37l-1.3-2-1.4-1.89a5.07,5.07,0,0,0,1-2.39,18.29,18.29,0,0,0,.19-4.4,20.86,20.86,0,0,0-1.15-5,44,44,0,0,0-1.85-4.27.24.24,0,0,0-.44.14c.09,1.09.15,2.9.23,4.72s0,3.76.17,5.13a33.49,33.49,0,0,0,.55,4.35c-1-1.2-2-2.43-3.11-3.53a5,5,0,0,0,.64-2.5A17,17,0,0,0,54.49,354.29Z" style="fill:#92E3A9"></path><path d="M88.16,317.19c1.31-1.61,3-3.81,4.6-5.9s3.09-4,4-5.22c.22-.27,0-.63-.22-.46-1.15.72-3,2-5,3.47a44.68,44.68,0,0,0-5.35,4.86,40.94,40.94,0,0,0-4.14,5.73l1.2-4.25.61-2.12.71-2.09c1,.12,4.06-2.41,7.58-5.78,3-2.94,7.52-8.16,9.65-10.28.23-.25.09-.62-.18-.48a57.39,57.39,0,0,0-5.26,3c-1,.66-2.11,1.37-3.09,2.11s-1.9,1.51-2.68,2.24A30.45,30.45,0,0,0,88,304.75c-.78.91-1.48,1.78-2.06,2.58.8-2,1.51-4.05,2.38-6a11.27,11.27,0,0,0,2.34-3.23c1-1.63,2.1-3.82,3.32-6.17.53-1,1.07-2.28,1.67-3.55l.87-2c.3-.66.61-1.32.9-2,1.18-2.61,2.32-5.06,3.08-6.52.17-.34-.12-.55-.38-.26a62.61,62.61,0,0,0-4.61,5.69l-1.29,1.81L93,287a36.35,36.35,0,0,0-2,3.49,47.44,47.44,0,0,0-2.59,6.19,15.17,15.17,0,0,0-.83,4L87,302.22l-.59,1.54-1.19,3.08c.1-1,.16-2,.2-3.24s0-2.46,0-3.78c0-1.1,0-2.35-.14-3.65s-.18-2.64-.26-3.94c-.22-2.63-.36-5.06-.48-6.56,0-.35-.43-.21-.52.17-.2.83-.45,1.93-.74,3.18s-.5,2.67-.74,4.11-.38,2.93-.52,4.33a29.21,29.21,0,0,0-.17,3.84c.07,5.13,1.07,9,1.93,9.62l-.7,2.06c-.21.7-.4,1.4-.6,2.09l-1.2,4.19a59.64,59.64,0,0,0-.44-7c-.16-2.19-.68-4.95-1.1-7.53s-.84-5-1.08-6.49c0-.34-.45-.17-.51.21-.22,1.72-.61,4.49-.78,7.41a48.18,48.18,0,0,0,.08,8.22,31.48,31.48,0,0,0,1.3,6.43c.55,1.65,1.1,2.71,1.56,3l-.49,2.12-.37,2.15L78.71,332a59.2,59.2,0,0,0-1.19-6.94c-.39-2.16-1.13-4.85-1.86-7.41s-1.28-4.91-1.68-6.37c-.09-.33-.46-.12-.48.28-.21,3.45-.24,11.26.85,15.68,1,5,2.91,8.65,3.86,9.05-.41,2.88-.45,5.79-.6,8.69-.21-.94-.49-2-.84-3.14-.17-.57-.36-1.16-.56-1.77s-.41-1.23-.59-1.86c-.63-2.1-1.7-4.7-2.68-7.17s-1.79-4.77-2.34-6.19c-.12-.33-.47-.08-.44.32.06.86.14,2,.24,3.3s.2,2.72.47,4.19.51,2.95.8,4.34c.14.69.28,1.36.45,2s.38,1.22.57,1.76a38,38,0,0,0,2.66,6c.89,1.46,1.67,2.38,2.18,2.54,0,2.89,0,5.79.06,8.69a59.64,59.64,0,0,0-2.43-6.55c-.43-1-1-2.11-1.57-3.24l-.92-1.72-.9-1.77-3.08-5.91c-.17-.31-.48,0-.41.37.33,1.73.88,4.55,1.57,7.4a63.63,63.63,0,0,0,2.58,7.56c2,4.6,4.25,7.89,5.26,8.16.09,2.89.21,5.79.36,8.68a58.69,58.69,0,0,0-2.64-6.46,132,132,0,0,0-7.09-11.95c-.18-.28-.48,0-.38.39a94.19,94.19,0,0,0,4.83,14.34c2.17,4.52,4.5,7.74,5.53,8,.19,2.89.39,5.78.64,8.66a61.6,61.6,0,0,0-2.85-6.37,133.18,133.18,0,0,0-7.48-11.7c-.19-.27-.48,0-.37.4a96,96,0,0,0,5.3,14.16c2.31,4.46,4.75,7.6,5.79,7.8.28,2.88.59,5.75,1,8.62,0,.36.28.63.52.6s.4-.35.36-.71c-.37-2.86-.68-5.72-1-8.59,1-.29,2.77-3.85,4.45-8.55,1.41-4.06,3-11.07,3.68-14.12.08-.35-.23-.62-.4-.35a73.38,73.38,0,0,0-6.21,12.06,42.6,42.6,0,0,0-1.89,6.87c-.26-2.94-.47-5.89-.66-8.83,1-.26,2.91-3.76,4.73-8.4,1.55-4,3.33-11,4.14-14,.09-.34-.21-.62-.39-.36a74.33,74.33,0,0,0-6.6,11.84,44.37,44.37,0,0,0-2.12,6.81q-.22-4.42-.36-8.85c1-.23,3-3.67,5-8.24.83-2,1.78-4.69,2.59-7.27s1.71-4.72,2.18-6.1c.1-.31-.19-.59-.37-.36-.83,1-2.19,2.75-3.59,4.76-.34.5-.7,1-1,1.55s-.64,1.1-.94,1.65c-.61,1.1-1.16,2.18-1.6,3.17a44.22,44.22,0,0,0-2.33,6.73c0-2.95-.09-5.9-.07-8.85.5-.1,1.29-1,2.21-2.42a53.74,53.74,0,0,0,3.2-5.43c.24-.46.48-1,.73-1.49l.84-1.66c.57-1.14,1.14-2.35,1.67-3.52s1.11-2.3,1.61-3.3.92-1.88,1.25-2.54c.15-.3-.1-.62-.32-.41-1,.93-2.53,2.5-4.17,4.34a45.19,45.19,0,0,0-4.17,5.84,15.76,15.76,0,0,0-.9,1.72c-.26.57-.51,1.13-.74,1.68-.45,1.1-.84,2.15-1.13,3.08.15-2.94.19-5.88.6-8.8,1-.09,3.41-3.21,6.23-7.18,2.28-3.48,5.84-9.36,7.44-11.85.18-.29,0-.63-.27-.44-1,.83-2.78,2.24-4.61,3.91a48.07,48.07,0,0,0-4.82,5.36,44.49,44.49,0,0,0-3.51,6.13L80.3,328l.38-2.17.5-2.15c.5,0,1.47-.69,2.68-1.86S86.58,319,88.16,317.19Z" style="fill:#92E3A9"></path><path d="M111.28,350.84c2.77-1.18,6.76-3.57,8.48-4.54.2-.11.06-.42-.18-.4-1,.1-2.76.31-4.59.65a29.48,29.48,0,0,0-5.14,1.43,20.35,20.35,0,0,0-4.3,2.33c1-1.62,2-3.2,3-4.78.91.45,3.87-.18,7.15-1.28,1.41-.48,3.14-1.27,4.73-2s3-1.35,3.91-1.74c.2-.08.08-.39-.15-.4a37.43,37.43,0,0,0-4.55.16,25.93,25.93,0,0,0-5.19,1,20.86,20.86,0,0,0-4.44,2.05c.8-1.13,1.58-2.26,2.41-3.36,1-.16,3.08-2.15,5.24-4.71.48-.57,1-1.24,1.51-2l1.61-2.22a42.6,42.6,0,0,1,2.88-3.61.24.24,0,0,0-.27-.38,23.15,23.15,0,0,0-4.15,2.42,28.5,28.5,0,0,0-2.25,1.79,21.11,21.11,0,0,0-1.83,1.86c-2.1,2.49-3.3,5-3.34,6.14-.86,1.12-1.65,2.29-2.47,3.43a32.58,32.58,0,0,0,.56-4.82c.08-1.56,0-3.62-.07-5.6s-.12-3.87-.12-5a.24.24,0,0,0-.47-.06,42.26,42.26,0,0,0-1.61,4.91,27.94,27.94,0,0,0-1,5.58c-.19,3.63.43,6.61,1.15,7.32-1,1.55-2,3.11-3,4.7a34,34,0,0,0,.24-4.83,55.15,55.15,0,0,0-.49-5.54c-.25-1.95-.48-3.8-.62-4.92a.24.24,0,0,0-.47,0,43.71,43.71,0,0,0-1.67,10.46c.07,3.61.81,6.53,1.59,7.21-.94,1.6-1.85,3.22-2.74,4.84a32,32,0,0,0,0-4.83C100.48,349,99.38,344,99,341.8a.23.23,0,0,0-.46,0,45.48,45.48,0,0,0-1,10.44c.25,3.59,1.13,6.48,1.94,7.12-.88,1.64-1.69,3.3-2.53,5a29,29,0,0,0-.2-4.83,98.05,98.05,0,0,0-2.26-10.18.24.24,0,0,0-.46,0c-.16,1.12-.39,2.95-.54,4.88a33,33,0,0,0,0,5.56c.4,3.55,1.41,6.42,2.25,7-.82,1.67-1.54,3.38-2.3,5.07a29,29,0,0,0-.44-4.82,45.83,45.83,0,0,0-1.29-5.38c-.52-1.85-1.07-3.61-1.41-4.68a.23.23,0,0,0-.45,0,47.71,47.71,0,0,0-.06,10.47c.56,3.56,1.74,6.37,2.6,6.92-.69,1.72-1.37,3.45-2,5.21a34.2,34.2,0,0,0-.73-4.8,53,53,0,0,0-1.58-5.33c-.61-1.83-1.23-3.58-1.62-4.64a.23.23,0,0,0-.45.07,45.64,45.64,0,0,0,.46,10.54c.77,3.54,2.12,6.27,3,6.76-.6,1.77-1.12,3.55-1.61,5.34a36,36,0,0,0-1.07-4.74c-.88-3-3-7.71-3.8-9.81a.23.23,0,0,0-.45.1,42.83,42.83,0,0,0,1.11,10.59c1,3.53,2.59,6.13,3.55,6.54a50.67,50.67,0,0,0-1,5.5.42.42,0,0,0,.4.47.44.44,0,0,0,.48-.37,47.63,47.63,0,0,1,1-5.39c1,.09,3.57-1.49,6.28-3.58,2.33-1.83,5.53-5.13,7-6.53.16-.17-.06-.43-.28-.35a39.4,39.4,0,0,0-8.86,4.53,19.9,19.9,0,0,0-3.49,3.39c.49-1.81,1-3.62,1.62-5.4,1,.18,3.68-1.18,6.56-3.11a91.64,91.64,0,0,0,7.43-6.17c.17-.16,0-.44-.26-.36-1,.32-2.65.89-4.39,1.6a29.19,29.19,0,0,0-4.75,2.42,20.34,20.34,0,0,0-3.75,3.14c.62-1.78,1.31-3.54,2-5.28,1,.26,3.75-.93,6.76-2.7a82.28,82.28,0,0,0,7.79-5.86c.17-.15,0-.44-.25-.38-1,.29-2.7.79-4.47,1.42a32.64,32.64,0,0,0-4.9,2.18,22,22,0,0,0-3.93,2.92c.76-1.73,1.5-3.46,2.32-5.15,1,.3,3.8-.72,6.9-2.37a45.84,45.84,0,0,0,4.41-2.86c1.48-1,2.83-2.05,3.64-2.67.19-.13,0-.43-.22-.38a44.77,44.77,0,0,0-9.52,3.18,23.37,23.37,0,0,0-4.08,2.73c.85-1.69,1.68-3.38,2.57-5,.93.35,3.84-.55,7-2.06a91.2,91.2,0,0,0,8.28-5.09c.2-.13,0-.43-.2-.39a41.43,41.43,0,0,0-9.64,2.69,21.56,21.56,0,0,0-4.19,2.54c.9-1.66,1.82-3.3,2.78-4.92C105.11,353,108.06,352.18,111.28,350.84Z" style="fill:#92E3A9"></path><path d="M73,447h12.3c9.73-4.27,16.87-18.4,16.87-35.19a53.17,53.17,0,0,0-3.46-19.26H59.54a53.17,53.17,0,0,0-3.46,19.26C56.08,428.63,63.23,442.76,73,447Z" style="fill:#263238"></path></g><g id="freepik--Picture--inject-114"><rect x="496.26" y="127.4" width="53.29" height="72.23" style="fill:#263238"></rect><path d="M550.05,200.13H495.76V126.9h54.29Zm-53.29-1h52.29V127.9H496.76Z" style="fill:#263238"></path><rect x="499.51" y="131.8" width="46.79" height="63.43" style="fill:#fff"></rect><path d="M546.8,195.73H499V131.3H546.8Zm-46.79-1H545.8V132.3H500Z" style="fill:#263238"></path><rect x="509.58" y="145.45" width="26.66" height="36.13" style="fill:#263238"></rect><path d="M536.73,182.08H509.08V145h27.65Zm-26.65-1h25.65V146H510.08Z" style="fill:#263238"></path></g><g id="freepik--Clock--inject-114"><circle cx="281.07" cy="155.07" r="30.71" style="fill:#263238"></circle><path d="M281.07,186.28a31.21,31.21,0,1,1,31.21-31.21A31.24,31.24,0,0,1,281.07,186.28Zm0-61.42a30.21,30.21,0,1,0,30.21,30.21A30.24,30.24,0,0,0,281.07,124.86Z" style="fill:#263238"></path><circle cx="281.07" cy="155.07" r="27.23" style="fill:#fff"></circle><path d="M281.07,182.8a27.73,27.73,0,1,1,27.73-27.73A27.75,27.75,0,0,1,281.07,182.8Zm0-54.46a26.73,26.73,0,1,0,26.73,26.73A26.76,26.76,0,0,0,281.07,128.34Z" style="fill:#263238"></path><circle cx="281.07" cy="155.07" r="2.87" style="fill:#263238"></circle><path d="M281.07,158.44a3.38,3.38,0,1,1,3.38-3.37A3.37,3.37,0,0,1,281.07,158.44Zm0-5.75a2.38,2.38,0,1,0,2.38,2.38A2.38,2.38,0,0,0,281.07,152.69Z" style="fill:#263238"></path><path d="M294.47,155.57H280.32l9.15-21.85a.5.5,0,0,1,.92.39l-8.56,20.46h12.64a.5.5,0,0,1,.5.5A.5.5,0,0,1,294.47,155.57Z" style="fill:#263238"></path></g><g id="freepik--Windows--inject-114"><path d="M160.69,131.17H95.83l.92-9.65h63.94Zm-63.76-1h62.76v-7.65h-62Z" style="fill:#263238"></path><path d="M160.69,139.83H95.83l.92-9.66h63.94Zm-63.76-1h62.76v-7.66h-62Z" style="fill:#263238"></path><path d="M160.69,148.49H95.83l.92-9.66h63.94Zm-63.76-1h62.76v-7.66h-62Z" style="fill:#263238"></path><path d="M160.69,157.15H95.83l.92-9.66h63.94Zm-63.76-1h62.76v-7.66h-62Z" style="fill:#263238"></path><path d="M160.69,165.81H95.83l.92-9.66h63.94Zm-63.76-1h62.76v-7.66h-62Z" style="fill:#263238"></path><path d="M160.69,174.47H95.83l.92-9.66h63.94Zm-63.76-1h62.76v-7.66h-62Z" style="fill:#263238"></path><path d="M160.69,183.13H95.83l.92-9.66h63.94Zm-63.76-1h62.76v-7.66h-62Z" style="fill:#263238"></path><path d="M160.69,191.79H95.83l.92-9.66h63.94Zm-63.76-1h62.76v-7.66h-62Z" style="fill:#263238"></path><path d="M160.69,200.45H95.83l.92-9.66h63.94Zm-63.76-1h62.76v-7.66h-62Z" style="fill:#263238"></path><path d="M160.69,209.11H95.83l.92-9.66h63.94Zm-63.76-1h62.76v-7.66h-62Z" style="fill:#263238"></path><path d="M160.69,217.77H95.83l.92-9.66h63.94Zm-63.76-1h62.76v-7.66h-62Z" style="fill:#263238"></path><path d="M160.69,226.43H95.83l.92-9.66h63.94Zm-63.76-1h62.76v-7.66h-62Z" style="fill:#263238"></path><path d="M160.69,235.09H95.83l.92-9.66h63.94Zm-63.76-1h62.76v-7.66h-62Z" style="fill:#263238"></path><path d="M160.69,243.75H95.83l.92-9.66h63.94Zm-63.76-1h62.76v-7.66h-62Z" style="fill:#263238"></path><path d="M160.69,252.41H95.83l.92-9.66h63.94Zm-63.76-1h62.76v-7.66h-62Z" style="fill:#263238"></path><path d="M160.69,261.05H95.83l.92-9.66h63.94Zm-63.76-1h62.76v-7.66h-62Z" style="fill:#263238"></path><path d="M160.69,269.7H95.83l.92-9.66h63.94Zm-63.76-1h62.76V261h-62Z" style="fill:#263238"></path><path d="M160.69,278.34H95.83l.92-9.66h63.94Zm-63.76-1h62.76v-7.66h-62Z" style="fill:#263238"></path><path d="M160.69,287H95.83l.92-9.66h63.94Zm-63.76-1h62.76v-7.66h-62Z" style="fill:#263238"></path><path d="M160.69,295.63H95.83l.92-9.66h63.94Zm-63.76-1h62.76V287h-62Z" style="fill:#263238"></path><path d="M160.69,304.27H95.83l.92-9.66h63.94Zm-63.76-1h62.76v-7.66h-62Z" style="fill:#263238"></path><path d="M225.44,131.17H160.57l.93-9.65h63.94Zm-63.77-1h62.77v-7.65h-62Z" style="fill:#263238"></path><path d="M225.44,139.83H160.57l.93-9.66h63.94Zm-63.77-1h62.77v-7.66h-62Z" style="fill:#263238"></path><path d="M225.44,148.49H160.57l.93-9.66h63.94Zm-63.77-1h62.77v-7.66h-62Z" style="fill:#263238"></path><path d="M225.44,157.15H160.57l.93-9.66h63.94Zm-63.77-1h62.77v-7.66h-62Z" style="fill:#263238"></path><path d="M225.44,165.81H160.57l.93-9.66h63.94Zm-63.77-1h62.77v-7.66h-62Z" style="fill:#263238"></path><path d="M225.44,174.47H160.57l.93-9.66h63.94Zm-63.77-1h62.77v-7.66h-62Z" style="fill:#263238"></path><path d="M225.44,183.13H160.57l.93-9.66h63.94Zm-63.77-1h62.77v-7.66h-62Z" style="fill:#263238"></path><path d="M225.44,191.79H160.57l.93-9.66h63.94Zm-63.77-1h62.77v-7.66h-62Z" style="fill:#263238"></path><path d="M225.44,200.45H160.57l.93-9.66h63.94Zm-63.77-1h62.77v-7.66h-62Z" style="fill:#263238"></path><path d="M225.44,209.11H160.57l.93-9.66h63.94Zm-63.77-1h62.77v-7.66h-62Z" style="fill:#263238"></path><path d="M225.44,217.77H160.57l.93-9.66h63.94Zm-63.77-1h62.77v-7.66h-62Z" style="fill:#263238"></path><path d="M225.44,226.43H160.57l.93-9.66h63.94Zm-63.77-1h62.77v-7.66h-62Z" style="fill:#263238"></path><path d="M225.44,235.09H160.57l.93-9.66h63.94Zm-63.77-1h62.77v-7.66h-62Z" style="fill:#263238"></path><path d="M225.44,243.75H160.57l.93-9.66h63.94Zm-63.77-1h62.77v-7.66h-62Z" style="fill:#263238"></path><path d="M225.44,252.41H160.57l.93-9.66h63.94Zm-63.77-1h62.77v-7.66h-62Z" style="fill:#263238"></path><path d="M225.44,261.05H160.57l.93-9.66h63.94Zm-63.77-1h62.77v-7.66h-62Z" style="fill:#263238"></path><path d="M225.44,269.7H160.57l.93-9.66h63.94Zm-63.77-1h62.77V261h-62Z" style="fill:#263238"></path><path d="M225.44,278.34H160.57l.93-9.66h63.94Zm-63.77-1h62.77v-7.66h-62Z" style="fill:#263238"></path><path d="M225.44,287H160.57l.93-9.66h63.94Zm-63.77-1h62.77v-7.66h-62Z" style="fill:#263238"></path><path d="M225.44,295.63H160.57l.93-9.66h63.94Zm-63.77-1h62.77V287h-62Z" style="fill:#263238"></path><path d="M225.44,304.27H160.57l.93-9.66h63.94Zm-63.77-1h62.77v-7.66h-62Z" style="fill:#263238"></path><path d="M228.6,122.34H94.4v-7.53H228.6Zm-133.2-1H227.6v-5.53H95.4Z" style="fill:#263238"></path><rect x="227.6" y="121.84" width="1" height="115.05" style="fill:#263238"></rect><rect x="226.14" y="122.03" width="1" height="78.93" style="fill:#263238"></rect><rect x="227.25" y="236.64" width="1.79" height="2.93" style="fill:#263238"></rect><path d="M229.54,240.07h-2.79v-3.93h2.79Zm-1.79-1h.79v-1.93h-.79Z" style="fill:#263238"></path><rect x="225.64" y="200.33" width="1.79" height="2.93" style="fill:#263238"></rect><path d="M227.93,203.76h-2.79v-3.93h2.79Zm-1.79-1h.79v-1.93h-.79Z" style="fill:#263238"></path><path d="M401.76,131.17H336.89l.93-9.65h63.94Zm-63.77-1h62.77v-7.65h-62Z" style="fill:#263238"></path><path d="M401.76,139.83H336.89l.93-9.66h63.94Zm-63.77-1h62.77v-7.66h-62Z" style="fill:#263238"></path><path d="M401.76,148.49H336.89l.93-9.66h63.94Zm-63.77-1h62.77v-7.66h-62Z" style="fill:#263238"></path><path d="M401.76,157.15H336.89l.93-9.66h63.94Zm-63.77-1h62.77v-7.66h-62Z" style="fill:#263238"></path><path d="M401.76,165.81H336.89l.93-9.66h63.94Zm-63.77-1h62.77v-7.66h-62Z" style="fill:#263238"></path><path d="M401.76,174.47H336.89l.93-9.66h63.94Zm-63.77-1h62.77v-7.66h-62Z" style="fill:#263238"></path><path d="M401.76,183.13H336.89l.93-9.66h63.94Zm-63.77-1h62.77v-7.66h-62Z" style="fill:#263238"></path><path d="M401.76,191.79H336.89l.93-9.66h63.94Zm-63.77-1h62.77v-7.66h-62Z" style="fill:#263238"></path><path d="M401.76,200.45H336.89l.93-9.66h63.94Zm-63.77-1h62.77v-7.66h-62Z" style="fill:#263238"></path><path d="M401.76,209.11H336.89l.93-9.66h63.94Zm-63.77-1h62.77v-7.66h-62Z" style="fill:#263238"></path><path d="M401.76,217.77H336.89l.93-9.66h63.94Zm-63.77-1h62.77v-7.66h-62Z" style="fill:#263238"></path><path d="M401.76,226.43H336.89l.93-9.66h63.94Zm-63.77-1h62.77v-7.66h-62Z" style="fill:#263238"></path><path d="M401.76,235.09H336.89l.93-9.66h63.94Zm-63.77-1h62.77v-7.66h-62Z" style="fill:#263238"></path><path d="M401.76,243.75H336.89l.93-9.66h63.94Zm-63.77-1h62.77v-7.66h-62Z" style="fill:#263238"></path><path d="M401.76,252.41H336.89l.93-9.66h63.94Zm-63.77-1h62.77v-7.66h-62Z" style="fill:#263238"></path><path d="M401.76,261.05H336.89l.93-9.66h63.94Zm-63.77-1h62.77v-7.66h-62Z" style="fill:#263238"></path><path d="M401.76,269.7H336.89l.93-9.66h63.94Zm-63.77-1h62.77V261h-62Z" style="fill:#263238"></path><path d="M401.76,278.34H336.89l.93-9.66h63.94Zm-63.77-1h62.77v-7.66h-62Z" style="fill:#263238"></path><path d="M401.76,287H336.89l.93-9.66h63.94ZM338,286h62.77v-7.66h-62Z" style="fill:#263238"></path><path d="M401.76,295.63H336.89l.93-9.66h63.94Zm-63.77-1h62.77V287h-62Z" style="fill:#263238"></path><path d="M401.76,304.27H336.89l.93-9.66h63.94Zm-63.77-1h62.77v-7.66h-62Z" style="fill:#263238"></path><path d="M466.5,131.17H401.64l.93-9.65H466.5Zm-63.76-1H465.5v-7.65h-62Z" style="fill:#263238"></path><path d="M466.5,139.83H401.64l.93-9.66H466.5Zm-63.76-1H465.5v-7.66h-62Z" style="fill:#263238"></path><path d="M466.5,148.49H401.64l.93-9.66H466.5Zm-63.76-1H465.5v-7.66h-62Z" style="fill:#263238"></path><path d="M466.5,157.15H401.64l.93-9.66H466.5Zm-63.76-1H465.5v-7.66h-62Z" style="fill:#263238"></path><path d="M466.5,165.81H401.64l.93-9.66H466.5Zm-63.76-1H465.5v-7.66h-62Z" style="fill:#263238"></path><path d="M466.5,174.47H401.64l.93-9.66H466.5Zm-63.76-1H465.5v-7.66h-62Z" style="fill:#263238"></path><path d="M466.5,183.13H401.64l.93-9.66H466.5Zm-63.76-1H465.5v-7.66h-62Z" style="fill:#263238"></path><path d="M466.5,191.79H401.64l.93-9.66H466.5Zm-63.76-1H465.5v-7.66h-62Z" style="fill:#263238"></path><path d="M466.5,200.45H401.64l.93-9.66H466.5Zm-63.76-1H465.5v-7.66h-62Z" style="fill:#263238"></path><path d="M466.5,209.11H401.64l.93-9.66H466.5Zm-63.76-1H465.5v-7.66h-62Z" style="fill:#263238"></path><path d="M466.5,217.77H401.64l.93-9.66H466.5Zm-63.76-1H465.5v-7.66h-62Z" style="fill:#263238"></path><path d="M466.5,226.43H401.64l.93-9.66H466.5Zm-63.76-1H465.5v-7.66h-62Z" style="fill:#263238"></path><path d="M466.5,235.09H401.64l.93-9.66H466.5Zm-63.76-1H465.5v-7.66h-62Z" style="fill:#263238"></path><path d="M466.5,243.75H401.64l.93-9.66H466.5Zm-63.76-1H465.5v-7.66h-62Z" style="fill:#263238"></path><path d="M466.5,252.41H401.64l.93-9.66H466.5Zm-63.76-1H465.5v-7.66h-62Z" style="fill:#263238"></path><path d="M466.5,261.05H401.64l.93-9.66H466.5Zm-63.76-1H465.5v-7.66h-62Z" style="fill:#263238"></path><path d="M466.5,269.7H401.64l.93-9.66H466.5Zm-63.76-1H465.5V261h-62Z" style="fill:#263238"></path><path d="M466.5,278.34H401.64l.93-9.66H466.5Zm-63.76-1H465.5v-7.66h-62Z" style="fill:#263238"></path><path d="M466.5,287H401.64l.93-9.66H466.5Zm-63.76-1H465.5v-7.66h-62Z" style="fill:#263238"></path><path d="M466.5,295.63H401.64l.93-9.66H466.5Zm-63.76-1H465.5V287h-62Z" style="fill:#263238"></path><path d="M466.5,304.27H401.64l.93-9.66H466.5Zm-63.76-1H465.5v-7.66h-62Z" style="fill:#263238"></path><path d="M469.66,122.34H335.47v-7.53H469.66Zm-133.19-1H468.66v-5.53H336.47Z" style="fill:#263238"></path><rect x="468.66" y="121.84" width="1" height="115.05" style="fill:#263238"></rect><rect x="467.21" y="122.03" width="1" height="78.93" style="fill:#263238"></rect><rect x="468.31" y="236.64" width="1.79" height="2.93" style="fill:#263238"></rect><path d="M470.6,240.07h-2.79v-3.93h2.79Zm-1.79-1h.79v-1.93h-.79Z" style="fill:#263238"></path><rect x="466.7" y="200.33" width="1.79" height="2.93" style="fill:#263238"></rect><path d="M469,203.76H466.2v-3.93H469Zm-1.79-1H468v-1.93h-.79Z" style="fill:#263238"></path><path d="M642.82,131.17H578l.93-9.65h63.94Zm-63.77-1h62.77v-7.65h-62Z" style="fill:#263238"></path><path d="M642.82,139.83H578l.93-9.66h63.94Zm-63.77-1h62.77v-7.66h-62Z" style="fill:#263238"></path><path d="M642.82,148.49H578l.93-9.66h63.94Zm-63.77-1h62.77v-7.66h-62Z" style="fill:#263238"></path><path d="M642.82,157.15H578l.93-9.66h63.94Zm-63.77-1h62.77v-7.66h-62Z" style="fill:#263238"></path><path d="M642.82,165.81H578l.93-9.66h63.94Zm-63.77-1h62.77v-7.66h-62Z" style="fill:#263238"></path><path d="M642.82,174.47H578l.93-9.66h63.94Zm-63.77-1h62.77v-7.66h-62Z" style="fill:#263238"></path><path d="M642.82,183.13H578l.93-9.66h63.94Zm-63.77-1h62.77v-7.66h-62Z" style="fill:#263238"></path><path d="M642.82,191.79H578l.93-9.66h63.94Zm-63.77-1h62.77v-7.66h-62Z" style="fill:#263238"></path><path d="M642.82,200.45H578l.93-9.66h63.94Zm-63.77-1h62.77v-7.66h-62Z" style="fill:#263238"></path><path d="M642.82,209.11H578l.93-9.66h63.94Zm-63.77-1h62.77v-7.66h-62Z" style="fill:#263238"></path><path d="M642.82,217.77H578l.93-9.66h63.94Zm-63.77-1h62.77v-7.66h-62Z" style="fill:#263238"></path><path d="M642.82,226.43H578l.93-9.66h63.94Zm-63.77-1h62.77v-7.66h-62Z" style="fill:#263238"></path><path d="M642.82,235.09H578l.93-9.66h63.94Zm-63.77-1h62.77v-7.66h-62Z" style="fill:#263238"></path><path d="M642.82,243.75H578l.93-9.66h63.94Zm-63.77-1h62.77v-7.66h-62Z" style="fill:#263238"></path><path d="M642.82,252.41H578l.93-9.66h63.94Zm-63.77-1h62.77v-7.66h-62Z" style="fill:#263238"></path><path d="M642.82,261.05H578l.93-9.66h63.94Zm-63.77-1h62.77v-7.66h-62Z" style="fill:#263238"></path><path d="M642.82,269.7H578l.93-9.66h63.94Zm-63.77-1h62.77V261h-62Z" style="fill:#263238"></path><path d="M642.82,278.34H578l.93-9.66h63.94Zm-63.77-1h62.77v-7.66h-62Z" style="fill:#263238"></path><path d="M642.82,287H578l.93-9.66h63.94Zm-63.77-1h62.77v-7.66h-62Z" style="fill:#263238"></path><path d="M642.82,295.63H578l.93-9.66h63.94Zm-63.77-1h62.77V287h-62Z" style="fill:#263238"></path><path d="M642.82,304.27H578l.93-9.66h63.94Zm-63.77-1h62.77v-7.66h-62Z" style="fill:#263238"></path><path d="M707.57,131.17H642.7l.93-9.65h63.94Zm-63.77-1h62.77v-7.65h-62Z" style="fill:#263238"></path><path d="M707.57,139.83H642.7l.93-9.66h63.94Zm-63.77-1h62.77v-7.66h-62Z" style="fill:#263238"></path><path d="M707.57,148.49H642.7l.93-9.66h63.94Zm-63.77-1h62.77v-7.66h-62Z" style="fill:#263238"></path><path d="M707.57,157.15H642.7l.93-9.66h63.94Zm-63.77-1h62.77v-7.66h-62Z" style="fill:#263238"></path><path d="M707.57,165.81H642.7l.93-9.66h63.94Zm-63.77-1h62.77v-7.66h-62Z" style="fill:#263238"></path><path d="M707.57,174.47H642.7l.93-9.66h63.94Zm-63.77-1h62.77v-7.66h-62Z" style="fill:#263238"></path><path d="M707.57,183.13H642.7l.93-9.66h63.94Zm-63.77-1h62.77v-7.66h-62Z" style="fill:#263238"></path><path d="M707.57,191.79H642.7l.93-9.66h63.94Zm-63.77-1h62.77v-7.66h-62Z" style="fill:#263238"></path><path d="M707.57,200.45H642.7l.93-9.66h63.94Zm-63.77-1h62.77v-7.66h-62Z" style="fill:#263238"></path><path d="M707.57,209.11H642.7l.93-9.66h63.94Zm-63.77-1h62.77v-7.66h-62Z" style="fill:#263238"></path><path d="M707.57,217.77H642.7l.93-9.66h63.94Zm-63.77-1h62.77v-7.66h-62Z" style="fill:#263238"></path><path d="M707.57,226.43H642.7l.93-9.66h63.94Zm-63.77-1h62.77v-7.66h-62Z" style="fill:#263238"></path><path d="M707.57,235.09H642.7l.93-9.66h63.94Zm-63.77-1h62.77v-7.66h-62Z" style="fill:#263238"></path><path d="M707.57,243.75H642.7l.93-9.66h63.94Zm-63.77-1h62.77v-7.66h-62Z" style="fill:#263238"></path><path d="M707.57,252.41H642.7l.93-9.66h63.94Zm-63.77-1h62.77v-7.66h-62Z" style="fill:#263238"></path><path d="M707.57,261.05H642.7l.93-9.66h63.94Zm-63.77-1h62.77v-7.66h-62Z" style="fill:#263238"></path><path d="M707.57,269.7H642.7l.93-9.66h63.94Zm-63.77-1h62.77V261h-62Z" style="fill:#263238"></path><path d="M707.57,278.34H642.7l.93-9.66h63.94Zm-63.77-1h62.77v-7.66h-62Z" style="fill:#263238"></path><path d="M707.57,287H642.7l.93-9.66h63.94Zm-63.77-1h62.77v-7.66h-62Z" style="fill:#263238"></path><path d="M707.57,295.63H642.7l.93-9.66h63.94Zm-63.77-1h62.77V287h-62Z" style="fill:#263238"></path><path d="M707.57,304.27H642.7l.93-9.66h63.94Zm-63.77-1h62.77v-7.66h-62Z" style="fill:#263238"></path><path d="M710.72,122.34H576.53v-7.53H710.72Zm-133.19-1H709.72v-5.53H577.53Z" style="fill:#263238"></path><rect x="709.72" y="121.84" width="1" height="115.05" style="fill:#263238"></rect><rect x="708.27" y="122.03" width="1" height="78.93" style="fill:#263238"></rect><rect x="709.37" y="236.64" width="1.79" height="2.93" style="fill:#263238"></rect><path d="M711.67,240.07h-2.79v-3.93h2.79Zm-1.79-1h.79v-1.93h-.79Z" style="fill:#263238"></path><rect x="707.76" y="200.33" width="1.79" height="2.93" style="fill:#263238"></rect><path d="M710.05,203.76h-2.79v-3.93h2.79Zm-1.79-1h.79v-1.93h-.79Z" style="fill:#263238"></path></g><g id="freepik--Lamps--inject-114"><polygon points="623.36 112.66 598.28 138.05 660.05 138.05 634.98 112.66 623.36 112.66" style="fill:#263238"></polygon><path d="M661.25,138.55H597.09l26.06-26.39h12l.14.14Zm-61.77-1h59.38l-24.09-24.39h-11.2Z" style="fill:#263238"></path><rect x="623.36" y="109.27" width="11.49" height="3.38" style="fill:#263238"></rect><path d="M635.35,113.16H622.86v-4.39h12.49Zm-11.49-1h10.49v-2.39H623.86Z" style="fill:#263238"></path><rect x="628.53" y="65.58" width="1" height="43.7" style="fill:#263238"></rect><polygon points="77.36 112.66 52.28 138.05 114.05 138.05 88.98 112.66 77.36 112.66" style="fill:#263238"></polygon><path d="M115.25,138.55H51.09l26.06-26.39h12Zm-61.77-1h59.38L88.77,113.16H77.57Z" style="fill:#263238"></path><rect x="77.36" y="109.27" width="11.49" height="3.38" style="fill:#263238"></rect><path d="M89.35,113.16H76.86v-4.39H89.35Zm-11.49-1H88.35v-2.39H77.86Z" style="fill:#263238"></path><rect x="82.53" y="65.58" width="1" height="43.7" style="fill:#263238"></rect></g><g id="freepik--file-cabinet--inject-114"><polyline points="669.85 208.91 673.19 199.78 671.4 201.79 671.4 198.67 667.62 204.46 670.96 183.75 666.51 195.11 666.06 185.09 665.39 188.43 664.5 177.07 662.94 194.44 660.72 188.43 661.16 196.22 655.15 178.4 658.04 200.67 653.81 197.56 656.26 201.56 653.14 199.34 656.71 209.58 669.62 209.8" style="fill:#92E3A9"></polyline><polygon points="655.56 231.4 669.49 231.4 673.24 207.28 651.81 207.28 655.56 231.4" style="fill:#263238"></polygon><path d="M669.49,231.9H655.56a.51.51,0,0,1-.5-.42l-3.75-24.13a.52.52,0,0,1,.5-.58h21.43a.5.5,0,0,1,.49.58L670,231.48A.5.5,0,0,1,669.49,231.9Zm-13.5-1h13.07l3.59-23.13H652.39Z" style="fill:#263238"></path><rect x="630.91" y="231.24" width="61.83" height="215.8" transform="translate(1323.64 678.27) rotate(180)" style="fill:#fff"></rect><path d="M692.74,447.53H630.91a.5.5,0,0,1-.5-.5V231.24a.5.5,0,0,1,.5-.5h61.83a.5.5,0,0,1,.5.5V447A.5.5,0,0,1,692.74,447.53Zm-61.33-1h60.83V231.74H631.41Z" style="fill:#263238"></path><rect x="635.11" y="238.32" width="54.03" height="51.98" transform="translate(1324.25 528.63) rotate(180)" style="fill:#fff"></rect><path d="M689.14,290.8h-54a.5.5,0,0,1-.5-.5v-52a.5.5,0,0,1,.5-.5h54a.51.51,0,0,1,.5.5v52A.5.5,0,0,1,689.14,290.8Zm-53.53-1h53v-51h-53Z" style="fill:#263238"></path><rect x="651.32" y="259.59" width="21.61" height="9.45" transform="translate(1324.25 528.63) rotate(180)" style="fill:#263238"></rect><rect x="635.11" y="298.97" width="54.03" height="51.98" transform="translate(1324.25 649.92) rotate(180)" style="fill:#fff"></rect><path d="M689.14,351.45h-54a.5.5,0,0,1-.5-.5V299a.5.5,0,0,1,.5-.5h54a.5.5,0,0,1,.5.5v52A.51.51,0,0,1,689.14,351.45Zm-53.53-1h53v-51h-53Z" style="fill:#263238"></path><rect x="651.32" y="320.23" width="21.61" height="9.45" transform="translate(1324.25 649.92) rotate(180)" style="fill:#263238"></rect><rect x="635.11" y="359.61" width="54.03" height="51.98" transform="translate(1324.25 771.2) rotate(180)" style="fill:#fff"></rect><path d="M689.14,412.09h-54a.5.5,0,0,1-.5-.5v-52a.5.5,0,0,1,.5-.5h54a.5.5,0,0,1,.5.5v52A.5.5,0,0,1,689.14,412.09Zm-53.53-1h53v-51h-53Z" style="fill:#263238"></path><rect x="651.32" y="380.88" width="21.61" height="9.45" transform="translate(1324.25 771.2) rotate(180)" style="fill:#263238"></rect></g><g id="freepik--character-2--inject-114"><path d="M494.25,448.33h-.1a2,2,0,0,1-1.9-2.09l3.69-78.77a2,2,0,0,1,2.1-1.91,2,2,0,0,1,1.9,2.09l-3.7,78.78A2,2,0,0,1,494.25,448.33Z" style="fill:#263238"></path><path d="M500.1,448.3H500a2,2,0,0,1-1.9-2.09L503,342.5a2,2,0,0,1,2.09-1.9,2,2,0,0,1,1.9,2.09L502.1,446.4A2,2,0,0,1,500.1,448.3Z" style="fill:#263238"></path><path d="M568.48,448.3a2,2,0,0,1-2-1.89l-5.23-102.48a2,2,0,1,1,4-.2l5.24,102.47a2,2,0,0,1-1.9,2.1Z" style="fill:#263238"></path><path d="M573.72,448.33a2,2,0,0,1-2-1.91L568,367.64a2,2,0,0,1,4-.18l3.7,78.77a2,2,0,0,1-1.91,2.09Z" style="fill:#263238"></path><rect x="500.68" y="286.49" width="66" height="59.98" rx="4.5" style="fill:#c4c4c4"></rect><path d="M562.18,347h-57a5,5,0,0,1-5-5V291a5,5,0,0,1,5-5h57a5,5,0,0,1,5,5v51A5,5,0,0,1,562.18,347Zm-57-60a4,4,0,0,0-4,4v51a4,4,0,0,0,4,4h57a4,4,0,0,0,4-4V291a4,4,0,0,0-4-4Z" style="fill:#263238"></path><path d="M574.05,372.2H496.47a3.75,3.75,0,0,1-3.75-3.75h0a3.75,3.75,0,0,1,3.75-3.75h77.58a3.75,3.75,0,0,1,3.75,3.75h0A3.75,3.75,0,0,1,574.05,372.2Z" style="fill:#c4c4c4"></path><path d="M574.05,372.7H496.47a4.25,4.25,0,0,1,0-8.5h77.58a4.25,4.25,0,0,1,0,8.5Zm-77.58-7.5a3.25,3.25,0,0,0,0,6.5h77.58a3.25,3.25,0,0,0,0-6.5Z" style="fill:#263238"></path><path d="M507.86,309.13l-3.6,14.74a33.14,33.14,0,0,1-6.88,2.07c-3.52.64-5,.44-4.81-.43s5.89-23.59,5.89-23.59Z" style="fill:#c4c4c4"></path><path d="M494.13,326.82c-1.15,0-1.59-.25-1.83-.5a1,1,0,0,1-.22-.93L498,301.8a.47.47,0,0,1,.32-.35.5.5,0,0,1,.47.07l9.39,7.21a.49.49,0,0,1,.18.52L504.74,324a.48.48,0,0,1-.28.34,33,33,0,0,1-7,2.12A20.06,20.06,0,0,1,494.13,326.82Zm4.63-24c-1,3.91-5.51,22.07-5.71,22.85,0,0,.47.51,4.24-.18a32.52,32.52,0,0,0,6.54-1.95l3.46-14.17Z" style="fill:#263238"></path><path d="M525.22,265.22s-.22,7.43-1.53,9.61S516,278.11,512.33,279s-7.64,2.84-9.83,5.9-9.17,21.63-9.17,21.63l14.85,7.86,2-7.21,5.89,10s-8.73,14.2-11.79,22.94-2.84,15.5,2,20.75,10.27,5.89,15.51,6.11,30.15.88,35.83-1.31,9.17-6.77,8.52-18.13S553.61,319.18,553,317.65s-1.31-2.84-1.31-2.84l1.75-9.4,2.84,6.78,13.76-9.4s-6.77-16.16-10.49-20.09-9.17-4.59-13.32-5.25-5.9-1.74-7.43-4.15-1.31-8.08-1.31-8.08Z" style="fill:#c4c4c4"></path><path d="M536.18,367.77c-7.66,0-14.34-.25-14.48-.26-5.31-.22-10.91-.89-15.85-6.28-4.7-5.12-5.36-11.87-2.07-21.25,2.81-8,10.49-20.81,11.68-22.77l-5.14-8.77-1.66,6.06a.49.49,0,0,1-.28.33.5.5,0,0,1-.43,0L493.09,307a.5.5,0,0,1-.23-.62c.29-.76,7-18.66,9.23-21.74,2-2.84,5.72-5.06,10.13-6.09.52-.13,1.1-.26,1.71-.39,3.51-.78,8.32-1.84,9.33-3.53s1.4-7.34,1.46-9.37a.51.51,0,0,1,.5-.49h12.23a.48.48,0,0,1,.36.16.47.47,0,0,1,.14.36c0,.06-.19,5.55,1.23,7.8s3.23,3.31,7.09,3.92l.68.11c4.14.64,9.3,1.44,12.93,5.28s10.3,19.59,10.58,20.25a.52.52,0,0,1-.18.61l-13.76,9.39a.54.54,0,0,1-.43.07.5.5,0,0,1-.31-.29l-2.2-5.23-1.41,7.58c.19.4.72,1.49,1.25,2.72.1.23.59,1,1.21,2.05,3.12,5.07,11.39,18.54,11.93,28,.6,10.3-2.13,16-8.83,18.63C554.37,367.46,544.67,367.77,536.18,367.77Zm-26-61.11a.5.5,0,0,1,.43.25l5.9,10a.49.49,0,0,1,0,.51c-.09.14-8.74,14.25-11.75,22.84-3.15,9-2.55,15.43,1.86,20.25,4.68,5.11,10.06,5.74,15.16,5.95,6.16.26,30.24.8,35.63-1.27,6.32-2.44,8.77-7.71,8.2-17.64C565,338.35,556.86,325,553.78,320c-.78-1.27-1.16-1.89-1.28-2.18-.64-1.49-1.29-2.8-1.3-2.81a.5.5,0,0,1,0-.32l1.75-9.39a.49.49,0,0,1,.43-.4.5.5,0,0,1,.52.3l2.6,6.21,12.92-8.82c-1-2.44-6.93-16.08-10.23-19.57s-8.36-4.37-12.35-5l-.69-.11c-4.15-.66-6.11-1.76-7.77-4.38-1.33-2.09-1.41-6.36-1.4-7.85H525.7c-.08,1.72-.41,7.41-1.58,9.37s-6.08,3.13-10,4l-1.71.38c-4.17,1-7.65,3.06-9.53,5.7s-7.92,18.35-9,21.1l13.91,7.37,1.8-6.61a.5.5,0,0,1,.42-.36Z" style="fill:#263238"></path><polygon points="524.69 270.61 529.98 268.58 525.22 265.22 524.69 270.61" style="fill:#263238"></polygon><path d="M524.69,271.11a.45.45,0,0,1-.3-.1.51.51,0,0,1-.2-.45l.53-5.39a.51.51,0,0,1,.29-.4.5.5,0,0,1,.5,0l4.76,3.36a.5.5,0,0,1,.21.47.51.51,0,0,1-.32.4l-5.29,2Zm.94-5-.36,3.73,3.66-1.4Z" style="fill:#263238"></path><path d="M557.55,309.13,563,329.66s3.06,3.5,6.77,2.4,3.28-5.68,3.06-6.55l-5.9-23.59Z" style="fill:#c4c4c4"></path><path d="M568.3,332.78c-3.19,0-5.55-2.66-5.67-2.79a.56.56,0,0,1-.11-.2l-5.46-20.53a.51.51,0,0,1,.18-.53l9.39-7.21a.5.5,0,0,1,.47-.07.47.47,0,0,1,.32.35l5.9,23.59c.3,1.21.62,6-3.4,7.15A5.53,5.53,0,0,1,568.3,332.78Zm-4.84-3.37c.47.5,3.13,3.07,6.18,2.17,3.62-1.06,2.72-5.9,2.71-5.95-.19-.78-4.73-18.94-5.71-22.85l-8.52,6.54Z" style="fill:#263238"></path><path d="M566.07,347.57c-.66-11.36-12.46-28.39-13.11-29.92s-1.31-2.84-1.31-2.84l1.75-9.4,2.84,6.78,13.76-9.4s-6.77-16.16-10.49-20.09c-2.66-2.83-6.23-4-9.57-4.62l-4.19,16.41H518.67l-5.2-15.77-1.14.26c-3.71.88-7.64,2.84-9.83,5.9s-9.17,21.63-9.17,21.63l14.85,7.86,2-7.21,5.89,10s-8.73,14.2-11.79,22.94-2.84,15.5,2,20.75,10.27,5.89,15.51,6.11,30.15.88,35.83-1.31S566.72,358.93,566.07,347.57Z" style="fill:#92E3A9"></path><path d="M536.18,367.77c-7.67,0-14.34-.25-14.48-.26-5.31-.22-10.91-.89-15.85-6.28-4.7-5.12-5.36-11.87-2.07-21.25,2.81-8,10.49-20.81,11.68-22.77l-5.14-8.77-1.66,6.06a.49.49,0,0,1-.28.33.5.5,0,0,1-.43,0L493.09,307a.5.5,0,0,1-.23-.62c.29-.76,7-18.66,9.23-21.74,2-2.84,5.72-5.06,10.13-6.09l1.14-.26a.5.5,0,0,1,.59.33L519,294h26.33l4.1-16a.51.51,0,0,1,.58-.37c3.05.61,6.93,1.69,9.84,4.76,3.73,4,10.3,19.59,10.58,20.25a.52.52,0,0,1-.18.61l-13.76,9.39a.54.54,0,0,1-.43.07.5.5,0,0,1-.31-.29l-2.2-5.23-1.41,7.58c.19.4.72,1.49,1.25,2.72.1.23.59,1,1.21,2.05,3.12,5.07,11.39,18.54,11.93,28,.6,10.3-2.13,16-8.83,18.63C554.37,367.46,544.67,367.77,536.18,367.77Zm-26-61.11a.5.5,0,0,1,.43.25l5.9,10a.49.49,0,0,1,0,.51c-.09.14-8.74,14.25-11.75,22.84-3.15,9-2.55,15.43,1.86,20.25,4.68,5.11,10.06,5.74,15.16,5.95,6.16.26,30.24.8,35.63-1.27,6.32-2.44,8.77-7.71,8.2-17.64C565,338.35,556.86,325,553.78,320c-.78-1.27-1.16-1.89-1.28-2.18-.64-1.49-1.29-2.8-1.3-2.81a.5.5,0,0,1,0-.32l1.75-9.39a.49.49,0,0,1,.43-.4.5.5,0,0,1,.52.3l2.6,6.21,12.92-8.82c-1-2.44-6.93-16.08-10.23-19.57-2.57-2.72-6-3.78-8.84-4.37l-4.07,15.95a.5.5,0,0,1-.49.37H518.67a.51.51,0,0,1-.48-.34l-5.05-15.34-.7.16c-4.17,1-7.65,3.06-9.53,5.7s-7.92,18.35-9,21.1l13.91,7.37,1.8-6.61a.5.5,0,0,1,.42-.36Z" style="fill:#263238"></path><path d="M523.58,316.1a.5.5,0,0,1-.08-1l16.61-2.64a.49.49,0,0,1,.57.41.5.5,0,0,1-.41.57l-16.61,2.65Z" style="fill:#263238"></path><path d="M529.6,317.78a.5.5,0,0,1-.11-1l11.07-2.4a.5.5,0,1,1,.22,1l-11.07,2.41Z" style="fill:#263238"></path><path d="M553.4,305.91a.5.5,0,0,1-.49-.39l-2.38-10.75a.5.5,0,0,1,.38-.6.48.48,0,0,1,.59.38l2.38,10.76a.49.49,0,0,1-.38.59Z" style="fill:#263238"></path><path d="M525.44,421.55S515.39,366.79,515,360.46s4.15-10,9.39-11.14,9.62,4.37,10,8.08c.37,3.15.27,49.5.23,63.3a38.55,38.55,0,0,1-.77,7.65c-.42,2.09-.87,4.43-1,5.22-.21,1.53-.21,7.86-2.84,11.36s-6.55,5.89-7.86,1.74-.22-10.26.87-13.54,2.19-5.9,2.19-5.9Z" style="fill:#c4c4c4"></path><path d="M524.54,449.37a3.57,3.57,0,0,1-.47,0c-.77-.13-1.81-.67-2.39-2.51-1.44-4.56,0-11.05.88-13.85s2-5.37,2.16-5.85l.21-5.53c-.53-2.92-10-54.85-10.48-61.1-.48-7,4.74-10.61,9.79-11.66a7.72,7.72,0,0,1,6.2,1.48,11.16,11.16,0,0,1,4.45,7c.37,3.19.27,49.31.23,63.36a39.48,39.48,0,0,1-.78,7.75c-.56,2.82-.89,4.56-1,5.19,0,.25-.07.65-.11,1.14-.18,2.41-.57,7.43-2.83,10.45C528.88,447.29,526.58,449.37,524.54,449.37Zm1.17-99.69a6.13,6.13,0,0,0-1.26.13c-4.64,1-9.44,4.26-9,10.62s10.38,60.49,10.48,61c0,0,0,.08,0,.11l-.22,5.68a.85.85,0,0,1,0,.17s-1.1,2.65-2.17,5.87c-.9,2.69-2.24,8.92-.87,13.23.34,1.09.88,1.7,1.6,1.82,1.38.24,3.54-1.26,5.38-3.71,2.09-2.78,2.46-7.61,2.64-9.93,0-.52.07-.93.11-1.2.09-.66.42-2.37,1-5.25a38.29,38.29,0,0,0,.76-7.55c.09-28.94.07-60.75-.22-63.24a10.1,10.1,0,0,0-4-6.34A7.13,7.13,0,0,0,525.71,349.68Z" style="fill:#263238"></path><path d="M532.65,430.51c-1.53,3.93-2.63,7-5.9,7.21s-3.72-4.59-3.72-4.59c-1.09,3.28-2.18,9.39-.87,13.54s5.24,1.75,7.86-1.74,2.63-9.83,2.84-11.36c.12-.79.57-3.13,1-5.22.1-.48.18-1,.26-1.46C533.6,428.11,533.09,429.37,532.65,430.51Z" style="fill:#263238"></path><path d="M524.54,449.37a3.57,3.57,0,0,1-.47,0c-.77-.13-1.81-.67-2.39-2.51-1.44-4.56,0-11.05.88-13.85l.75-2.25.22,2.36c0,.05.44,4.3,3.18,4.14s3.9-2.86,5.34-6.56l.13-.33c.44-1.14,1-2.4,1.47-3.63l1.64-3.94L534.6,427c-.08.5-.16,1-.26,1.48-.56,2.82-.89,4.56-1,5.19,0,.25-.07.65-.11,1.14-.18,2.41-.57,7.43-2.83,10.45C528.88,447.29,526.58,449.37,524.54,449.37ZM523,435.15c-.78,3.1-1.45,7.87-.34,11.37.34,1.09.88,1.7,1.6,1.82,1.38.24,3.54-1.26,5.38-3.71,2.09-2.78,2.46-7.61,2.64-9.93,0-.52.07-.93.11-1.2s.14-.85.29-1.64c-1.37,3.48-2.63,6.14-5.88,6.36C524.71,438.37,523.55,436.75,523,435.15Z" style="fill:#263238"></path><path d="M545.12,421.55s10-54.76,10.49-61.09-4.15-10-9.4-11.14-9.61,4.37-10,8.08c-.37,3.15-.27,49.5-.23,63.3a38.55,38.55,0,0,0,.77,7.65c.41,2.09.87,4.43,1,5.22.22,1.53.22,7.86,2.84,11.36s6.56,5.89,7.87,1.74.22-10.26-.88-13.54-2.18-5.9-2.18-5.9Z" style="fill:#c4c4c4"></path><path d="M546,449.37c-2,0-4.34-2.08-5.89-4.14-2.25-3-2.64-8-2.83-10.45,0-.49-.06-.89-.1-1.14-.09-.63-.44-2.47-1-5.19a39.64,39.64,0,0,1-.78-7.75c0-14.06-.15-60.18.23-63.36a11.16,11.16,0,0,1,4.45-7,7.71,7.71,0,0,1,6.2-1.48c5,1.05,10.27,4.67,9.79,11.66-.44,6.25-10,58.18-10.49,61.1l.22,5.53C546,427.6,547,430,548,433s2.31,9.3.88,13.85c-.58,1.84-1.62,2.38-2.39,2.51A3.89,3.89,0,0,1,546,449.37Zm-1.17-99.69a7.16,7.16,0,0,0-4.15,1.44,10.09,10.09,0,0,0-4,6.34c-.37,3.12-.26,49.2-.22,63.24a38.37,38.37,0,0,0,.76,7.55c.38,1.94.87,4.42,1,5.25,0,.27.07.68.11,1.2.18,2.32.55,7.15,2.63,9.93,1.85,2.45,4,3.95,5.39,3.71.72-.12,1.26-.73,1.6-1.82,1.36-4.31,0-10.54-.87-13.23-1.07-3.22-2.16-5.84-2.17-5.87a.47.47,0,0,1,0-.17l-.22-5.68a.45.45,0,0,1,0-.11c.1-.54,10-54.8,10.48-61s-4.36-9.66-9-10.62A6.2,6.2,0,0,0,544.85,349.68Z" style="fill:#263238"></path><path d="M537.91,430.51c1.53,3.93,2.62,7,5.9,7.21s3.71-4.59,3.71-4.59c1.1,3.28,2.19,9.39.88,13.54s-5.24,1.75-7.87-1.74-2.62-9.83-2.84-11.36c-.11-.79-.57-3.13-1-5.22-.1-.48-.18-1-.26-1.46C537,428.11,537.47,429.37,537.91,430.51Z" style="fill:#263238"></path><path d="M546,449.37c-2,0-4.34-2.08-5.89-4.14-2.25-3-2.64-8-2.83-10.45,0-.49-.06-.89-.1-1.14-.09-.63-.44-2.47-1-5.19-.1-.49-.18-1-.26-1.48l-.67-4.18,1.62,3.91c.51,1.23,1,2.49,1.47,3.63l.13.34c1.44,3.69,2.47,6.36,5.33,6.55s3.18-4.09,3.19-4.14l.22-2.36L548,433c.93,2.8,2.31,9.3.88,13.85-.58,1.84-1.62,2.38-2.39,2.51A3.89,3.89,0,0,1,546,449.37Zm-8.12-17.51c.14.71.24,1.31.29,1.64s.07.68.11,1.2c.18,2.32.55,7.15,2.63,9.93,1.85,2.45,4,3.95,5.39,3.71.72-.12,1.26-.73,1.6-1.82,1.11-3.5.43-8.27-.34-11.38-.57,1.61-1.76,3.21-3.8,3.08C540.53,438,539.27,435.34,537.9,431.86Z" style="fill:#263238"></path><ellipse cx="531.09" cy="245.9" rx="21.27" ry="20.24" style="fill:#263238"></ellipse><path d="M531.09,266.64c-12,0-21.76-9.3-21.76-20.74s9.76-20.74,21.76-20.74,21.77,9.3,21.77,20.74S543.09,266.64,531.09,266.64Zm0-40.48c-11.45,0-20.76,8.86-20.76,19.74s9.31,19.74,20.76,19.74,20.77-8.85,20.77-19.74S542.54,226.16,531.09,226.16Z" style="fill:#263238"></path><path d="M519.59,251.12s-2.06-2.05-3.39.11,3.08,6.79,3.49,6S519.59,251.12,519.59,251.12Z" style="fill:#c4c4c4"></path><path d="M519.52,257.79c-.94,0-2.54-1.85-3.28-3.14-.87-1.51-1-2.78-.47-3.69a2.33,2.33,0,0,1,1.71-1.21,3.43,3.43,0,0,1,2.46,1,.46.46,0,0,1,.15.31c.12,1.26.49,5.45,0,6.34a.69.69,0,0,1-.59.37Zm-1.8-7.05h-.13a1.36,1.36,0,0,0-1,.74,2.31,2.31,0,0,0,.16,2,8.56,8.56,0,0,0,2.53,3.18,34.58,34.58,0,0,0-.2-5.31A2.43,2.43,0,0,0,517.72,250.74Z" style="fill:#263238"></path><path d="M542,251.12s2.06-2.05,3.39.11-3.08,6.79-3.49,6S542,251.12,542,251.12Z" style="fill:#c4c4c4"></path><path d="M542.09,257.79h0a.69.69,0,0,1-.6-.37c-.44-.89-.07-5.08,0-6.34a.46.46,0,0,1,.15-.31,3.45,3.45,0,0,1,2.46-1,2.33,2.33,0,0,1,1.71,1.21c.56.91.4,2.18-.47,3.69C544.62,255.94,543,257.79,542.09,257.79Zm.28-.82h0Zm.13-5.6a34.55,34.55,0,0,0-.2,5.31,8.56,8.56,0,0,0,2.53-3.18,2.31,2.31,0,0,0,.16-2,1.36,1.36,0,0,0-1-.74A2.27,2.27,0,0,0,542.5,251.37Z" style="fill:#263238"></path><path d="M542.71,246.93a11.62,11.62,0,1,0-23.23,0c0,.28,0,.57,0,.85h0s-.86,8.2.34,11.1,7.8,9.87,9.34,10.55a4.53,4.53,0,0,0,5-.64c.63-.66,7.51-6.49,7.85-10.59.29-3.44.46-7.83.5-9.16A12.26,12.26,0,0,0,542.71,246.93Z" style="fill:#c4c4c4"></path><path d="M531.33,270.39a6,6,0,0,1-2.38-.5c-1.69-.76-8.34-7.77-9.59-10.82s-.42-11-.38-11.34a.3.3,0,0,1,0-.1c0-.23,0-.47,0-.7a12.12,12.12,0,1,1,24.23,0,12.56,12.56,0,0,1-.2,2.19c0,1.21-.2,5.64-.49,9.12-.31,3.79-5.74,8.8-7.52,10.45-.23.22-.4.37-.47.45A4.37,4.37,0,0,1,531.33,270.39ZM520,248c-.12,1.2-.72,8.16.32,10.69,1.2,2.91,7.73,9.68,9.08,10.28a4,4,0,0,0,4.45-.53l.51-.48c4.59-4.25,7-7.54,7.21-9.8.28-3.46.45-7.87.49-9.14a12,12,0,0,0,.19-2.09,11.12,11.12,0,1,0-22.23,0c0,.27,0,.55,0,.82A.51.51,0,0,1,520,248Z" style="fill:#263238"></path><path d="M531.21,258.21a3.42,3.42,0,0,1-2.75-1.11,2.06,2.06,0,0,1-.29-1.93.5.5,0,1,1,.94.34h0a1.07,1.07,0,0,0,.12.95,2.53,2.53,0,0,0,2,.75,1.71,1.71,0,0,0,1.27-.43,2,2,0,0,0,.39-1.52.5.5,0,0,1,.48-.52.49.49,0,0,1,.52.47,3,3,0,0,1-.67,2.26A2.61,2.61,0,0,1,531.21,258.21Z" style="fill:#263238"></path><path d="M531.52,259.35a22.72,22.72,0,0,0-2.47.41c-1.34.31-3.08.62-3.08.62a7.2,7.2,0,0,0,3.39,2.57,5.22,5.22,0,0,0,4,0,15.75,15.75,0,0,0,3.19-2.78,17.42,17.42,0,0,1-3-.51A7.18,7.18,0,0,0,531.52,259.35Z" style="fill:#9e9e9e"></path><path d="M531.56,263.84a8.1,8.1,0,0,1-2.34-.41,7.7,7.7,0,0,1-3.67-2.77.52.52,0,0,1,0-.47.51.51,0,0,1,.38-.3s1.75-.31,3.06-.61a21.58,21.58,0,0,1,2.53-.43h0a7.86,7.86,0,0,1,2.23.34,16.47,16.47,0,0,0,2.86.49.52.52,0,0,1,.42.32.5.5,0,0,1-.1.51,15.64,15.64,0,0,1-3.37,2.91A5.19,5.19,0,0,1,531.56,263.84Zm-4.67-3.12a6.16,6.16,0,0,0,2.61,1.75,4.78,4.78,0,0,0,3.69,0,10.8,10.8,0,0,0,2.31-1.93,11.92,11.92,0,0,1-2.1-.43,6.49,6.49,0,0,0-1.86-.28,22.86,22.86,0,0,0-2.38.4C528.41,260.42,527.53,260.6,526.89,260.72Z" style="fill:#263238"></path><path d="M531.52,259.35a22.72,22.72,0,0,0-2.47.41c-1.34.31-3.08.62-3.08.62s6.17,2.06,10.59-.21a17.42,17.42,0,0,1-3-.51A7.18,7.18,0,0,0,531.52,259.35Z" style="fill:#9e9e9e"></path><path d="M531.53,261.74a20.18,20.18,0,0,1-5.72-.88.51.51,0,0,1-.34-.52.49.49,0,0,1,.41-.45s1.75-.31,3.06-.61a21.58,21.58,0,0,1,2.53-.43h0a7.86,7.86,0,0,1,2.23.34,16.47,16.47,0,0,0,2.86.49.49.49,0,0,1,.44.4.51.51,0,0,1-.26.54A11.58,11.58,0,0,1,531.53,261.74Zm-3.2-1.31a15.25,15.25,0,0,0,6.17,0,6.8,6.8,0,0,1-1.1-.27,6.49,6.49,0,0,0-1.86-.28,22.86,22.86,0,0,0-2.38.4Z" style="fill:#263238"></path><path d="M526.66,251.25c0,.65-.39,1.18-.88,1.18s-.87-.53-.87-1.18.39-1.18.87-1.18S526.66,250.6,526.66,251.25Z" style="fill:#263238"></path><path d="M536.43,251.25c0,.65-.39,1.18-.87,1.18s-.88-.53-.88-1.18.4-1.18.88-1.18S536.43,250.6,536.43,251.25Z" style="fill:#263238"></path><path d="M525.14,255.94a5.33,5.33,0,1,1,5.34-5.33A5.33,5.33,0,0,1,525.14,255.94Zm0-9.66a4.33,4.33,0,1,0,4.34,4.33A4.33,4.33,0,0,0,525.14,246.28Z" style="fill:#263238"></path><path d="M536.66,255.94a5.33,5.33,0,1,1,5.34-5.33A5.33,5.33,0,0,1,536.66,255.94Zm0-9.66a4.33,4.33,0,1,0,4.34,4.33A4.33,4.33,0,0,0,536.66,246.28Z" style="fill:#263238"></path><path d="M520.31,251.11h-1a.5.5,0,0,1,0-1h1a.5.5,0,0,1,0,1Z" style="fill:#263238"></path><path d="M531.42,251.11h-1a.5.5,0,0,1,0-1h1a.5.5,0,0,1,0,1Z" style="fill:#263238"></path><path d="M542.52,251.11h-1a.5.5,0,0,1,0-1h1a.5.5,0,0,1,0,1Z" style="fill:#263238"></path><path d="M521.54,246.38a.51.51,0,0,1-.37-.84s2.36-2.52,6.15-.62a.5.5,0,1,1-.45.89c-3.09-1.54-4.88.33-5,.41A.52.52,0,0,1,521.54,246.38Z" style="fill:#263238"></path><path d="M539.75,246.59a.52.52,0,0,1-.29-.09,4.92,4.92,0,0,0-5.31-.2.5.5,0,0,1-.69-.15.51.51,0,0,1,.15-.69,6,6,0,0,1,6.42.21.5.5,0,0,1-.28.92Z" style="fill:#263238"></path><path d="M566.16,320.35c-2.08.48-8,3.52-8,3.52l-5.76-1.44-3.72,2.38a20.49,20.49,0,0,0,5.32,2.25c2.4.48,5.6,1,6.08,1.12s12.32,0,12.32,0a2.82,2.82,0,0,0,.44-2.67,36.84,36.84,0,0,0-1.72-4.68" style="fill:#c4c4c4"></path><path d="M563.88,328.76a38.65,38.65,0,0,1-4-.1c-.21-.07-1.32-.26-2.39-.45s-2.47-.42-3.62-.66a20.9,20.9,0,0,1-5.49-2.31.49.49,0,0,1-.24-.42.48.48,0,0,1,.23-.43l3.72-2.39a.54.54,0,0,1,.39-.06l5.58,1.39c1-.5,6-3,7.95-3.47a.51.51,0,0,1,.6.37.5.5,0,0,1-.38.6c-2,.46-7.82,3.45-7.88,3.48a.47.47,0,0,1-.35,0L552.49,323l-2.84,1.83a17.53,17.53,0,0,0,4.45,1.78c1.15.23,2.48.46,3.6.66,1.48.25,2.27.39,2.54.48.52.09,7.48,0,11.91,0a2.64,2.64,0,0,0,.2-2.06,36.33,36.33,0,0,0-1.69-4.6.5.5,0,0,1,.26-.66.51.51,0,0,1,.66.25,36.59,36.59,0,0,1,1.74,4.77,3.32,3.32,0,0,1-.57,3.15.5.5,0,0,1-.35.14C569.94,328.72,566.52,328.76,563.88,328.76Z" style="fill:#263238"></path><path d="M498.38,319.52c2.13.11,10.2.67,10.2.67l3.71-1.07,4.09,1.69a20.52,20.52,0,0,1-4.84,3.16c-2.28.9-5.34,1.94-5.78,2.18s-12.12,2.2-12.12,2.2a3.55,3.55,0,0,1-1.07-2.84c.11-1.85,2.1-8.26,2.1-8.26" style="fill:#c4c4c4"></path><path d="M493.64,328.85a.47.47,0,0,1-.32-.12,4,4,0,0,1-1.25-3.25c.11-1.89,2-8.11,2.12-8.38a.51.51,0,0,1,.63-.33.51.51,0,0,1,.33.63c0,.06-2,6.37-2.08,8.14a3.08,3.08,0,0,0,.74,2.27c4.37-.73,11.21-1.91,11.74-2.11.22-.12,1-.4,2.39-.91,1.07-.39,2.33-.86,3.42-1.28a17.88,17.88,0,0,0,4.06-2.56l-3.16-1.3-3.55,1-.17,0c-.08,0-8.08-.57-10.18-.67a.5.5,0,0,1-.48-.52.48.48,0,0,1,.53-.47c2,.09,9.23.59,10.11.65l3.63-1a.53.53,0,0,1,.33,0l4.09,1.68a.51.51,0,0,1,.3.38.49.49,0,0,1-.16.46,20.67,20.67,0,0,1-5,3.26c-1.09.43-2.36.89-3.44,1.29s-2.08.76-2.28.86c-.45.25-7.89,1.52-12.28,2.25Z" style="fill:#263238"></path><path d="M544.52,321.45s-2.88-1.12-3.36-1-2.4,2.72-3,3.52-.16,1.92.8,1.76,3-2.15,3-2.15,6.72,1.67,6.72,1.19S544.52,321.45,544.52,321.45Z" style="fill:#c4c4c4"></path><path d="M538.74,326.29a1.36,1.36,0,0,1-1.2-.69,1.69,1.69,0,0,1,.19-1.9l.44-.56c1.78-2.28,2.41-3,2.83-3.12s1.68.18,3.7,1l.1.05c4.38,3,4.38,3.51,4.38,3.77a.63.63,0,0,1-.22.44c-.19.15-.6.47-6.86-1.08-.61.57-2.17,1.94-3.1,2.09A1.15,1.15,0,0,1,538.74,326.29ZM541.3,321h0a31,31,0,0,0-2.31,2.78l-.45.57a.69.69,0,0,0-.11.77.4.4,0,0,0,.44.18,9.59,9.59,0,0,0,2.77-2,.51.51,0,0,1,.47-.13c2,.5,4.19,1,5.44,1.18-.77-.64-2.06-1.6-3.24-2.41A15.64,15.64,0,0,0,541.3,321Zm6.91,4Z" style="fill:#263238"></path><path d="M548.62,318.51a9.55,9.55,0,0,0-3.52-.71c-1.29.18-3.14,4.58-3.14,5.82a1.23,1.23,0,0,0,2.22.7,20.81,20.81,0,0,0,1.85-4.05" style="fill:#c4c4c4"></path><path d="M543.14,325.31a1.76,1.76,0,0,1-.6-.1,1.64,1.64,0,0,1-1.08-1.59c0-1.23,1.82-6.07,3.58-6.31a9.93,9.93,0,0,1,3.76.73.5.5,0,0,1,.28.65.5.5,0,0,1-.65.28,8.69,8.69,0,0,0-3.26-.67c-.83.11-2.71,4.05-2.71,5.32a.64.64,0,0,0,.42.65.83.83,0,0,0,.91-.27,19.33,19.33,0,0,0,1.76-3.89.5.5,0,0,1,1,.33,20,20,0,0,1-1.94,4.2A1.83,1.83,0,0,1,543.14,325.31Z" style="fill:#263238"></path><path d="M549.47,318.72s-2.14-1.93-3,1.28-1.93,6.2-.86,6.41,2.57-1.06,3-3S550.33,320.86,549.47,318.72Z" style="fill:#c4c4c4"></path><path d="M545.87,326.94a2,2,0,0,1-.34,0,1,1,0,0,1-.65-.45c-.47-.78-.07-2.34.68-5l.44-1.58c.32-1.2.86-1.93,1.62-2.15a2.58,2.58,0,0,1,2.19.63.59.59,0,0,1,.13.18,3.75,3.75,0,0,1-.26,3.48,6.89,6.89,0,0,0-.58,1.52C548.68,325.45,547.23,326.94,545.87,326.94Zm2.25-8.29a.83.83,0,0,0-.22,0c-.49.15-.78.87-.94,1.45s-.29,1.07-.44,1.59c-.43,1.53-1.08,3.85-.78,4.22.69.12,2-.85,2.39-2.63a7.76,7.76,0,0,1,.65-1.73,2.74,2.74,0,0,0,.27-2.56A1.71,1.71,0,0,0,548.12,318.65Z" style="fill:#263238"></path><path d="M552.35,319.36s-2.14-1.93-3,1.28-1.93,6.2-.86,6.41,2.57-1.06,3-3S553.21,321.5,552.35,319.36Z" style="fill:#c4c4c4"></path><path d="M548.75,327.58a1.45,1.45,0,0,1-.35,0,1,1,0,0,1-.64-.45c-.47-.77-.07-2.32.68-5,.14-.51.29-1,.43-1.58.33-1.2.87-1.93,1.63-2.15a2.58,2.58,0,0,1,2.19.63.59.59,0,0,1,.13.18,3.75,3.75,0,0,1-.26,3.48,6.89,6.89,0,0,0-.58,1.52C551.56,326.09,550.11,327.58,548.75,327.58Zm2.25-8.29a.53.53,0,0,0-.22,0c-.5.15-.78.87-.94,1.45s-.29,1.08-.44,1.6c-.43,1.53-1.08,3.84-.78,4.21.67.12,2-.85,2.39-2.63a7.76,7.76,0,0,1,.65-1.73,2.74,2.74,0,0,0,.27-2.56A1.74,1.74,0,0,0,551,319.29Z" style="fill:#263238"></path><path d="M554.34,320.33s-1.62-1.43-2.27,1-1.47,4.62-.65,4.78,2-.79,2.27-2.23S555,321.93,554.34,320.33Z" style="fill:#c4c4c4"></path><path d="M551.6,326.59a1.33,1.33,0,0,1-.28,0,.82.82,0,0,1-.57-.39c-.39-.63-.09-1.75.5-3.84.11-.38.23-.77.33-1.17a2.19,2.19,0,0,1,1.31-1.7,2,2,0,0,1,1.78.5.46.46,0,0,1,.13.18,2.84,2.84,0,0,1-.19,2.71,4.59,4.59,0,0,0-.43,1.1C553.84,325.44,552.69,326.59,551.6,326.59Zm0-1h0c.51,0,1.34-.72,1.6-1.86a5.78,5.78,0,0,1,.51-1.32,1.9,1.9,0,0,0,.21-1.77,1,1,0,0,0-.74-.22c-.25.08-.48.43-.63,1-.11.4-.22.8-.34,1.19A11.44,11.44,0,0,0,551.58,325.59Z" style="fill:#263238"></path><path d="M515.68,321.45s2.88-1.12,3.36-1,2.4,2.72,3,3.52.16,1.92-.8,1.76-3-2.15-3-2.15-6.72,1.67-6.72,1.19S515.68,321.45,515.68,321.45Z" style="fill:#c4c4c4"></path><path d="M521.46,326.29a1.15,1.15,0,0,1-.26,0c-.93-.15-2.48-1.52-3.1-2.09-6.26,1.55-6.66,1.23-6.86,1.08a.63.63,0,0,1-.22-.44c0-.26,0-.74,4.38-3.77l.1-.05c2-.79,3.26-1.11,3.7-1s1,.84,2.83,3.11l.44.57a1.69,1.69,0,0,1,.19,1.9A1.36,1.36,0,0,1,521.46,326.29Zm-3.22-3.17a.5.5,0,0,1,.35.14,9.73,9.73,0,0,0,2.77,2,.4.4,0,0,0,.44-.18.67.67,0,0,0-.11-.77l-.45-.58a23.77,23.77,0,0,0-2.39-2.79h0a19.49,19.49,0,0,0-2.93.94c-1.18.81-2.46,1.77-3.24,2.41,1.25-.2,3.45-.68,5.44-1.18Z" style="fill:#263238"></path><path d="M511.59,318.51a9.54,9.54,0,0,1,3.51-.71c1.29.18,3.14,4.58,3.14,5.82a1.23,1.23,0,0,1-2.22.7,20.62,20.62,0,0,1-1.84-4.05" style="fill:#c4c4c4"></path><path d="M517.06,325.31a1.83,1.83,0,0,1-1.42-.67,20.53,20.53,0,0,1-1.94-4.2.5.5,0,0,1,.95-.33,19.33,19.33,0,0,0,1.76,3.89.83.83,0,0,0,.91.27.64.64,0,0,0,.42-.65c0-1.27-1.88-5.21-2.71-5.32a8.73,8.73,0,0,0-3.26.67.5.5,0,0,1-.65-.28.51.51,0,0,1,.28-.65,10,10,0,0,1,3.77-.73c1.71.23,3.57,5.11,3.57,6.31a1.64,1.64,0,0,1-1.08,1.59A1.76,1.76,0,0,1,517.06,325.31Z" style="fill:#263238"></path><path d="M510.73,318.72s2.14-1.93,3,1.28,1.93,6.2.86,6.41-2.57-1.06-3-3S509.87,320.86,510.73,318.72Z" style="fill:#c4c4c4"></path><path d="M514.33,326.94c-1.36,0-2.81-1.49-3.23-3.41a6.89,6.89,0,0,0-.58-1.52,3.72,3.72,0,0,1-.25-3.48.38.38,0,0,1,.13-.18,2.56,2.56,0,0,1,2.18-.63c.76.22,1.31.95,1.63,2.15.14.54.29,1.07.43,1.59.75,2.67,1.16,4.22.68,5a1,1,0,0,1-.64.45ZM511.15,319a2.74,2.74,0,0,0,.27,2.56,7.3,7.3,0,0,1,.65,1.73c.4,1.78,1.72,2.75,2.41,2.61.28-.35-.37-2.66-.8-4.19-.14-.52-.3-1.06-.44-1.6s-.45-1.31-1-1.46A1.48,1.48,0,0,0,511.15,319Z" style="fill:#263238"></path><path d="M507.85,319.36s2.14-1.93,3,1.28,1.93,6.2.86,6.41-2.57-1.06-3-3S507,321.5,507.85,319.36Z" style="fill:#c4c4c4"></path><path d="M511.45,327.58c-1.35,0-2.81-1.49-3.23-3.41a6.89,6.89,0,0,0-.58-1.52,3.72,3.72,0,0,1-.25-3.48.46.46,0,0,1,.13-.18,2.56,2.56,0,0,1,2.18-.63c.76.22,1.31.95,1.63,2.15.14.54.29,1.07.43,1.58.75,2.68,1.16,4.23.68,5a1,1,0,0,1-.64.45A1.39,1.39,0,0,1,511.45,327.58Zm-3.18-7.92a2.74,2.74,0,0,0,.27,2.56,7.3,7.3,0,0,1,.65,1.73c.4,1.78,1.71,2.75,2.41,2.61.28-.35-.37-2.66-.8-4.2-.14-.52-.3-1.05-.44-1.59s-.44-1.3-.94-1.45A1.49,1.49,0,0,0,508.27,319.66Z" style="fill:#263238"></path><path d="M505.86,320.33s1.63-1.43,2.28,1,1.46,4.62.64,4.78-1.94-.79-2.27-2.23S505.21,321.93,505.86,320.33Z" style="fill:#c4c4c4"></path><path d="M508.6,326.59c-1.08,0-2.24-1.15-2.58-2.64a4.58,4.58,0,0,0-.42-1.1,2.87,2.87,0,0,1-.2-2.71.46.46,0,0,1,.13-.18,2.05,2.05,0,0,1,1.78-.5,2.19,2.19,0,0,1,1.31,1.7q.17.6.33,1.17c.59,2.09.89,3.21.5,3.84a.82.82,0,0,1-.57.39A1.33,1.33,0,0,1,508.6,326.59Zm-2.32-5.95a1.9,1.9,0,0,0,.21,1.77,5.35,5.35,0,0,1,.51,1.32c.26,1.16,1.12,1.86,1.62,1.86a11.44,11.44,0,0,0-.63-3c-.11-.39-.23-.79-.34-1.19-.15-.57-.37-.92-.63-1A1,1,0,0,0,506.28,320.64Z" style="fill:#263238"></path></g><g id="freepik--table-2--inject-114"><rect x="586.72" y="299.09" width="2.38" height="24.26" transform="translate(-31.47 68.59) rotate(-6.5)" style="fill:#fff"></rect><path d="M588.1,323.91a.47.47,0,0,1-.31-.11.53.53,0,0,1-.19-.34l-2.75-24.1a.51.51,0,0,1,.44-.56l2.37-.27a.56.56,0,0,1,.37.11.48.48,0,0,1,.18.33L591,323.08a.5.5,0,0,1-.44.55l-2.37.27Zm-2.2-24.17,2.64,23.11,1.37-.16-2.63-23.11Z" style="fill:#263238"></path><rect x="586.72" y="299.09" width="2.38" height="24.26" transform="translate(-31.47 68.59) rotate(-6.5)" style="fill:#fff"></rect><path d="M588.1,323.91a.47.47,0,0,1-.31-.11.53.53,0,0,1-.19-.34l-2.75-24.1a.51.51,0,0,1,.44-.56l2.37-.27a.56.56,0,0,1,.37.11.48.48,0,0,1,.18.33L591,323.08a.5.5,0,0,1-.44.55l-2.37.27Zm-2.2-24.17,2.64,23.11,1.37-.16-2.63-23.11Z" style="fill:#263238"></path><rect x="585.51" y="299.15" width="2.38" height="3" transform="translate(-30.27 68.37) rotate(-6.5)" style="fill:#92E3A9"></rect><path d="M585.69,302.78a.51.51,0,0,1-.5-.44l-.34-3a.51.51,0,0,1,.44-.56l2.37-.27a.56.56,0,0,1,.37.11.48.48,0,0,1,.18.33l.34,3a.47.47,0,0,1-.1.36.49.49,0,0,1-.34.19l-2.36.27Zm.21-3,.23,2,1.37-.16-.22-2Z" style="fill:#263238"></path><rect x="590.68" y="301.42" width="2.15" height="21.92" transform="translate(28.06 -48.18) rotate(4.78)" style="fill:#fff"></rect><path d="M591.92,323.89h0l-2.15-.17a.57.57,0,0,1-.34-.18.52.52,0,0,1-.11-.36l1.82-21.84a.48.48,0,0,1,.18-.34.47.47,0,0,1,.36-.12l2.15.18a.49.49,0,0,1,.45.54l-1.82,21.84A.5.5,0,0,1,591.92,323.89Zm-1.6-1.14,1.14.1L593.2,302l-1.14-.09Z" style="fill:#263238"></path><rect x="590.68" y="301.42" width="2.15" height="21.92" transform="translate(28.06 -48.18) rotate(4.78)" style="fill:#fff"></rect><path d="M591.92,323.89h0l-2.15-.17a.57.57,0,0,1-.34-.18.52.52,0,0,1-.11-.36l1.82-21.84a.48.48,0,0,1,.18-.34.47.47,0,0,1,.36-.12l2.15.18a.49.49,0,0,1,.45.54l-1.82,21.84A.5.5,0,0,1,591.92,323.89Zm-1.6-1.14,1.14.1L593.2,302l-1.14-.09Z" style="fill:#263238"></path><rect x="591.2" y="301.73" width="2.71" height="2.15" transform="translate(241.47 868.1) rotate(-85.22)" style="fill:#92E3A9"></rect><path d="M593.52,304.75h0l-2.15-.18a.52.52,0,0,1-.34-.18.47.47,0,0,1-.11-.36l.22-2.7a.48.48,0,0,1,.18-.34.47.47,0,0,1,.36-.12l2.15.18a.49.49,0,0,1,.45.54l-.22,2.7A.5.5,0,0,1,593.52,304.75Zm-1.61-1.14,1.15.1.14-1.71-1.14-.09Z" style="fill:#263238"></path><rect x="594.36" y="298.93" width="2.15" height="21.92" transform="translate(27.85 -48.47) rotate(4.77)" style="fill:#fff"></rect><path d="M595.59,321.39h0l-2.14-.18a.5.5,0,0,1-.46-.54l1.82-21.84a.51.51,0,0,1,.54-.45l2.15.18a.51.51,0,0,1,.34.17.48.48,0,0,1,.11.37l-1.82,21.84a.51.51,0,0,1-.17.34A.57.57,0,0,1,595.59,321.39Zm-1.6-1.13,1.14.09,1.75-20.84-1.15-.09Z" style="fill:#263238"></path><rect x="594.36" y="298.93" width="2.15" height="21.92" transform="translate(27.85 -48.47) rotate(4.77)" style="fill:#fff"></rect><path d="M595.59,321.39h0l-2.14-.18a.5.5,0,0,1-.46-.54l1.82-21.84a.51.51,0,0,1,.54-.45l2.15.18a.51.51,0,0,1,.34.17.48.48,0,0,1,.11.37l-1.82,21.84a.51.51,0,0,1-.17.34A.57.57,0,0,1,595.59,321.39Zm-1.6-1.13,1.14.09,1.75-20.84-1.15-.09Z" style="fill:#263238"></path><rect x="594.88" y="299.24" width="2.71" height="2.15" transform="translate(247.32 869.48) rotate(-85.22)" style="fill:#92E3A9"></rect><path d="M597.19,302.26h0l-2.15-.17a.5.5,0,0,1-.45-.54l.22-2.71a.51.51,0,0,1,.54-.45l2.15.18a.51.51,0,0,1,.34.17.48.48,0,0,1,.11.37l-.22,2.7a.52.52,0,0,1-.18.34A.53.53,0,0,1,597.19,302.26Zm-1.6-1.14,1.14.1.15-1.71-1.15-.09Z" style="fill:#263238"></path><rect x="584.51" y="308.91" width="13" height="15.38" style="fill:#263238"></rect><path d="M597.51,324.79h-13a.51.51,0,0,1-.5-.5V308.91a.5.5,0,0,1,.5-.5h13a.5.5,0,0,1,.5.5v15.38A.5.5,0,0,1,597.51,324.79Zm-12.5-1h12V309.41H585Z" style="fill:#263238"></path><path d="M459.2,322.08h-1.27a1,1,0,0,1,0-2h1.27a1.9,1.9,0,0,0,1.9-1.89v-4.35a1.9,1.9,0,0,0-1.9-1.89h-1.63a1,1,0,0,1,0-2h1.63a3.9,3.9,0,0,1,3.9,3.89v4.35A3.9,3.9,0,0,1,459.2,322.08Z" style="fill:#fff"></path><path d="M459.2,322.58h-1.27a1.5,1.5,0,0,1,0-3h1.27a1.4,1.4,0,0,0,1.4-1.39v-4.35a1.4,1.4,0,0,0-1.4-1.39h-1.63a1.5,1.5,0,0,1,0-3h1.63a4.4,4.4,0,0,1,4.4,4.39v4.35A4.4,4.4,0,0,1,459.2,322.58Zm-1.27-2a.51.51,0,0,0-.5.5.5.5,0,0,0,.5.5h1.27a3.4,3.4,0,0,0,3.4-3.39v-4.35a3.4,3.4,0,0,0-3.4-3.39h-1.63a.5.5,0,0,0-.5.5.51.51,0,0,0,.5.5h1.63a2.4,2.4,0,0,1,2.4,2.39v4.35a2.4,2.4,0,0,1-2.4,2.39Z" style="fill:#263238"></path><rect x="447.62" y="306.61" width="12.13" height="17.92" style="fill:#fff"></rect><path d="M459.74,325H447.62a.5.5,0,0,1-.5-.5V306.61a.5.5,0,0,1,.5-.5h12.12a.5.5,0,0,1,.5.5v17.91A.5.5,0,0,1,459.74,325Zm-11.62-1h11.12V307.11H448.12Z" style="fill:#263238"></path><rect x="504.3" y="322.34" width="53.54" height="2.37" style="fill:#fff"></rect><path d="M557.84,325.21H504.3a.5.5,0,0,1-.5-.5v-2.37a.5.5,0,0,1,.5-.5h53.54a.5.5,0,0,1,.5.5v2.37A.5.5,0,0,1,557.84,325.21Zm-53-1h52.54v-1.37H504.8Z" style="fill:#263238"></path><rect x="456.32" y="268.27" width="57.98" height="44.6" style="fill:#fff"></rect><path d="M514.3,313.37h-58a.51.51,0,0,1-.5-.5v-44.6a.5.5,0,0,1,.5-.5h58a.5.5,0,0,1,.5.5v44.6A.5.5,0,0,1,514.3,313.37Zm-57.48-1h57v-43.6h-57Z" style="fill:#263238"></path><rect x="454.86" y="268.27" width="57.98" height="44.6" style="fill:#fff"></rect><path d="M512.84,313.37h-58a.5.5,0,0,1-.5-.5v-44.6a.5.5,0,0,1,.5-.5h58a.5.5,0,0,1,.5.5v44.6A.51.51,0,0,1,512.84,313.37Zm-57.48-1h57v-43.6h-57Z" style="fill:#263238"></path><polygon points="496.61 322.1 482.22 322.1 478.19 324.38 496.61 324.38 496.61 322.1" style="fill:#c7c7c7"></polygon><path d="M496.61,324.88H478.19a.51.51,0,0,1-.48-.38.5.5,0,0,1,.24-.56l4-2.28a.54.54,0,0,1,.25-.06h14.39a.5.5,0,0,1,.5.5v2.28A.51.51,0,0,1,496.61,324.88Zm-16.52-1h16V322.6H482.35Z" style="fill:#263238"></path><polygon points="488.3 324.38 474.27 324.38 478.3 284.19 492.33 284.19 488.3 324.38" style="fill:#c7c7c7"></polygon><path d="M488.3,324.88h-14a.5.5,0,0,1-.37-.17.47.47,0,0,1-.12-.38l4-40.2a.51.51,0,0,1,.5-.45h14a.5.5,0,0,1,.37.17.47.47,0,0,1,.12.38l-4,40.2A.51.51,0,0,1,488.3,324.88Zm-13.47-1h13l3.92-39.2h-13Z" style="fill:#263238"></path><path d="M594.67,333.88l9.42,112a1.2,1.2,0,0,0,2.38-.27l-6.41-111.75Z" style="fill:#263238"></path><path d="M605.29,447.45a1.74,1.74,0,0,1-1-.29,1.77,1.77,0,0,1-.74-1.19l-9.41-112a.52.52,0,0,1,.13-.39.5.5,0,0,1,.36-.16h5.39a.5.5,0,0,1,.5.48L607,445.6a1.7,1.7,0,0,1-1.3,1.81A1.58,1.58,0,0,1,605.29,447.45ZM595.22,334.38l9.37,111.48a.68.68,0,0,0,.31.47.66.66,0,0,0,.55.1.69.69,0,0,0,.52-.75l-6.38-111.3Z" style="fill:#263238"></path><path d="M588.53,333.88,598,446.27a1.22,1.22,0,0,0,1.47,1,1.21,1.21,0,0,0,.91-1.3l-6.43-112.12Z" style="fill:#263238"></path><path d="M599.18,447.83a1.75,1.75,0,0,1-1-.3,1.73,1.73,0,0,1-.74-1.19L588,333.93a.56.56,0,0,1,.13-.39.52.52,0,0,1,.37-.16h5.4a.51.51,0,0,1,.5.48L600.86,446a1.7,1.7,0,0,1-1.3,1.81A1.58,1.58,0,0,1,599.18,447.83Zm-10.1-113.45,9.39,111.85a.75.75,0,0,0,.32.47.66.66,0,0,0,.54.11.7.7,0,0,0,.53-.76l-6.4-111.67Z" style="fill:#263238"></path><path d="M428.82,333.88l-5,111a1.23,1.23,0,0,0,.92,1.3h0a1.18,1.18,0,0,0,1.46-1l8-111.34Z" style="fill:#263238"></path><path d="M425.06,446.76a1.92,1.92,0,0,1-.41-.05,1.75,1.75,0,0,1-1.3-1.84l5-111a.5.5,0,0,1,.5-.48h5.37a.5.5,0,0,1,.5.54l-8,111.33a1.68,1.68,0,0,1-1.67,1.51Zm4.23-112.38-4.94,110.56a.74.74,0,0,0,.54.8.71.71,0,0,0,.55-.1.69.69,0,0,0,.3-.49l7.91-110.77Z" style="fill:#263238"></path><path d="M421.33,333.88l-4.95,110.66a1.22,1.22,0,0,0,.92,1.31,1.19,1.19,0,0,0,1.46-1l7.93-111Z" style="fill:#263238"></path><path d="M417.59,446.38a1.44,1.44,0,0,1-.41-.05,1.74,1.74,0,0,1-1.3-1.83l4.95-110.64a.5.5,0,0,1,.5-.48h5.36a.5.5,0,0,1,.5.54l-7.93,111a1.71,1.71,0,0,1-.73,1.21A1.68,1.68,0,0,1,417.59,446.38Zm4.22-112-4.93,110.19a.72.72,0,0,0,.54.79.66.66,0,0,0,.55-.09.75.75,0,0,0,.3-.49l7.89-110.4Z" style="fill:#263238"></path><rect x="417.82" y="327.68" width="190.22" height="9.62" style="fill:#fff"></rect><path d="M608,337.8H417.82a.5.5,0,0,1-.5-.5v-9.62a.5.5,0,0,1,.5-.5H608a.5.5,0,0,1,.5.5v9.62A.51.51,0,0,1,608,337.8Zm-189.72-1H607.54v-8.62H418.32Z" style="fill:#263238"></path><rect x="417.82" y="327.68" width="190.22" height="3.3" style="fill:#263238"></rect><path d="M608,331.48H417.82a.5.5,0,0,1-.5-.5v-3.3a.5.5,0,0,1,.5-.5H608a.5.5,0,0,1,.5.5V331A.51.51,0,0,1,608,331.48Zm-189.72-1H607.54v-2.3H418.32Z" style="fill:#263238"></path><rect x="414.83" y="324.48" width="196.19" height="3.67" style="fill:#fff"></rect><path d="M611,328.65H414.83a.5.5,0,0,1-.5-.5v-3.67a.5.5,0,0,1,.5-.5H611a.5.5,0,0,1,.5.5v3.67A.5.5,0,0,1,611,328.65Zm-195.69-1H610.52V325H415.33Z" style="fill:#263238"></path></g><g id="freepik--table-1--inject-114"><polygon points="285.46 324.31 271.99 324.31 268.6 307.19 282.07 307.19 285.46 324.31" style="fill:#c7c7c7"></polygon><path d="M285.46,324.81H272a.5.5,0,0,1-.49-.41l-3.39-17.11a.53.53,0,0,1,.1-.42.53.53,0,0,1,.39-.18h13.47a.5.5,0,0,1,.49.4L286,324.21a.49.49,0,0,1-.1.41A.51.51,0,0,1,285.46,324.81Zm-13.06-1h12.45l-3.19-16.12H269.21Z" style="fill:#263238"></path><rect x="248.04" y="268.27" width="57.98" height="44.6" style="fill:#fff"></rect><path d="M306,313.37H248a.51.51,0,0,1-.5-.5v-44.6a.5.5,0,0,1,.5-.5h58a.5.5,0,0,1,.5.5v44.6A.5.5,0,0,1,306,313.37Zm-57.48-1h57v-43.6h-57Z" style="fill:#263238"></path><rect x="251.53" y="271.77" width="51.01" height="37.59" style="fill:#92E3A9"></rect><path d="M302.53,309.86h-51a.5.5,0,0,1-.5-.5V271.77a.5.5,0,0,1,.5-.5h51a.5.5,0,0,1,.5.5v37.59A.5.5,0,0,1,302.53,309.86Zm-50.5-1h50V272.27H252Z" style="fill:#263238"></path><rect x="251.53" y="271.77" width="51.01" height="6.26" style="fill:#92E3A9"></rect><path d="M302.53,278.54h-51a.5.5,0,0,1-.5-.5v-6.27a.5.5,0,0,1,.5-.5h51a.5.5,0,0,1,.5.5V278A.5.5,0,0,1,302.53,278.54Zm-50.5-1h50v-5.27H252Z" style="fill:#263238"></path><path d="M290.72,309.84a.5.5,0,0,1-.5-.5v-30.7a.5.5,0,0,1,.5-.5.5.5,0,0,1,.5.5v30.7A.5.5,0,0,1,290.72,309.84Z" style="fill:#263238"></path><rect x="214.67" y="322.34" width="46.8" height="2.37" style="fill:#fff"></rect><path d="M261.46,325.21H214.67a.5.5,0,0,1-.5-.5v-2.37a.5.5,0,0,1,.5-.5h46.79a.5.5,0,0,1,.5.5v2.37A.5.5,0,0,1,261.46,325.21Zm-46.29-1H261v-1.37H215.17Z" style="fill:#263238"></path><polygon points="284.77 323.23 264.05 323.23 264.05 324.71 285.44 324.71 284.77 323.23" style="fill:#c7c7c7"></polygon><path d="M285.45,325.21h-21.4a.5.5,0,0,1-.5-.5v-1.48a.51.51,0,0,1,.5-.5h20.72a.51.51,0,0,1,.45.29l.68,1.49a.49.49,0,0,1-.45.7Zm-20.9-1h20.12l-.22-.48h-19.9Z" style="fill:#263238"></path><path d="M291.65,321s4.11,1.35,4.43,3.45H279.16s1.08-4.2,3.18-5.25S290.88,319.69,291.65,321Z" style="fill:#263238"></path><path d="M296.08,325H279.16a.49.49,0,0,1-.39-.19.5.5,0,0,1-.09-.44c0-.18,1.16-4.43,3.43-5.56,2.12-1.06,8.54.18,9.85,1.82.87.31,4.29,1.63,4.61,3.79a.51.51,0,0,1-.11.4A.49.49,0,0,1,296.08,325Zm-16.25-1h15.54c-.73-1.21-3-2.17-3.88-2.47a.49.49,0,0,1-.28-.23c-.6-1.06-6.67-2.59-8.65-1.6C281.24,320.34,280.27,322.62,279.83,324Z" style="fill:#263238"></path><path d="M300.88,333.88l9.42,112a1.2,1.2,0,0,0,2.38-.27l-6.41-111.75Z" style="fill:#263238"></path><path d="M311.5,447.45a1.74,1.74,0,0,1-1-.29,1.77,1.77,0,0,1-.74-1.19l-9.41-112a.5.5,0,0,1,.49-.55h5.39a.5.5,0,0,1,.5.48l6.41,111.74a1.7,1.7,0,0,1-1.3,1.81A1.58,1.58,0,0,1,311.5,447.45ZM301.43,334.38l9.37,111.48a.68.68,0,0,0,.31.47.67.67,0,0,0,.55.1.69.69,0,0,0,.52-.75l-6.38-111.3Z" style="fill:#263238"></path><path d="M364.11,333.88l9.45,112.39a1.22,1.22,0,0,0,1.47,1,1.21,1.21,0,0,0,.91-1.3l-6.43-112.12Z" style="fill:#263238"></path><path d="M374.76,447.83a1.73,1.73,0,0,1-1.7-1.49l-9.45-112.41a.56.56,0,0,1,.13-.39.52.52,0,0,1,.37-.16h5.4a.51.51,0,0,1,.5.48L376.44,446a1.7,1.7,0,0,1-1.3,1.81A1.58,1.58,0,0,1,374.76,447.83Zm-10.1-113.45,9.4,111.85a.7.7,0,0,0,.31.47.68.68,0,0,0,1.07-.65L369,334.38Z" style="fill:#263238"></path><path d="M199.85,333.88l-5,111a1.22,1.22,0,0,0,.92,1.3h0a1.18,1.18,0,0,0,1.46-1l8-111.34Z" style="fill:#263238"></path><path d="M196.1,446.76a1.92,1.92,0,0,1-.41-.05,1.74,1.74,0,0,1-1.3-1.84l5-111a.5.5,0,0,1,.49-.48h5.38a.48.48,0,0,1,.36.16.49.49,0,0,1,.14.38l-8,111.33a1.73,1.73,0,0,1-.73,1.22A1.68,1.68,0,0,1,196.1,446.76Zm4.23-112.38-4.94,110.56a.74.74,0,0,0,.54.8.71.71,0,0,0,.55-.1.73.73,0,0,0,.3-.49l7.91-110.77Z" style="fill:#263238"></path><path d="M141.58,333.88l-5,110.66a1.22,1.22,0,0,0,.92,1.31,1.19,1.19,0,0,0,1.46-1l7.93-111Z" style="fill:#263238"></path><path d="M137.84,446.38a1.44,1.44,0,0,1-.41-.05,1.74,1.74,0,0,1-1.3-1.83l5-110.64a.5.5,0,0,1,.5-.48h5.36a.5.5,0,0,1,.5.54l-7.93,111a1.71,1.71,0,0,1-.73,1.21A1.68,1.68,0,0,1,137.84,446.38Zm4.22-112-4.93,110.19a.72.72,0,0,0,.54.79.67.67,0,0,0,.55-.09.75.75,0,0,0,.3-.49l7.89-110.4Z" style="fill:#263238"></path><rect x="138.06" y="327.68" width="238.35" height="9.62" style="fill:#fff"></rect><path d="M376.41,337.8H138.06a.51.51,0,0,1-.5-.5v-9.62a.5.5,0,0,1,.5-.5H376.41a.5.5,0,0,1,.5.5v9.62A.5.5,0,0,1,376.41,337.8Zm-237.85-1H375.91v-8.62H138.56Z" style="fill:#263238"></path><rect x="138.06" y="327.68" width="238.35" height="3.3" style="fill:#263238"></rect><path d="M376.41,331.48H138.06a.51.51,0,0,1-.5-.5v-3.3a.5.5,0,0,1,.5-.5H376.41a.5.5,0,0,1,.5.5V331A.5.5,0,0,1,376.41,331.48Zm-237.85-1H375.91v-2.3H138.56Z" style="fill:#263238"></path><rect x="292.59" y="327.68" width="83.83" height="9.62" style="fill:#263238"></rect><path d="M376.41,337.8H292.59a.5.5,0,0,1-.5-.5v-9.62a.5.5,0,0,1,.5-.5h83.82a.5.5,0,0,1,.5.5v9.62A.5.5,0,0,1,376.41,337.8Zm-83.32-1h82.82v-8.62H293.09Z" style="fill:#263238"></path><rect x="135.08" y="324.48" width="244.32" height="3.67" style="fill:#fff"></rect><path d="M379.4,328.65H135.08a.5.5,0,0,1-.5-.5v-3.67a.5.5,0,0,1,.5-.5H379.4a.5.5,0,0,1,.5.5v3.67A.51.51,0,0,1,379.4,328.65Zm-243.82-1H378.9V325H135.58Z" style="fill:#263238"></path><rect x="296.08" y="324.48" width="83.32" height="3.67" style="fill:#263238"></rect><path d="M379.4,328.65H296.08a.5.5,0,0,1-.5-.5v-3.67a.5.5,0,0,1,.5-.5H379.4a.5.5,0,0,1,.5.5v3.67A.51.51,0,0,1,379.4,328.65Zm-82.82-1H378.9V325H296.58Z" style="fill:#263238"></path><rect x="323.27" y="306.61" width="12.13" height="17.92" style="fill:#fff"></rect><path d="M335.39,325H323.27a.5.5,0,0,1-.5-.5V306.61a.5.5,0,0,1,.5-.5h12.12a.5.5,0,0,1,.5.5v17.91A.5.5,0,0,1,335.39,325Zm-11.62-1h11.12V307.11H323.77Z" style="fill:#263238"></path><path d="M334.85,322.08h-1.27a1,1,0,0,1,0-2h1.27a1.9,1.9,0,0,0,1.9-1.89v-4.35a1.9,1.9,0,0,0-1.9-1.89h-1.63a1,1,0,0,1,0-2h1.63a3.9,3.9,0,0,1,3.9,3.89v4.35A3.9,3.9,0,0,1,334.85,322.08Z" style="fill:#fff"></path><path d="M334.85,322.58h-1.27a1.5,1.5,0,0,1,0-3h1.27a1.4,1.4,0,0,0,1.4-1.39v-4.35a1.4,1.4,0,0,0-1.4-1.39h-1.63a1.5,1.5,0,0,1,0-3h1.63a4.4,4.4,0,0,1,4.4,4.39v4.35A4.4,4.4,0,0,1,334.85,322.58Zm-1.27-2a.51.51,0,0,0-.5.5.5.5,0,0,0,.5.5h1.27a3.4,3.4,0,0,0,3.4-3.39v-4.35a3.4,3.4,0,0,0-3.4-3.39h-1.63a.5.5,0,0,0-.5.5.51.51,0,0,0,.5.5h1.63a2.4,2.4,0,0,1,2.4,2.39v4.35a2.4,2.4,0,0,1-2.4,2.39Z" style="fill:#263238"></path></g><g id="freepik--character-1--inject-114"><path d="M212.14,230.77s2.75,8.51,2.75,10.16a29.23,29.23,0,0,1-.28,3.57l2.43,3.76a1,1,0,0,1-.35,1.47L213,251.92s-.55,8.79-1.1,9.89-9.89.83-9.89.83l-3,5.77-15.66-6.05,4.12-11.26-.82-17S196.2,225.54,212.14,230.77Z" style="fill:#fff"></path><path d="M199,268.91a.39.39,0,0,1-.18,0l-15.66-6a.5.5,0,0,1-.29-.64L186.91,251l-.82-16.93a.49.49,0,0,1,.16-.4c.1-.09,10-8.65,26-3.4a.49.49,0,0,1,.32.32c.29.88,2.78,8.64,2.78,10.32a29.09,29.09,0,0,1-.26,3.46l2.33,3.6a1.54,1.54,0,0,1-.51,2.17l-3.51,2.06c-.12,1.95-.59,8.74-1.13,9.82s-5.69,1.22-10,1.11l-2.88,5.49A.5.5,0,0,1,199,268.91Zm-15-6.84,14.78,5.71,2.82-5.38a.5.5,0,0,1,.46-.26c4.11.12,8.9-.07,9.45-.59.34-.7.81-6.3,1-9.66a.5.5,0,0,1,.25-.4l3.73-2.2a.49.49,0,0,0,.25-.34.53.53,0,0,0-.07-.42l-2.43-3.76a.45.45,0,0,1-.07-.34,30.24,30.24,0,0,0,.27-3.5c0-1.24-1.84-7.25-2.65-9.77-14.15-4.53-23.27,2-24.64,3.13l.81,16.78a.64.64,0,0,1,0,.2Z" style="fill:#263238"></path><path d="M205,258.74a.51.51,0,0,1-.37-.17,7.93,7.93,0,0,1-1.82-5.72l-1.77-.44a.51.51,0,0,1-.37-.61.5.5,0,0,1,.61-.36l2.2.55a.5.5,0,0,1,.37.56,7.08,7.08,0,0,0,1.53,5.36.5.5,0,0,1-.38.83Z" style="fill:#263238"></path><path d="M203.68,246.54a.5.5,0,0,1-.12-1L219,241.72a.5.5,0,0,1,.61.37.49.49,0,0,1-.37.6l-15.47,3.83Z" style="fill:#263238"></path><path d="M216.24,247a.5.5,0,0,1-.49-.44.49.49,0,0,1,.43-.56,2.4,2.4,0,0,0,1.82-1,3.58,3.58,0,0,0,.3-2.48l-3.15-.14a.5.5,0,0,1-.48-.52.5.5,0,0,1,.52-.48l3.53.15a.49.49,0,0,1,.45.36,4.81,4.81,0,0,1-.33,3.65,3.32,3.32,0,0,1-2.53,1.43Z" style="fill:#263238"></path><path d="M194,224.45s-6-1.93-9.06,6.32,2.47,18.95,2.47,20.33,4.67,2.47,8.24,2.47a8.86,8.86,0,0,0,5.5-1.65s-1.38-5.49-.28-6.59,3.85,1.37,3.85,1.37a8,8,0,0,0,2.47-.82c.83-.55,4.95-2.75,3.57-5.22s-4.12-4.67-1.92-6.32,8-1.93,8.24-7.15-3-6.32-6.32-5.77-2.19-4.67-8.51-3.84S192.9,222,194,224.45Z" style="fill:#263238"></path><path d="M195.65,254.07c-3,0-8.74-.9-8.74-3a14.05,14.05,0,0,0-.63-2c-1.37-3.87-4.22-11.92-1.81-18.5,2.47-6.73,7-7,8.84-6.78a3.73,3.73,0,0,1,.5-2.31c1.27-2.25,4.39-3.9,8.37-4.42s5.28,1.25,6.27,2.54c.74,1,1.18,1.48,2.23,1.31a6.28,6.28,0,0,1,5.24,1.1c1.23,1.1,1.79,2.84,1.66,5.19-.21,4.07-3.45,5.35-6.06,6.38a11,11,0,0,0-2.38,1.14c-1.13.84-.65,1.75.81,3.78a22.06,22.06,0,0,1,1.25,1.89c1.47,2.65-2.08,4.86-3.42,5.69l-.31.19a8.19,8.19,0,0,1-2.67.9.5.5,0,0,1-.42-.12c-1-.9-2.66-1.89-3.15-1.39s-.23,3.61.4,6.12a.48.48,0,0,1-.16.5A9.26,9.26,0,0,1,195.65,254.07Zm-3.21-29.33c-1.85,0-5.07.85-7,6.2-2.29,6.24.48,14.06,1.81,17.82a9.56,9.56,0,0,1,.69,2.34c0,.74,3.75,2,7.74,2a8.81,8.81,0,0,0,4.93-1.36c-.39-1.63-1.18-5.61-.06-6.74s3.62.58,4.34,1.2a6.85,6.85,0,0,0,2-.71l.34-.21c1.76-1.09,4-2.72,3.08-4.35-.34-.61-.78-1.21-1.19-1.8-1.23-1.71-2.63-3.64-.6-5.16a11.22,11.22,0,0,1,2.62-1.27c2.46-1,5.24-2.07,5.42-5.5.11-2-.34-3.51-1.33-4.39a5.32,5.32,0,0,0-4.4-.86c-1.7.28-2.46-.73-3.2-1.7-1-1.27-2-2.59-5.34-2.15-4.32.57-6.77,2.4-7.62,3.92a2.45,2.45,0,0,0-.23,2.25.51.51,0,0,1-.08.54.52.52,0,0,1-.53.14A5.16,5.16,0,0,0,192.44,224.74Z" style="fill:#263238"></path><path d="M194,246h0a.25.25,0,0,1-.19-.3,11.65,11.65,0,0,1,1-2.68.25.25,0,0,1,.33-.11.24.24,0,0,1,.11.34,11.22,11.22,0,0,0-1,2.55A.26.26,0,0,1,194,246Z" style="fill:#fff"></path><path d="M195.92,241.81a.24.24,0,0,1-.14-.05.24.24,0,0,1-.06-.35,11.8,11.8,0,0,1,5.34-4.24c5.85-2.34,7.8-4,7.82-4a.24.24,0,0,1,.35,0,.25.25,0,0,1,0,.35c-.08.07-2,1.73-8,4.11a11.26,11.26,0,0,0-5.12,4.06A.26.26,0,0,1,195.92,241.81Z" style="fill:#fff"></path><path d="M198.52,243.63a.25.25,0,0,1-.07-.49c3-.93,9.91-5.42,10-5.47a.25.25,0,0,1,.34.08.24.24,0,0,1-.07.34c-.28.19-7,4.58-10.1,5.53Z" style="fill:#fff"></path><path d="M215.85,432.81s14.25,9,16.75,9,3.75,2.25,2.5,2.5-9,.5-14.25.75-8.75-.25-11.75-.25-6.5.25-8-.5,1-9.25,1-10.75S214.1,431.81,215.85,432.81Z" style="fill:#263238"></path><path d="M217.89,445.63c-2,0-3.77-.09-5.35-.18-2-.12-3.56-.14-5.27-.12-2.62.05-5.09.09-6.4-.57s-.72-3.89.23-8.41a22.86,22.86,0,0,0,.5-2.79,1,1,0,0,1,.58-.84c2.13-1.24,12.28-1.28,13.92-.34h0c5.68,3.59,14.76,8.92,16.49,8.92,1.92,0,3.37,1.23,3.48,2.33a1,1,0,0,1-.88,1.16c-.95.19-5.14.37-9.57.56l-4.76.2C219.81,445.61,218.82,445.63,217.89,445.63Zm-8.79-1.32c1.08,0,2.25.07,3.49.14a73.36,73.36,0,0,0,8.23.12l4.77-.21c4.2-.18,8.54-.36,9.41-.54.09-.05.1-.19-.06-.44a2.81,2.81,0,0,0-2.34-1.07c-2.57,0-15.49-8.11-17-9.07s-12-.59-13,.4a23.49,23.49,0,0,1-.52,2.91c-.39,1.88-1.44,6.88-.76,7.32,1.09.54,3.55.5,5.93.46Z" style="fill:#263238"></path><path d="M234.23,442.18c-5.53,1.82-14.5.62-19.88.13-4.26-.38-10.9-.47-13.69-.49-.11,1.28,0,2.26.44,2.49,1.5.75,5,.5,8,.5s6.5.5,11.75.25,13-.5,14.25-.75C236,444.13,235.57,442.83,234.23,442.18Z" style="fill:#fff"></path><path d="M217.89,445.63c-2,0-3.77-.09-5.35-.18-2-.12-3.56-.14-5.27-.12-2.62.05-5.09.09-6.4-.57-.64-.32-.86-1.24-.7-3a.49.49,0,0,1,.49-.46h0c2.69,0,9.41.1,13.72.5l2,.19c5.43.54,12.86,1.27,17.65-.31a.48.48,0,0,1,.37,0,2.48,2.48,0,0,1,1.63,2.18,1,1,0,0,1-.88.89c-.95.19-5.14.37-9.57.56l-4.76.2C219.81,445.61,218.82,445.63,217.89,445.63Zm-8.79-1.32c1.08,0,2.25.07,3.49.14a73.36,73.36,0,0,0,8.23.12l4.77-.21c4.2-.18,8.54-.36,9.41-.54.13-.15-.1-.7-.81-1.1-5,1.56-12.41.82-17.86.29l-2-.2c-4-.36-10.24-.46-13.17-.49-.07,1.36.19,1.55.19,1.55,1.09.54,3.55.5,5.93.46Z" style="fill:#263238"></path><path d="M234.07,362.72l-18.21,64.67,2.34,5.86a11.76,11.76,0,0,1-7.1,4.8,54.33,54.33,0,0,1-9.75,1s-1.25-6.25-.5-7,1-3.75,1-3.75l8.3-64.77Z" style="fill:#92E3A9"></path><path d="M201.35,439.55a.49.49,0,0,1-.49-.41c-.49-2.43-1.18-6.63-.37-7.45.43-.42.76-2.27.86-3.44l8.31-64.78a.5.5,0,0,1,.48-.44l23.91-.81a.51.51,0,0,1,.41.2.5.5,0,0,1,.09.44l-18.16,64.51,2.28,5.69a.51.51,0,0,1,0,.45,12.21,12.21,0,0,1-7.43,5A55.23,55.23,0,0,1,201.35,439.55ZM210.6,364l-8.26,64.34c0,.51-.3,3.2-1.14,4-.28.45.05,3.46.56,6.14a53.5,53.5,0,0,0,9.23-1,11.43,11.43,0,0,0,6.65-4.37l-2.24-5.61a.44.44,0,0,1,0-.32l18-64Z" style="fill:#263238"></path><path d="M244.29,433.27s8.75,7.25,12.75,8.5,8.25,2.5,8.25,3.75-9.5,2.5-16.75,1.75-18.25-4-20.75-4-2-6.5-2-7.5S238,426.77,244.29,433.27Z" style="fill:#263238"></path><path d="M253.33,448a46.62,46.62,0,0,1-4.84-.23,124.83,124.83,0,0,1-13.57-2.6,53.58,53.58,0,0,0-7.13-1.4,1.77,1.77,0,0,1-1.31-.57c-1.22-1.26-1.28-4.39-1.2-7,0-.2,0-.36,0-.46,0-1,3.54-3.07,6.08-4.1,3.25-1.3,9.28-2.88,13.26,1.24.48.39,8.79,7.21,12.56,8.39l.67.2c4.92,1.54,7.93,2.55,7.93,4a.86.86,0,0,1-.32.66C264.28,447.25,258.72,448,253.33,448Zm-27-12.14c0,.1,0,.24,0,.4,0,1.27-.17,5.13.92,6.25a.77.77,0,0,0,.59.26,50.68,50.68,0,0,1,7.35,1.43,127,127,0,0,0,13.45,2.58c6.93.71,15.3-.44,16.19-1.32-.23-.82-4.59-2.18-7.22-3l-.67-.21c-4-1.26-12.56-8.29-12.92-8.59l0,0c-1.89-2-4.53-2.71-7.87-2.23C231.29,432.09,226.77,435.14,226.29,435.86Zm0,0Z" style="fill:#263238"></path><path d="M265.29,445.52c0-.45-.55-.9-1.44-1.34a77.07,77.07,0,0,1-21.56-.16A164.43,164.43,0,0,1,226,440.85c.26,1.34.78,2.42,1.79,2.42,2.5,0,13.5,3.25,20.75,4S265.29,446.77,265.29,445.52Z" style="fill:#fff"></path><path d="M253.33,448a46.62,46.62,0,0,1-4.84-.23,124.83,124.83,0,0,1-13.57-2.6,53.58,53.58,0,0,0-7.13-1.4c-1.15,0-1.92-.95-2.28-2.83a.48.48,0,0,1,.15-.45.52.52,0,0,1,.46-.13c3,.74,9,2.14,16.24,3.17a75.92,75.92,0,0,0,21.41.15.44.44,0,0,1,.3.05c.8.4,1.72,1,1.72,1.79a.86.86,0,0,1-.32.66C264.28,447.25,258.72,448,253.33,448Zm-26.65-6.47c.27.83.64,1.24,1.11,1.24a50.68,50.68,0,0,1,7.35,1.43,127,127,0,0,0,13.45,2.58c6.9.71,15.24-.43,16.18-1.31,0-.11-.25-.38-1-.78a76.83,76.83,0,0,1-21.54-.17C235.56,443.57,229.88,442.31,226.68,441.53Z" style="fill:#263238"></path><path d="M201.58,339.37s15.51.52,28.26,2S264,348,264.52,351.23s-21.6,74.83-21.6,76.58,2,3.5,2.5,4.5a5.78,5.78,0,0,1,.5,2.25,85.25,85.25,0,0,1-9.57,4.36A33.08,33.08,0,0,1,226,440.85c-1,0-1.7-4.57-.95-7.82s2-11.5,2.25-12.25,13.28-55.89,13.28-55.89-33.24,4.37-58.76,3.69c-22.38-.58-23.74-3.1-25-8.35s1.25-20.61,1.25-20.61Z" style="fill:#92E3A9"></path><path d="M226,441.35a1,1,0,0,1-.78-.43c-1-1.21-1.29-5.25-.66-8,.42-1.81,1-5.2,1.46-7.93.44-2.56.69-4,.81-4.37.24-.8,8.58-36,13.1-55.14-5,.62-34.92,4.22-58.12,3.6-22.58-.59-24.13-3.1-25.47-8.74-1.26-5.28,1.14-20.17,1.24-20.8a.51.51,0,0,1,.5-.42l43.5-.25h0c.15,0,15.67.54,28.3,2,11.72,1.38,34.52,6.45,35.11,10.26.31,2-6.18,24.12-14.7,52.84-3.51,11.84-6.83,23-6.89,23.83,0,1,.88,2.14,1.59,3a8.09,8.09,0,0,1,.85,1.22,6.26,6.26,0,0,1,.56,2.48.5.5,0,0,1-.27.44,86,86,0,0,1-9.63,4.39A33.66,33.66,0,0,1,226,441.35Zm14.58-77a.48.48,0,0,1,.37.17.49.49,0,0,1,.12.45c-1.34,5.64-13,55.18-13.3,55.93-.09.29-.43,2.29-.76,4.22-.47,2.74-1,6.15-1.47,8-.72,3.11,0,6.9.52,7.22a33.26,33.26,0,0,0,10.12-1.9,84.12,84.12,0,0,0,9.22-4.2,5,5,0,0,0-.43-1.73,7.72,7.72,0,0,0-.75-1c-.8-1-1.8-2.3-1.8-3.67,0-.66,2-7.49,6.93-24.1,6-20.1,15-50.47,14.67-52.41-.41-2.65-20.44-7.79-34.24-9.42-12.45-1.46-27.74-2-28.21-2l-43.06.25c-.39,2.49-2.29,15.38-1.2,20s1.76,7.38,24.52,8c25.19.68,58.35-3.64,58.69-3.69Z" style="fill:#263238"></path><path d="M197.08,358.12a.5.5,0,0,1-.35-.85,17.11,17.11,0,0,0,1.63-2,.49.49,0,0,1,.69-.12.5.5,0,0,1,.12.7,16.62,16.62,0,0,1-1.74,2.12A.52.52,0,0,1,197.08,358.12Z" style="fill:#263238"></path><path d="M200.61,353.12a.5.5,0,0,1-.24-.06.5.5,0,0,1-.19-.68,93.44,93.44,0,0,0,4.93-10.44.5.5,0,0,1,.65-.28.48.48,0,0,1,.28.64,93.27,93.27,0,0,1-5,10.57A.5.5,0,0,1,200.61,353.12Z" style="fill:#263238"></path><path d="M189.58,356.12a.51.51,0,0,1-.47-.32.5.5,0,0,1,.29-.64,26.37,26.37,0,0,0,12.74-10.77.49.49,0,0,1,.67-.21.5.5,0,0,1,.21.68,26.89,26.89,0,0,1-13.26,11.23A.57.57,0,0,1,189.58,356.12Z" style="fill:#263238"></path><path d="M258.07,360.16c.84-.33,1.67-.67,2.45-1" style="fill:#fff"></path><path d="M258.07,360.66a.5.5,0,0,1-.18-1c.87-.33,1.69-.67,2.42-1a.5.5,0,0,1,.41.92c-.75.34-1.58.68-2.47,1A.39.39,0,0,1,258.07,360.66Z" style="fill:#263238"></path><path d="M240.77,364.89a129.69,129.69,0,0,0,14.17-3.62" style="fill:#fff"></path><path d="M240.77,365.39a.49.49,0,0,1-.49-.41.48.48,0,0,1,.39-.58,127.38,127.38,0,0,0,14.11-3.61.5.5,0,1,1,.31.95,128.85,128.85,0,0,1-14.23,3.64Z" style="fill:#263238"></path><path d="M233.93,302.64l6,6.1,38.31,8.16s8.38-2.64,10.42-1.56c2.64,1.4,5.47,3.74,5.75,4.58s-2,1.67-2.79,1.11l-.84-.56s-4.36,1.56-6.32,1.56-7.15-.47-7.15-.47-38.22,1.71-39.06,1.71-15.06-8-15.06-8Z" style="fill:#fff"></path><path d="M238.28,323.77c-.84,0-9.95-5.06-15.3-8.07a.5.5,0,0,1-.14-.76l10.71-12.62a.5.5,0,0,1,.36-.18.56.56,0,0,1,.38.15l5.92,6,38,8.1c1.32-.41,8.6-2.58,10.67-1.48,2.41,1.27,5.62,3.72,6,4.86a1.12,1.12,0,0,1-.53,1.3,3,3,0,0,1-3,.39l-.63-.42a26.92,26.92,0,0,1-6.25,1.5c-1.95,0-7-.45-7.2-.47C275.8,322.13,239.12,323.77,238.28,323.77ZM224,315.12c5.33,3,13.52,7.49,14.34,7.65.61,0,25.77-1.12,39-1.71.12,0,5.26.47,7.17.47s6.11-1.51,6.15-1.53a.52.52,0,0,1,.45.06l.83.56a1.84,1.84,0,0,0,1.41-.11c.45-.18.62-.4.63-.45-.18-.54-2.69-2.79-5.5-4.28-1.35-.71-6.87.6-10,1.59a.53.53,0,0,1-.25,0l-38.31-8.16a.51.51,0,0,1-.26-.14L234,303.38Z" style="fill:#263238"></path><path d="M288.22,318.14l2.34-.31s5,2.33,5.44,2.49.62,1.46-1.87,1.09l-2.48-.38-2.18-.09-1.87.47" style="fill:#fff"></path><path d="M294.93,322a5.83,5.83,0,0,1-.87-.07l-2.49-.37-2.05-.09-1.8.45a.49.49,0,0,1-.6-.36.5.5,0,0,1,.36-.61l1.87-.47h.14l2.18.09,2.54.38c1.28.19,1.54-.12,1.55-.14-.38-.13-4.38-2-5.28-2.43l-2.19.3a.49.49,0,0,1-.56-.43.49.49,0,0,1,.43-.56l2.33-.32a.45.45,0,0,1,.28.05c1.91.89,5.07,2.36,5.39,2.46a1,1,0,0,1,.59,1.15C296.67,321.31,296.34,322,294.93,322Z" style="fill:#263238"></path><path d="M208.68,319s3.61-2.13,4.46-2.13,7,3.4,7,3.4,3.83-.85,3.62.21-.43,1.7-1.7,1.7h-1.28s-3.83.22-6.59.43-17.43,0-17.43,0l4-6.38Z" style="fill:#fff"></path><path d="M208.43,323.16c-5,0-11.27-.09-11.66-.09a.5.5,0,0,1-.44-.26.52.52,0,0,1,0-.51l4-6.38a.5.5,0,0,1,.59-.2l7.64,2.69c1.06-.62,3.66-2.08,4.52-2.08s5.12,2.29,7.09,3.37c1.22-.26,3.16-.54,3.8.08a.84.84,0,0,1,.23.76c-.19.94-.42,2.1-2.19,2.1h-1.28s-3.82.22-6.55.43C213.3,323.14,211,323.16,208.43,323.16Zm-10.76-1.08c3.23,0,14.18.17,16.49,0,2.74-.21,6.56-.42,6.6-.43h1.31c.83,0,1-.22,1.18-1.18a8.6,8.6,0,0,0-3,.26.53.53,0,0,1-.35-.05,48.69,48.69,0,0,0-6.78-3.34,20.28,20.28,0,0,0-4.2,2.06.56.56,0,0,1-.42,0L201,316.8Z" style="fill:#263238"></path><path d="M219.57,320.84h-.07l-4.43-.64a.5.5,0,0,1-.42-.57.51.51,0,0,1,.57-.42l4.42.64a.51.51,0,0,1,.42.57A.5.5,0,0,1,219.57,320.84Z" style="fill:#263238"></path><path d="M277,315.75,240.75,307l-5.65-6.11c-.42-.61-.84-1.3-1.25-2L218.9,274.71c-1-1.25-18.32-8.23-22.32-11a17.75,17.75,0,0,0-16-2.75s-19.5,9.25-22.25,11-4.5,23.5-4.5,27.25,2.75,35.64,3.5,41.89,24.75,10.5,32.75,8.25,15.75-8,15.75-10-.75-14.14-.25-17.39,5-17,5-17l22.63,19.87,44.13-3.29Z" style="fill:#fff"></path><path d="M184.21,350.48c-8,0-19.35-2.2-24.6-5.7-1.69-1.13-2.63-2.34-2.78-3.6-.68-5.72-3.5-38.08-3.5-41.95,0-2.75,1.58-25.67,4.73-27.67,2.74-1.75,21.51-10.65,22.3-11a18.35,18.35,0,0,1,16.5,2.79c2,1.4,7.77,4,12.82,6.28,6.3,2.85,9.11,4.17,9.61,4.8l15,24.22c.44.77.85,1.44,1.24,2l5.51,5.94,36.13,8.69a.5.5,0,0,1,.38.46l.31,5.81a.5.5,0,0,1-.46.53l-44.13,3.29a.49.49,0,0,1-.37-.12l-22.06-19.37c-.93,2.87-4.32,13.45-4.75,16.19-.36,2.34,0,9.56.14,13.88.06,1.62.12,2.9.12,3.44,0,2.46-8.34,8.3-16.12,10.48A23.15,23.15,0,0,1,184.21,350.48Zm1.87-89.82a19.47,19.47,0,0,0-5.36.8c-.12.06-19.43,9.23-22.12,10.94-2.35,1.5-4.27,22.1-4.27,26.83,0,3.53,2.71,35.28,3.5,41.83.11.95.9,1.92,2.34,2.89,6.51,4.34,23.56,6.69,29.77,4.94,7.95-2.23,15.39-7.9,15.39-9.52,0-.52-.06-1.79-.12-3.39-.2-4.64-.5-11.65-.13-14.08.5-3.25,4.84-16.51,5-17.08a.49.49,0,0,1,.35-.32.48.48,0,0,1,.46.1l22.47,19.74,43.43-3.24-.26-5-35.91-8.64a.53.53,0,0,1-.25-.15l-5.66-6.11c-.45-.64-.88-1.34-1.32-2.12L218.48,275c-.42-.47-5.09-2.59-9.22-4.46-5.08-2.3-10.85-4.91-13-6.37A17.51,17.51,0,0,0,186.08,260.66Z" style="fill:#263238"></path><path d="M210.58,305.48h-.06l-8.23-.94a.49.49,0,0,1-.44-.55.5.5,0,0,1,.55-.44l8.23.93a.5.5,0,0,1,0,1Z" style="fill:#263238"></path><path d="M210.58,305.48a.57.57,0,0,1-.25-.06l-12.5-7a.51.51,0,0,1-.19-.69.51.51,0,0,1,.68-.19l12.5,7a.5.5,0,0,1,.19.68A.49.49,0,0,1,210.58,305.48Z" style="fill:#263238"></path><path d="M178,260.8s2.74-3.95,4.4-4.23a31.56,31.56,0,0,1,12.93,1.93c4.41,1.92,8.26,8.53,8.26,8.53s-4.68-2.2-12.94-2.48-15.17-.93-15.17-.93Z" style="fill:#fff"></path><path d="M203.61,267.53a.54.54,0,0,1-.21,0c-.05,0-4.7-2.16-12.74-2.43s-15.13-.93-15.2-.93a.5.5,0,0,1-.42-.32.48.48,0,0,1,.09-.51l2.5-2.8c.36-.53,2.93-4.12,4.7-4.41a31.53,31.53,0,0,1,13.22,2c4.5,2,8.33,8.46,8.49,8.74a.5.5,0,0,1-.06.59A.52.52,0,0,1,203.61,267.53Zm-27.07-4.32c2.2.19,7.8.63,14.15.84a40.28,40.28,0,0,1,11.67,2c-1.34-2-4.16-5.72-7.21-7.05a30.82,30.82,0,0,0-12.65-1.9c-1.05.18-3.05,2.56-4.07,4l0,0ZM178,260.8h0Z" style="fill:#263238"></path><path d="M237.55,448.33a2,2,0,0,1-2-1.91l-3.69-78.78a2,2,0,1,1,4-.18l3.7,78.77a2,2,0,0,1-1.9,2.09Z" style="fill:#263238"></path><path d="M204.27,448.33a2,2,0,0,1-2-1.91l-3.69-78.78a2,2,0,1,1,4-.18l3.7,78.77a2,2,0,0,1-1.91,2.09Z" style="fill:#263238"></path><rect x="137.71" y="286.49" width="66" height="59.98" rx="4.5" style="fill:#c4c4c4"></rect><path d="M199.21,347h-57a5,5,0,0,1-5-5V291a5,5,0,0,1,5-5h57a5,5,0,0,1,5,5v51A5,5,0,0,1,199.21,347Zm-57-60a4,4,0,0,0-4,4v51a4,4,0,0,0,4,4h57a4,4,0,0,0,4-4V291a4,4,0,0,0-4-4Z" style="fill:#263238"></path><path d="M235.52,372.2H143.3c-2.46,0-4.46-1.68-4.46-3.75h0c0-2.07,2-3.75,4.46-3.75h92.22c2.46,0,4.46,1.68,4.46,3.75h0C240,370.52,238,372.2,235.52,372.2Z" style="fill:#c4c4c4"></path><path d="M235.52,372.7H143.3c-2.74,0-5-1.91-5-4.25s2.22-4.25,5-4.25h92.22c2.74,0,5,1.9,5,4.25S238.26,372.7,235.52,372.7Zm-92.22-7.5c-2.18,0-4,1.46-4,3.25s1.78,3.25,4,3.25h92.22c2.19,0,4-1.46,4-3.25s-1.77-3.25-4-3.25Z" style="fill:#263238"></path><path d="M188.87,448.33h-.1a2,2,0,0,1-1.9-2.09l3.7-78.77V306.79a2,2,0,0,1,4,0v60.76l-3.69,78.87A2,2,0,0,1,188.87,448.33Z" style="fill:#263238"></path><path d="M143.88,448.33h-.09a2,2,0,0,1-1.91-2.09l3.7-78.77V306.79a2,2,0,0,1,4,0v60.76l-3.7,78.87A2,2,0,0,1,143.88,448.33Z" style="fill:#263238"></path></g></svg>
