<?xml version="1.0" standalone="no"?>
<!DOCTYPE svg PUBLIC "-//W3C//DTD SVG 20010904//EN"
 "http://www.w3.org/TR/2001/REC-SVG-20010904/DTD/svg10.dtd">
<svg version="1.0" xmlns="http://www.w3.org/2000/svg"
 width="512.000000pt" height="512.000000pt" viewBox="0 0 512.000000 512.000000"
 preserveAspectRatio="xMidYMid meet">

<g transform="translate(0.000000,512.000000) scale(0.100000,-0.100000)"
fill="#000000" stroke="none">
<path d="M4427 4999 c-33 -5 -91 -24 -131 -43 -320 -154 -389 -567 -136 -816
94 -92 213 -140 350 -140 136 0 259 51 354 146 187 188 197 486 21 691 -103
121 -290 187 -458 162z"/>
<path d="M3978 4309 c-10 -5 -18 -19 -18 -29 0 -23 26 -26 53 -6 39 30 8 61
-35 35z"/>
<path d="M3845 4230 c-14 -15 -16 -23 -7 -32 16 -16 72 9 72 33 0 26 -41 25
-65 -1z"/>
<path d="M3737 4174 c-34 -18 -37 -54 -4 -54 28 1 57 22 57 43 0 22 -22 27
-53 11z"/>
<path d="M2187 4163 c-12 -12 -7 -31 10 -37 25 -10 36 8 15 27 -10 9 -22 14
-25 10z"/>
<path d="M2857 4132 c-22 -24 -21 -32 2 -32 21 0 33 21 22 39 -5 8 -12 6 -24
-7z"/>
<path d="M3607 4100 c-28 -22 -27 -50 3 -50 10 0 28 8 41 19 20 16 21 21 10
35 -17 21 -23 20 -54 -4z"/>
<path d="M2101 4074 c-11 -14 -17 -32 -14 -40 9 -23 46 -12 63 19 13 24 13 29
0 37 -22 14 -26 13 -49 -16z"/>
<path d="M2903 4054 c-12 -32 36 -79 59 -56 10 10 9 18 -4 40 -20 32 -46 40
-55 16z"/>
<path d="M3487 4034 c-49 -26 -23 -69 29 -46 26 12 33 47 11 55 -7 3 -25 -2
-40 -9z"/>
<path d="M2007 3972 c-37 -41 -5 -78 32 -38 12 12 21 30 21 39 0 23 -33 22
-53 -1z"/>
<path d="M3367 3964 c-28 -15 -37 -49 -14 -57 20 -7 67 22 67 42 0 26 -21 31
-53 15z"/>
<path d="M2984 3945 c-8 -19 22 -65 42 -65 23 0 28 27 10 55 -18 28 -44 33
-52 10z"/>
<path d="M3238 3889 c-22 -12 -23 -45 -3 -53 19 -7 71 37 61 52 -9 15 -35 15
-58 1z"/>
<path d="M1910 3866 c-23 -26 -22 -56 3 -56 7 0 24 11 37 25 19 20 21 27 10
40 -17 20 -23 19 -50 -9z"/>
<path d="M3064 3836 c-6 -16 20 -62 40 -69 7 -3 27 3 44 14 38 22 33 49 -8 49
-16 0 -32 5 -35 10 -9 15 -35 12 -41 -4z"/>
<path d="M1804 3755 c-18 -27 -12 -45 15 -45 24 0 55 35 48 55 -9 23 -45 18
-63 -10z"/>
<path d="M2986 3745 c-21 -16 -15 -45 9 -45 28 0 55 20 55 40 0 24 -35 27 -64
5z"/>
<path d="M3143 3724 c-3 -10 4 -26 20 -42 22 -21 28 -23 41 -13 14 12 14 16
-1 42 -19 32 -50 38 -60 13z"/>
<path d="M463 3715 c-209 -56 -353 -239 -353 -447 0 -118 70 -296 220 -557 71
-123 71 -124 52 -145 -58 -63 -78 -183 -47 -277 24 -70 101 -149 169 -172 67
-23 160 -22 214 3 59 27 132 80 132 97 0 7 5 22 12 32 10 17 13 17 38 3 30
-17 60 -11 60 12 0 16 -53 49 -62 40 -12 -12 0 146 12 161 7 8 10 18 7 22 -4
3 5 14 18 25 28 22 32 46 10 54 -22 9 -65 -23 -65 -48 0 -17 -8 -10 -32 28
-59 90 -60 92 -41 127 15 31 16 31 24 9 10 -27 23 -28 49 -2 39 39 9 81 -31
44 -13 -11 9 41 53 126 134 261 164 376 134 511 -39 176 -174 313 -347 354
-79 18 -157 18 -226 0z m220 -181 c60 -20 126 -79 157 -140 21 -42 25 -63 25
-139 0 -106 -17 -147 -88 -213 -63 -57 -108 -75 -197 -76 -63 -1 -84 3 -132
27 -107 53 -162 143 -163 267 0 87 23 144 82 205 77 79 205 107 316 69z"/>
<path d="M2868 3676 c-26 -19 -23 -46 5 -46 27 0 62 33 52 49 -9 15 -36 13
-57 -3z"/>
<path d="M1716 3661 c-19 -21 -19 -52 1 -58 15 -5 54 38 51 57 -5 22 -32 23
-52 1z"/>
<path d="M3230 3610 c0 -11 9 -29 21 -41 19 -19 23 -20 37 -6 14 14 13 18 -2
41 -20 32 -56 35 -56 6z"/>
<path d="M2739 3599 c-15 -15 -18 -24 -10 -32 17 -17 65 4 69 31 4 29 -30 30
-59 1z"/>
<path d="M1615 3550 c-19 -21 -14 -50 8 -50 18 0 47 32 47 53 0 23 -33 21 -55
-3z"/>
<path d="M2619 3532 c-20 -17 -21 -22 -10 -36 12 -14 16 -14 43 0 18 9 28 22
26 32 -5 24 -31 26 -59 4z"/>
<path d="M3313 3505 c-3 -9 -3 -18 0 -21 9 -9 48 16 42 27 -9 14 -35 11 -42
-6z"/>
<path d="M2498 3466 c-20 -14 -24 -41 -8 -51 16 -10 72 25 68 43 -4 21 -38 26
-60 8z"/>
<path d="M1527 3452 c-23 -25 -22 -52 1 -52 25 0 56 35 49 55 -8 20 -30 19
-50 -3z"/>
<path d="M2369 3391 c-22 -18 -23 -21 -8 -36 14 -14 20 -15 40 -4 30 15 39 28
32 46 -7 19 -37 16 -64 -6z"/>
<path d="M1430 3345 c-23 -25 -21 -55 3 -55 18 0 47 32 47 52 0 27 -27 28 -50
3z"/>
<path d="M2249 3322 c-24 -20 -21 -52 5 -52 24 0 60 35 53 53 -8 22 -29 21
-58 -1z"/>
<path d="M2133 3258 c-26 -13 -31 -46 -8 -54 21 -9 67 24 63 44 -4 21 -26 24
-55 10z"/>
<path d="M1324 3235 c-18 -27 -12 -45 16 -45 22 0 55 44 45 60 -11 18 -44 11
-61 -15z"/>
<path d="M2001 3179 c-21 -20 -21 -23 -7 -37 15 -15 18 -15 44 0 15 9 27 25
27 35 0 26 -36 28 -64 2z"/>
<path d="M1230 3133 c-19 -24 -19 -28 -5 -42 14 -14 18 -13 42 11 22 23 24 29
13 42 -17 22 -25 20 -50 -11z"/>
<path d="M1883 3115 c-44 -31 -22 -65 28 -45 22 9 29 19 27 34 -4 26 -27 31
-55 11z"/>
<path d="M1759 3042 c-24 -20 -21 -52 5 -52 24 0 60 35 53 53 -8 22 -29 21
-58 -1z"/>
<path d="M1135 3030 c-19 -21 -14 -50 8 -50 21 0 50 37 44 55 -9 21 -30 19
-52 -5z"/>
<path d="M1645 2978 c-26 -15 -34 -28 -28 -45 7 -19 37 -16 64 5 14 12 20 25
16 35 -7 20 -24 21 -52 5z"/>
<path d="M3044 2945 c-8 -19 3 -35 26 -35 32 0 50 11 50 31 0 15 -7 19 -35 19
-22 0 -38 -6 -41 -15z"/>
<path d="M1040 2925 c-21 -22 -22 -27 -9 -40 13 -13 17 -13 37 1 14 10 22 24
20 37 -4 30 -21 31 -48 2z"/>
<path d="M2930 2931 c-29 -8 -39 -38 -16 -47 9 -3 28 -3 42 0 19 5 24 12 22
28 -3 25 -13 29 -48 19z"/>
<path d="M1511 2901 c-15 -12 -22 -24 -18 -35 13 -33 82 -5 75 31 -5 25 -28
26 -57 4z"/>
<path d="M2790 2901 c-14 -4 -25 -12 -24 -19 3 -33 5 -34 36 -28 43 8 55 21
38 41 -14 16 -13 16 -50 6z"/>
<path d="M2648 2873 c-23 -6 -30 -29 -13 -43 21 -17 70 1 70 26 0 19 -23 27
-57 17z"/>
<path d="M1389 2832 c-24 -20 -21 -52 5 -52 24 0 60 35 53 53 -8 22 -29 21
-58 -1z"/>
<path d="M2508 2843 c-21 -5 -24 -41 -5 -49 8 -3 26 0 41 6 51 19 19 58 -36
43z"/>
<path d="M937 2819 c-17 -24 -12 -49 9 -49 17 0 55 41 51 55 -7 20 -45 16 -60
-6z"/>
<path d="M2368 2813 c-21 -5 -24 -39 -5 -45 25 -9 62 8 62 27 0 20 -23 28 -57
18z"/>
<path d="M2220 2775 c-18 -22 0 -37 36 -33 21 2 30 9 32 26 3 18 -1 22 -26 22
-16 0 -35 -7 -42 -15z"/>
<path d="M1269 2762 c-24 -20 -21 -52 5 -52 24 0 60 35 53 53 -8 22 -29 21
-58 -1z"/>
<path d="M2080 2745 c-16 -20 -4 -35 29 -35 31 0 57 23 46 40 -9 15 -61 12
-75 -5z"/>
<path d="M1943 2719 c-18 -18 -3 -39 27 -39 30 0 56 23 45 40 -8 13 -58 13
-72 -1z"/>
<path d="M1148 2694 c-31 -16 -37 -41 -12 -51 24 -9 65 18 62 41 -4 26 -17 28
-50 10z"/>
<path d="M1830 2700 c-33 -8 -41 -50 -10 -50 29 0 60 18 60 34 0 18 -19 24
-50 16z"/>
<path d="M1692 2673 c-13 -3 -26 -11 -29 -19 -9 -24 12 -37 47 -29 24 5 30 11
28 28 -3 23 -12 26 -46 20z"/>
<path d="M1543 2640 c-24 -10 -31 -34 -13 -45 6 -4 24 -3 41 0 24 5 29 11 27
28 -3 25 -22 30 -55 17z"/>
<path d="M1021 2621 c-15 -12 -22 -24 -18 -35 13 -33 82 -5 75 31 -5 25 -28
26 -57 4z"/>
<path d="M1403 2610 c-26 -11 -29 -23 -10 -38 14 -12 58 -5 69 12 8 12 -9 36
-26 35 -6 0 -21 -4 -33 -9z"/>
<path d="M1268 2583 c-22 -6 -30 -29 -14 -42 19 -16 71 2 71 25 0 19 -23 27
-57 17z"/>
<path d="M3285 2570 c-19 -21 -14 -50 8 -50 18 0 47 32 47 53 0 23 -33 21 -55
-3z"/>
<path d="M1123 2554 c-7 -3 -13 -15 -13 -25 0 -17 6 -20 38 -17 29 2 37 7 37
23 0 20 -34 30 -62 19z"/>
<path d="M3868 2543 c-22 -5 -23 -26 -3 -43 18 -15 35 -5 35 20 0 22 -8 28
-32 23z"/>
<path d="M977 2523 c-12 -11 -8 -41 6 -45 25 -9 62 8 65 30 3 19 -1 22 -31 22
-18 0 -37 -3 -40 -7z"/>
<path d="M3202 2460 c-18 -29 -15 -50 8 -50 22 0 55 43 45 60 -10 17 -39 11
-53 -10z"/>
<path d="M3892 2409 c4 -37 33 -62 47 -40 14 22 -8 71 -31 71 -16 0 -19 -6
-16 -31z"/>
<path d="M3114 2345 c-18 -27 -13 -55 10 -55 18 0 49 48 42 66 -8 22 -34 17
-52 -11z"/>
<path d="M3934 2297 c-9 -24 14 -67 36 -67 22 0 25 15 10 54 -10 28 -37 35
-46 13z"/>
<path d="M3032 2235 c-35 -44 -5 -77 32 -36 19 21 18 52 0 58 -7 2 -21 -8 -32
-22z"/>
<path d="M1009 2234 c-11 -14 -10 -19 11 -36 27 -22 63 -20 68 4 2 11 -8 23
-27 32 -37 20 -36 20 -52 0z"/>
<path d="M1134 2168 c-10 -15 34 -50 59 -46 27 4 32 22 12 42 -19 19 -61 21
-71 4z"/>
<path d="M880 2155 c-11 -13 -9 -20 10 -40 13 -14 30 -25 37 -25 25 0 26 30 3
56 -27 28 -33 29 -50 9z"/>
<path d="M3980 2148 c0 -13 6 -33 14 -43 20 -28 47 -5 37 33 -10 37 -51 44
-51 10z"/>
<path d="M2942 2120 c-17 -28 -15 -50 6 -50 25 0 56 35 49 55 -9 21 -40 19
-55 -5z"/>
<path d="M1271 2117 c-18 -18 -13 -33 14 -45 34 -16 52 -15 58 1 7 19 -4 34
-34 46 -19 7 -30 6 -38 -2z"/>
<path d="M987 2063 c-22 -21 11 -73 46 -73 25 0 21 46 -5 64 -25 18 -32 19
-41 9z"/>
<path d="M1403 2063 c-22 -8 -14 -39 12 -51 37 -17 55 -15 55 7 0 27 -40 53
-67 44z"/>
<path d="M4024 2027 c-8 -21 14 -67 31 -67 22 0 30 27 17 56 -12 26 -39 32
-48 11z"/>
<path d="M2855 2004 c-15 -23 -15 -28 -2 -41 13 -13 17 -13 36 6 12 12 21 30
21 41 0 29 -34 25 -55 -6z"/>
<path d="M1533 2003 c-22 -8 -14 -43 11 -55 29 -13 56 -5 56 16 0 18 -49 45
-67 39z"/>
<path d="M1087 1963 c-13 -12 -7 -40 11 -56 42 -38 79 -2 41 40 -23 23 -40 29
-52 16z"/>
<path d="M1663 1943 c-22 -8 -14 -43 11 -55 29 -13 56 -5 56 16 0 18 -49 45
-67 39z"/>
<path d="M2776 1901 c-21 -23 -18 -54 5 -59 9 -2 24 9 33 23 30 46 -2 76 -38
36z"/>
<path d="M4074 1896 c-10 -27 5 -66 26 -66 27 0 33 16 18 47 -16 32 -36 41
-44 19z"/>
<path d="M1780 1860 c0 -35 65 -55 77 -24 8 21 -21 44 -54 44 -16 0 -23 -6
-23 -20z"/>
<path d="M1183 1854 c-6 -17 33 -64 54 -64 25 0 26 30 3 56 -27 28 -48 31 -57
8z"/>
<path d="M1909 1814 c-11 -14 -10 -19 11 -36 27 -22 63 -20 68 4 2 11 -8 23
-27 32 -37 20 -36 20 -52 0z"/>
<path d="M2690 1785 c-23 -25 -21 -55 3 -55 18 0 47 32 47 52 0 27 -27 28 -50
3z"/>
<path d="M4120 1765 c-13 -16 -6 -48 16 -66 22 -18 37 2 29 39 -7 35 -28 47
-45 27z"/>
<path d="M1290 1755 c-11 -13 -9 -20 10 -40 13 -14 30 -25 37 -25 25 0 26 30
3 56 -27 28 -33 29 -50 9z"/>
<path d="M2039 1754 c-11 -14 -10 -19 11 -36 27 -22 63 -20 68 4 2 11 -8 23
-27 32 -37 20 -36 20 -52 0z"/>
<path d="M2169 1694 c-11 -14 -10 -19 10 -35 27 -22 57 -25 64 -6 7 18 -2 31
-30 46 -28 14 -28 14 -44 -5z"/>
<path d="M2600 1671 c-16 -30 -12 -51 9 -51 21 0 50 38 44 58 -7 19 -41 14
-53 -7z"/>
<path d="M1397 1663 c-23 -22 18 -81 48 -70 21 9 19 40 -3 60 -20 18 -34 21
-45 10z"/>
<path d="M2303 1643 c-24 -9 -14 -40 16 -53 34 -14 51 -7 51 19 0 14 -41 45
-53 40 -1 0 -8 -3 -14 -6z"/>
<path d="M4162 1609 c4 -37 33 -62 47 -40 14 22 -8 71 -31 71 -16 0 -19 -6
-16 -31z"/>
<path d="M2427 1583 c-4 -3 -7 -14 -7 -23 0 -19 52 -46 68 -36 6 3 13 -1 16
-10 4 -10 14 -14 26 -11 12 3 20 0 20 -8 0 -19 58 -41 72 -27 16 16 2 42 -31
53 -22 8 -28 15 -24 29 7 26 -23 37 -45 17 -15 -14 -19 -14 -41 4 -24 20 -43
24 -54 12z"/>
<path d="M1495 1560 c-10 -16 3 -44 26 -58 18 -12 24 -11 37 2 14 14 14 18 -8
41 -25 26 -45 32 -55 15z"/>
<path d="M4204 1497 c-8 -21 14 -67 31 -67 21 0 28 21 16 53 -11 28 -38 36
-47 14z"/>
<path d="M1593 1454 c-6 -17 33 -64 54 -64 25 0 26 30 3 56 -27 28 -48 31 -57
8z"/>
<path d="M2425 1444 c-33 -50 7 -75 44 -28 16 21 18 30 10 40 -17 21 -35 17
-54 -12z"/>
<path d="M2687 1463 c-16 -15 -6 -44 20 -54 31 -11 53 -6 53 14 0 25 -58 56
-73 40z"/>
<path d="M2810 1394 c-18 -20 5 -44 45 -47 42 -3 45 27 6 47 -37 19 -36 19
-51 0z"/>
<path d="M1696 1353 c-9 -22 36 -68 58 -60 21 8 20 40 -2 60 -24 22 -48 22
-56 0z"/>
<path d="M4250 1346 c0 -27 26 -59 41 -51 10 7 12 36 3 59 -10 26 -44 20 -44
-8z"/>
<path d="M2346 1338 c-14 -20 -14 -23 5 -36 16 -11 23 -11 34 -2 20 16 19 46
-1 54 -22 8 -21 9 -38 -16z"/>
<path d="M2939 1334 c-11 -14 -10 -19 10 -35 28 -23 57 -24 65 -3 9 22 9 22
-24 39 -36 19 -35 19 -51 -1z"/>
<path d="M3071 1281 c-19 -12 -7 -39 23 -53 19 -8 29 -8 40 1 19 16 11 35 -20
50 -29 13 -26 13 -43 2z"/>
<path d="M4294 1227 c-8 -21 14 -67 31 -67 21 0 28 21 16 53 -11 28 -38 36
-47 14z"/>
<path d="M3193 1214 c-7 -20 15 -43 47 -46 36 -4 40 34 5 50 -34 16 -44 15
-52 -4z"/>
<path d="M3330 1160 c-19 -12 -5 -39 26 -51 19 -7 31 -6 38 1 23 23 -35 68
-64 50z"/>
<path d="M3454 1095 c-8 -19 11 -40 44 -50 27 -8 42 20 21 40 -25 23 -58 28
-65 10z"/>
<path d="M3587 1043 c-16 -15 -5 -41 22 -53 54 -22 73 18 21 45 -33 17 -34 17
-43 8z"/>
<path d="M3717 983 c-27 -26 30 -76 59 -52 21 17 17 27 -16 44 -33 17 -34 17
-43 8z"/>
<path d="M3847 923 c-16 -16 -5 -42 22 -51 16 -6 32 -8 35 -5 14 14 4 41 -19
51 -30 14 -30 14 -38 5z"/>
<path d="M3971 856 c-16 -19 11 -46 45 -46 33 0 32 33 -1 48 -32 15 -30 15
-44 -2z"/>
</g>
</svg>
