<?xml version="1.0" standalone="no"?>
<!DOCTYPE svg PUBLIC "-//W3C//DTD SVG 20010904//EN"
 "http://www.w3.org/TR/2001/REC-SVG-20010904/DTD/svg10.dtd">
<svg version="1.0" xmlns="http://www.w3.org/2000/svg"
 width="512.000000pt" height="512.000000pt" viewBox="0 0 512.000000 512.000000"
 preserveAspectRatio="xMidYMid meet">

<g transform="translate(0.000000,512.000000) scale(0.100000,-0.100000)"
fill="#000000" stroke="none">
<path d="M2440 5100 c-102 -28 -170 -62 -234 -121 -30 -27 -63 -49 -75 -49
-85 0 -214 -98 -264 -200 -56 -115 -69 -195 -74 -445 -5 -193 -3 -228 8 -219
8 6 61 46 119 90 371 283 424 291 790 119 270 -127 362 -152 607 -162 l155 -6
-4 209 c-4 196 -6 214 -31 284 -103 288 -436 502 -802 515 -98 4 -134 1 -195
-15z"/>
<path d="M3648 3783 l-66 -4 -4 -148 c-3 -137 -5 -150 -27 -183 -13 -19 -40
-46 -59 -59 l-35 -24 -408 -5 c-393 -5 -409 -6 -423 -25 -23 -31 -19 -72 9
-101 l25 -25 408 3 407 3 56 26 c73 34 134 96 167 168 25 52 27 68 30 219 2
89 0 161 -4 160 -5 -1 -39 -3 -76 -5z"/>
<path d="M3258 2707 c-29 -57 -84 -165 -123 -240 -38 -75 -76 -139 -83 -142
-8 -3 -106 46 -219 109 l-205 115 -156 -88 c-235 -132 -257 -142 -274 -128 -8
7 -66 111 -128 232 -62 121 -116 224 -121 229 -12 13 -180 -56 -309 -127 -149
-83 -250 -159 -344 -258 -92 -98 -136 -165 -174 -271 -26 -71 -27 -80 -30
-340 l-3 -268 1299 0 c714 0 1408 -3 1541 -7 l242 -6 -3 274 c-3 268 -4 276
-30 347 -15 41 -42 99 -60 130 -52 88 -217 249 -334 326 -94 61 -291 162 -391
200 l-42 15 -53 -102z"/>
<path d="M411 1084 c-97 -49 -136 -155 -91 -249 27 -55 43 -67 178 -125 61
-26 111 -54 119 -67 14 -20 13 -24 -12 -49 -24 -24 -32 -26 -85 -22 -47 3 -67
10 -97 35 -51 41 -76 47 -111 29 -85 -44 -34 -146 97 -197 82 -32 180 -31 246
3 60 31 77 49 104 108 55 120 -8 227 -170 290 -147 56 -155 64 -119 100 29 29
84 25 154 -9 47 -24 63 -28 84 -20 59 23 70 85 22 129 -76 71 -224 91 -319 44z"/>
<path d="M950 1090 c-19 -19 -20 -33 -20 -252 0 -260 5 -283 71 -345 112 -104
278 -104 388 0 66 63 71 85 71 345 0 219 -1 233 -20 252 -28 28 -81 26 -108
-3 -21 -22 -22 -32 -22 -238 -1 -153 -4 -218 -13 -229 -50 -65 -150 -68 -199
-6 -15 18 -18 47 -18 237 0 212 0 216 -23 237 -30 28 -80 29 -107 2z"/>
<path d="M1690 1090 c-19 -19 -20 -33 -20 -329 l0 -310 26 -20 c30 -24 43 -26
77 -10 36 16 47 50 47 144 l0 85 48 0 c120 0 214 62 248 162 37 112 -21 238
-133 285 -21 8 -74 13 -153 13 -107 0 -122 -2 -140 -20z m248 -146 c31 -22 41
-53 29 -88 -11 -32 -58 -56 -112 -56 l-35 0 0 80 0 80 48 0 c27 0 57 -7 70
-16z"/>
<path d="M2312 1087 c-22 -23 -22 -29 -22 -324 0 -279 1 -302 19 -324 26 -32
86 -32 112 0 16 19 19 40 19 116 l0 92 75 5 c89 6 152 39 199 106 57 81 45
208 -27 282 -56 57 -96 70 -233 70 -113 0 -122 -1 -142 -23z m263 -152 c31
-30 32 -66 2 -100 -19 -23 -32 -27 -77 -28 l-55 -2 -3 78 -3 77 56 0 c46 0 60
-4 80 -25z"/>
<path d="M3129 1096 c-94 -36 -165 -103 -208 -196 -33 -72 -36 -179 -6 -259
28 -77 107 -160 187 -197 52 -23 76 -28 138 -28 139 1 245 64 311 186 32 59
34 69 34 158 0 82 -4 103 -26 151 -33 70 -91 129 -161 165 -44 23 -68 28 -143
31 -59 2 -102 -2 -126 -11z m189 -151 c103 -44 149 -160 103 -260 -36 -79 -95
-115 -185 -115 -67 0 -136 41 -166 99 -24 48 -27 139 -6 179 18 35 69 83 104
98 38 17 106 17 150 -1z"/>
<path d="M3810 1090 c-19 -19 -20 -33 -20 -329 l0 -310 26 -20 c30 -24 43 -26
77 -10 35 16 47 49 47 130 l0 70 81 -93 c110 -125 132 -137 183 -97 19 15 26
30 26 56 0 29 -12 49 -71 117 -62 71 -68 82 -53 91 9 6 32 23 51 39 120 103
88 299 -59 360 -26 11 -71 16 -153 16 -102 0 -117 -2 -135 -20z m248 -150 c51
-48 11 -110 -70 -110 l-48 0 0 65 0 65 48 0 c35 0 54 -6 70 -20z"/>
<path d="M4427 1098 c-28 -22 -36 -60 -22 -96 14 -33 30 -40 100 -44 l40 -3 3
-252 2 -252 27 -20 c32 -26 64 -27 94 -2 24 19 24 20 27 275 l3 256 50 0 c85
0 125 64 78 124 l-20 26 -183 0 c-130 0 -187 -4 -199 -12z"/>
</g>
</svg>
