<?xml version="1.0" standalone="no"?>
<!DOCTYPE svg PUBLIC "-//W3C//DTD SVG 20010904//EN"
 "http://www.w3.org/TR/2001/REC-SVG-20010904/DTD/svg10.dtd">
<svg version="1.0" xmlns="http://www.w3.org/2000/svg"
 width="512.000000pt" height="512.000000pt" viewBox="0 0 512.000000 512.000000"
 preserveAspectRatio="xMidYMid meet">

<g transform="translate(0.000000,512.000000) scale(0.100000,-0.100000)"
fill="#000000" stroke="none">
<path d="M3995 5051 c-63 -29 -96 -74 -199 -268 -53 -101 -96 -185 -96 -188 0
-3 6 -5 13 -5 6 0 26 -7 42 -16 17 -9 140 -72 275 -141 467 -240 835 -435 855
-454 21 -18 21 -18 110 153 119 228 132 264 117 336 -17 80 -50 124 -129 170
-56 32 -483 256 -758 396 -83 43 -162 48 -230 17z"/>
<path d="M3567 4343 c-38 -68 -737 -1413 -737 -1420 0 -5 12 -16 26 -24 43
-23 102 -97 125 -158 13 -36 21 -82 22 -128 1 -40 3 -70 5 -69 7 8 852 1629
852 1636 0 5 -57 38 -127 75 -71 37 -135 74 -145 82 -9 8 -18 11 -21 6z"/>
<path d="M2840 2183 c1 -124 20 -646 24 -650 2 -3 137 82 300 188 l295 193
-33 45 c-110 150 -364 281 -546 281 l-40 0 0 -57z"/>
</g>
</svg>
