<?xml version="1.0" standalone="no"?>
<!DOCTYPE svg PUBLIC "-//W3C//DTD SVG 20010904//EN"
 "http://www.w3.org/TR/2001/REC-SVG-20010904/DTD/svg10.dtd">
<svg version="1.0" xmlns="http://www.w3.org/2000/svg"
 width="512.000000pt" height="512.000000pt" viewBox="0 0 512.000000 512.000000"
 preserveAspectRatio="xMidYMid meet">

<g transform="translate(0.000000,512.000000) scale(0.100000,-0.100000)"
fill="#000000" stroke="none">
<path d="M4523 2397 l-502 -502 -3 -217 c-3 -241 -5 -246 -78 -295 -32 -22
-42 -23 -244 -23 l-211 0 -158 -158 c-124 -125 -157 -163 -157 -184 0 -30 -32
-58 -65 -58 -13 0 -168 -148 -459 -439 l-438 -438 53 -6 c30 -4 131 -10 224
-13 571 -22 1117 152 1592 507 134 101 370 339 475 479 303 407 466 850 497
1351 10 146 -1 435 -17 479 -6 17 -84 -57 -509 -483z"/>
<path d="M3781 1656 c-25 -26 -31 -38 -26 -59 10 -37 -32 -77 -78 -77 -21 0
-41 -7 -52 -20 -18 -20 -17 -20 119 -20 l136 0 10 26 c6 14 10 61 10 105 l0
79 -43 0 c-36 0 -49 -6 -76 -34z"/>
</g>
</svg>
