<?xml version="1.0" standalone="no"?>
<!DOCTYPE svg PUBLIC "-//W3C//DTD SVG 20010904//EN"
 "http://www.w3.org/TR/2001/REC-SVG-20010904/DTD/svg10.dtd">
<svg version="1.0" xmlns="http://www.w3.org/2000/svg"
 width="512.000000pt" height="512.000000pt" viewBox="0 0 512.000000 512.000000"
 preserveAspectRatio="xMidYMid meet">

<g transform="translate(0.000000,512.000000) scale(0.100000,-0.100000)"
fill="#000000" stroke="none">
<path d="M300 4676 c-102 -29 -185 -91 -238 -178 -63 -105 -62 -78 -62 -1303
0 -657 4 -1134 10 -1168 30 -184 166 -313 354 -337 49 -6 552 -10 1313 -10
l1233 0 0 455 0 455 149 0 148 0 6 143 c6 164 27 259 82 369 112 223 318 384
559 435 71 15 274 13 339 -3 l27 -6 0 373 c0 206 -5 405 -10 442 -20 139 -102
251 -227 310 l-68 32 -1785 2 c-1407 1 -1795 -1 -1830 -11z m1112 -918 c25
-16 63 -47 83 -70 59 -70 67 -115 63 -370 -3 -202 -5 -227 -24 -269 -27 -58
-79 -110 -140 -140 -48 -23 -55 -24 -314 -24 -230 0 -270 2 -303 17 -62 28
-111 73 -143 130 l-29 53 -3 233 c-3 198 -1 240 14 284 21 65 84 134 149 165
49 23 54 23 325 21 l275 -3 47 -27z m-207 -1323 l0 -150 -302 -3 -303 -2 0
148 c0 82 3 152 7 155 4 4 140 6 302 5 l296 -3 0 -150z m905 0 l0 -155 -302 2
-303 3 -3 140 c-1 76 0 145 2 152 4 10 69 13 306 13 l300 0 0 -155z"/>
<path d="M3893 3235 c-123 -34 -225 -105 -292 -206 -58 -87 -81 -170 -88 -316
l-6 -123 356 0 357 0 0 309 0 309 -27 10 c-90 35 -208 41 -300 17z"/>
</g>
</svg>
