<svg xmlns="http://www.w3.org/2000/svg" viewBox="0 0 500 500"><g id="freepik--Table--inject-96"><polygon points="46.06 465.18 97.04 464.94 148.03 464.85 250 464.69 351.97 464.85 402.96 464.94 453.94 465.18 402.96 465.43 351.97 465.52 250 465.68 148.03 465.52 97.04 465.43 46.06 465.18" style="fill:#263238"></polygon></g><g id="freepik--Character--inject-96"><path d="M181.91,297.35c6.57,46,22.73,104.84,38,117.72,12.28,10.4,79.44,32.53,83.23,33.26,9.38,1.75,33.69-63.51,24.11-67.06-12.07-4.46-70.66-11.22-73.71-14.94S231.39,331.71,210,296.14C195.26,271.57,177.84,268.83,181.91,297.35Z" style="fill:#eb9481"></path><path d="M295.81,444c1.08.67,16.41,10.06,26.06,13.76,7.21,2.76,28.15,10.16,32,2.53,2.62-5.2-9.19-11-17.45-15.28-4.35-2.26-9.51-7.45-7.93-10.23,2.75-4.87,13.92,1.19,21.18,6.27,14,9.81,32.4,26.9,42,20.17,3.65-2.54.12-8-5.24-13.57,8.9,6.68,18.51,12.35,22.67,9.69,2.38-1.52,2.68-3.85,1.66-6.63,2.82,1.19,5.4,1.22,7.34-.52,3.33-2.94,2.24-7.78-.7-12.9a3.66,3.66,0,0,0,2.93-1.58c7.29-9.32-22.69-40.34-33.66-43.93-32.26-10.6-67.53-10.69-67.53-10.69C305.36,390.36,295.79,444,295.81,444Z" style="fill:#eb9481"></path><path d="M346.78,417.78A56.19,56.19,0,0,1,368,428.08c7.88,6.22,12.88,13.13,19.34,20.21.17.19-.12.46-.29.27-3.08-3.37-15.93-16.13-19.28-19.07a53.35,53.35,0,0,0-21.06-11.58C346.65,417.89,346.69,417.76,346.78,417.78Z" style="fill:#263238"></path><path d="M354.09,404.33c8.45,3.09,17.12,6.23,24.81,11,8.41,5.22,14.68,13.1,20.85,20.69q5.56,6.86,10.81,13.93c.15.2-.12.47-.28.27q-9.39-11.76-19.46-22.93a70.64,70.64,0,0,0-22.07-16.65c-4.79-2.3-9.75-4.24-14.71-6.16C354,404.44,354,404.29,354.09,404.33Z" style="fill:#263238"></path><path d="M364.36,392.89c8.26,2.43,15.48,4.52,22.54,9.66,9.36,6.79,18,17.64,21.07,21.48,3.35,4.25,6.56,8.6,9.71,13,.13.18-.18.4-.31.23a280.85,280.85,0,0,0-23.52-27.56,55.75,55.75,0,0,0-13.56-10.54c-5-2.69-10.54-4.44-16-6.23C364.31,392.93,364.33,392.88,364.36,392.89Z" style="fill:#263238"></path><path d="M300.23,447.51c-13.68-4.18-69.29-23.08-80.36-32.44-15.23-12.88-31.39-71.74-38-117.72-2.53-17.75,3.26-23.39,11.55-19.2Z" style="opacity:0.1"></path><path d="M194.69,371.86l49.16-27.53s-19.13-34-38.76-59.64-27.47-10.89-24.65,16.91S194.69,371.86,194.69,371.86Z" style="fill:#FFC727"></path><path d="M194.69,371.86l49.16-27.53s-19.13-34-38.76-59.64-27.47-10.89-24.65,16.91S194.69,371.86,194.69,371.86Z" style="opacity:0.30000000000000004"></path><path d="M236.36,337.44a455.16,455.16,0,0,0-41.12,23.09c-.2.13,0,.45.21.35a454,454,0,0,0,41.14-23.05C236.81,337.7,236.59,337.33,236.36,337.44Z" style="fill:#263238"></path><path d="M182,296.59a3.75,3.75,0,0,1-1.6.79l-.33.05c0,.47.06.93.1,1.41a3.08,3.08,0,0,0,.65-.21,4.16,4.16,0,0,0,1.81-1.46c.38-.58.79-1.13,1.13-1.76C183.15,295.8,182.6,296.22,182,296.59Zm52.82,43.61c-.17-.67-.25-1.33-.43-2-.2.71-.28,1.37-.41,2a4.06,4.06,0,0,1-.54,1.76,3.13,3.13,0,0,1-2.67,1.56,4.12,4.12,0,0,0-3.89,2.59,3.47,3.47,0,0,0-.21,2.25c.13.71.21,1.38.37,2.05a15.19,15.19,0,0,0,.42-2.05,4.25,4.25,0,0,1,.59-1.68,3.13,3.13,0,0,1,2.76-1.46,4.23,4.23,0,0,0,3.84-2.71A5,5,0,0,0,234.84,340.2Zm-22.49-45.64a2.82,2.82,0,0,0,.09.52c.12.71.21,1.38.37,2.05a10.71,10.71,0,0,0,.32-1.47Zm-3,31.39a3.73,3.73,0,0,1-1.71-.58,3.31,3.31,0,0,1-1.46-2.76,4.09,4.09,0,0,0-2.68-3.81,3.94,3.94,0,0,0-2.3-.17c-.67.13-1.38.22-2.05.42.67.16,1.38.25,2.05.42a4,4,0,0,1,1.72.51,3.22,3.22,0,0,1,1.58,2.67,4.3,4.3,0,0,0,2.55,3.93,4,4,0,0,0,2.3.2,14.92,14.92,0,0,0,2-.42A18.59,18.59,0,0,0,209.34,326Z" style="fill:#FFC727"></path><path d="M235.17,349.19l-40.48,22.67s-11.43-42.46-14.25-70.26c-1.79-17.58.7-29.94,7.74-30.15Z" style="opacity:0.1"></path><path d="M239.17,465.05H65.44C63.53,461.54,92,309.36,150.59,266.51c13-9.51,36.06-3.39,42.47,5.85C225.3,318.82,239.17,465.05,239.17,465.05Z" style="fill:#FFC727"></path><g style="opacity:0.30000000000000004"><path d="M239.17,465.05H65.44C63.53,461.54,92,309.36,150.59,266.51c13-9.51,36.06-3.39,42.47,5.85C225.3,318.82,239.17,465.05,239.17,465.05Z"></path></g><path d="M146,323.58a3.92,3.92,0,0,1-1.67-.59,3.11,3.11,0,0,1-1.46-2.77,4.07,4.07,0,0,0-5-4,19.38,19.38,0,0,0-2.09.43c.71.16,1.38.24,2.09.38a4.2,4.2,0,0,1,1.72.53,3.24,3.24,0,0,1,1.54,2.69,4.23,4.23,0,0,0,2.59,3.89,4.06,4.06,0,0,0,2.26.24c.71-.16,1.38-.24,2.05-.42A15.18,15.18,0,0,0,146,323.58ZM179.71,455a3.81,3.81,0,0,1-1.7-.58,3.22,3.22,0,0,1-1.48-2.77,4,4,0,0,0-5-4c-.67.12-1.38.22-2,.38a18.59,18.59,0,0,0,2,.41,4.31,4.31,0,0,1,1.7.54,3.2,3.2,0,0,1,1.6,2.68,4.14,4.14,0,0,0,2.55,3.89,3.91,3.91,0,0,0,2.29.25c.67-.16,1.34-.25,2.06-.42C181.05,455.17,180.38,455.09,179.71,455Zm29.63-129a3.73,3.73,0,0,1-1.71-.58,3.31,3.31,0,0,1-1.46-2.76,4.09,4.09,0,0,0-2.68-3.81,3.94,3.94,0,0,0-2.3-.17c-.67.13-1.38.22-2.05.42.67.16,1.38.25,2.05.42a4,4,0,0,1,1.72.51,3.22,3.22,0,0,1,1.58,2.67,4.3,4.3,0,0,0,2.55,3.93,4,4,0,0,0,2.3.2,14.92,14.92,0,0,0,2-.42A18.59,18.59,0,0,0,209.34,326ZM88.07,376.1a4,4,0,0,1-1.19-.29L86.5,377a4.35,4.35,0,0,0,1.57,0,16.77,16.77,0,0,0,2.06-.43C89.46,376.36,88.74,376.28,88.07,376.1Zm45.44,57.28a4.21,4.21,0,0,1-1.72-.57,3.25,3.25,0,0,1-1.46-2.77,4.2,4.2,0,0,0-2.71-3.85,4.46,4.46,0,0,0-2.27-.16c-.71.16-1.38.24-2,.42a14.73,14.73,0,0,0,2,.41,3.61,3.61,0,0,1,1.72.55,3.17,3.17,0,0,1,1.6,2.67,4.13,4.13,0,0,0,2.55,3.89,4,4,0,0,0,2.29.22,20.87,20.87,0,0,0,2.05-.43C134.85,433.6,134.18,433.52,133.51,433.38Zm29.57-55.64a4,4,0,0,1-1.67-.55,3.13,3.13,0,0,1-1.46-2.75,4.25,4.25,0,0,0-2.72-3.85,3.71,3.71,0,0,0-2.26-.16c-.71.16-1.38.24-2.09.41a17.18,17.18,0,0,0,2.09.42,4,4,0,0,1,1.72.5,3.22,3.22,0,0,1,1.54,2.68,4.29,4.29,0,0,0,2.59,3.93,4,4,0,0,0,2.26.2,17.14,17.14,0,0,0,2.09-.41C164.46,378,163.79,377.9,163.08,377.74Zm56.86,35.62a3.55,3.55,0,0,1-1.68-.59A3.13,3.13,0,0,1,216.8,410a4.23,4.23,0,0,0-2.71-3.84,4.49,4.49,0,0,0-2.31-.13c-.67.13-1.33.21-2,.37a18.16,18.16,0,0,0,2,.43,4,4,0,0,1,1.76.54,3.13,3.13,0,0,1,1.54,2.68,4.2,4.2,0,0,0,2.56,3.88,4,4,0,0,0,2.3.25c.71-.17,1.38-.25,2.05-.41A13.79,13.79,0,0,0,219.94,413.36Zm-8.44-43.11a5,5,0,0,1-1.6.89,3.25,3.25,0,0,1-3-.81,4.23,4.23,0,0,0-4.56-.95,3.79,3.79,0,0,0-1.79,1.46c-.38.58-.8,1.13-1.17,1.76.63-.39,1.17-.79,1.76-1.18a4,4,0,0,1,1.58-.79,3.36,3.36,0,0,1,3,.92,4.23,4.23,0,0,0,4.63.8,4.46,4.46,0,0,0,1.72-1.51c.37-.59.79-1.12,1.12-1.75C212.62,369.46,212.08,369.88,211.5,370.25Zm-58.11-92.17c-.14-.73-.22-1.4-.38-2.06a16,16,0,0,0-.42,2.06,4.21,4.21,0,0,1-.54,1.7,3.1,3.1,0,0,1-2.68,1.56,4.23,4.23,0,0,0-3.89,2.59,4.07,4.07,0,0,0-.25,2.29c.17.67.25,1.34.43,2,.2-.71.28-1.38.41-2a3.62,3.62,0,0,1,.58-1.71,3.23,3.23,0,0,1,2.77-1.47,4.08,4.08,0,0,0,4-5Zm-27.9,108.18a17.13,17.13,0,0,0-.41-2c-.16.67-.26,1.34-.42,2a4.14,4.14,0,0,1-.51,1.72,3.1,3.1,0,0,1-2.67,1.55,4.09,4.09,0,0,0-4.14,4.85c.13.71.21,1.38.41,2.09a17.23,17.23,0,0,0,.43-2.09,3.59,3.59,0,0,1,.58-1.68,3.14,3.14,0,0,1,2.76-1.46,4.29,4.29,0,0,0,3.85-2.71A4.13,4.13,0,0,0,125.49,386.26Zm54.25-50.71c-.16-.66-.24-1.33-.42-2a18.42,18.42,0,0,0-.41,2,4.06,4.06,0,0,1-.55,1.76,3.12,3.12,0,0,1-2.67,1.56,4.15,4.15,0,0,0-3.89,2.59,3.4,3.4,0,0,0-.2,2.25c.12.71.2,1.38.37,2.05a16.91,16.91,0,0,0,.42-2.05A4.09,4.09,0,0,1,173,342a3.14,3.14,0,0,1,2.76-1.46,4.24,4.24,0,0,0,3.85-2.71A5.11,5.11,0,0,0,179.74,335.55ZM98.82,457.42c-.16-.71-.25-1.38-.42-2.05a15.18,15.18,0,0,0-.41,2.05,3.68,3.68,0,0,1-.55,1.72,3,3,0,0,1-2.67,1.54,4.26,4.26,0,0,0-3.89,2.59,3.63,3.63,0,0,0-.28,1.78h1a3.45,3.45,0,0,1,.47-1.19,3.12,3.12,0,0,1,2.76-1.46,4.19,4.19,0,0,0,3.85-2.72A4.42,4.42,0,0,0,98.82,457.42ZM182,296.59a3.75,3.75,0,0,1-1.6.79,3.06,3.06,0,0,1-3-.92,4.25,4.25,0,0,0-4.64-.79,4.16,4.16,0,0,0-1.72,1.5c-.38.59-.83,1.14-1.17,1.76.63-.38,1.17-.79,1.76-1.17a3.47,3.47,0,0,1,1.58-.83,3.14,3.14,0,0,1,3,.75,4.12,4.12,0,0,0,6.36-.51c.38-.58.79-1.13,1.13-1.76C183.15,295.8,182.6,296.22,182,296.59Zm-53.55,53.23a3.33,3.33,0,0,1-1.58.79,3.1,3.1,0,0,1-3-.91,4.25,4.25,0,0,0-4.64-.8,4,4,0,0,0-1.71,1.51c-.37.58-.84,1.13-1.18,1.76.63-.39,1.18-.81,1.76-1.18a3.43,3.43,0,0,1,1.6-.83,3.11,3.11,0,0,1,3,.75,4.15,4.15,0,0,0,4.56,1,4.27,4.27,0,0,0,1.8-1.46c.38-.59.79-1.14,1.13-1.76C129.6,349,129.06,349.44,128.47,349.82ZM89,420.76a3.25,3.25,0,0,1-1.6.79,3.17,3.17,0,0,1-3-.88,4.15,4.15,0,0,0-4.6-.83,4.55,4.55,0,0,0-1.71,1.5A14.61,14.61,0,0,0,77,423.1a13.52,13.52,0,0,0,1.76-1.18,3.57,3.57,0,0,1,1.58-.83,3.19,3.19,0,0,1,3,.79,4.25,4.25,0,0,0,4.6,1,4.35,4.35,0,0,0,1.76-1.46c.36-.59.83-1.13,1.17-1.76C90.17,420,89.63,420.38,89,420.76ZM178,413.19a3.77,3.77,0,0,1-1.64.79,3.23,3.23,0,0,1-3-.91,4.11,4.11,0,0,0-4.65-.8,4.28,4.28,0,0,0-1.71,1.51c-.38.54-.79,1.08-1.17,1.7a15.26,15.26,0,0,0,1.76-1.16,5.68,5.68,0,0,1,1.58-.84,3.26,3.26,0,0,1,3,.8,4.22,4.22,0,0,0,4.55,1,4.26,4.26,0,0,0,1.8-1.46c.37-.59.79-1.13,1.12-1.76A19.85,19.85,0,0,0,178,413.19Zm-34.51,51a3.85,3.85,0,0,1-1.63.79,3.23,3.23,0,0,1-3-.91,4.11,4.11,0,0,0-4.65-.81,4.3,4.3,0,0,0-1.71,1.52l-.21.29h1.17a4.23,4.23,0,0,1,1.21-.59,3.3,3.3,0,0,1,2.77.59h6.37c.09-.1.16-.2.23-.29.37-.59.79-1.14,1.12-1.76C144.58,463.34,144.05,463.75,143.46,464.17ZM228,443.79a4,4,0,0,1-1.58.79,3.32,3.32,0,0,1-3-.91,4.15,4.15,0,0,0-4.59-.79,3.75,3.75,0,0,0-1.72,1.5,17.33,17.33,0,0,0-1.17,1.76c.62-.39,1.17-.79,1.76-1.18a3.86,3.86,0,0,1,1.59-.87,3.12,3.12,0,0,1,3,.79,4.29,4.29,0,0,0,4.6,1,4.14,4.14,0,0,0,1.76-1.46c.38-.59.83-1.14,1.17-1.76C229.09,443,228.55,443.42,228,443.79Z" style="fill:#FFC727"></path><polygon points="309.39 459.73 309.44 451.22 235.66 453.31 225.04 459.73 309.39 459.73" style="fill:#ebebeb"></polygon><path d="M309.39,459.73l.05-8.51s26.27.46,30.91,0,28.4-2.66,32.25-2.46,11.34,4.74,11.34,4.74v6.23Z" style="fill:#dbdbdb"></path><path d="M439.8,459.73l-1.61-3.58S426,454.9,424.3,454.67s-25.95-4.77-29.35-4.15-11,3-11,3v6.23Z" style="fill:#dbdbdb"></path><rect x="221" y="459.73" width="220.57" height="5.36" style="fill:#37474f"></rect><rect x="221" y="459.73" width="86.15" height="5.36" style="fill:#455a64"></rect><path d="M136.51,274.8c-44.2,50.13-100.27,143.51-90.58,162,12.28,23.43,97.19,19.09,117,14.48,8.45-2-9.3-73.88-18.49-72.67-10.15,1.33-18.47,2.86-18.47,2.86-.28-1.13,15.44-37.24,29.83-87.51C165.61,259.69,145.88,264.17,136.51,274.8Z" style="fill:#eb9481"></path><path d="M73.63,405.38c2.9-4.63,16.08-13.84,25.23-17.79,6.13-2.65,17.56-6.52,26.22-6.44.51,0,1,.55.54.62a119,119,0,0,0-26.11,7.8C95,391.5,77.94,402.15,73.84,405.64,73.74,405.72,73.56,405.48,73.63,405.38Z" style="fill:#263238"></path><path d="M84.32,336.63,137,356.68s13.81-36.51,20.88-68-9.27-28.05-28.79-8.06S84.32,336.63,84.32,336.63Z" style="fill:#FFC727"></path><path d="M84.32,336.63,137,356.68s13.81-36.51,20.88-68-9.27-28.05-28.79-8.06S84.32,336.63,84.32,336.63Z" style="opacity:0.30000000000000004"></path><path d="M146,323.58a3.92,3.92,0,0,1-1.67-.59,3.11,3.11,0,0,1-1.46-2.77,4.07,4.07,0,0,0-5-4,19.38,19.38,0,0,0-2.09.43c.71.16,1.38.24,2.09.38a4.2,4.2,0,0,1,1.72.53,3.24,3.24,0,0,1,1.54,2.69,4.23,4.23,0,0,0,2.59,3.89,4.06,4.06,0,0,0,2.26.24c.71-.16,1.38-.24,2.05-.42A15.18,15.18,0,0,0,146,323.58Zm7.42-45.5c-.14-.73-.22-1.4-.38-2.06a16,16,0,0,0-.42,2.06,4.21,4.21,0,0,1-.54,1.7,3.1,3.1,0,0,1-2.68,1.56,4.23,4.23,0,0,0-3.89,2.59,4.07,4.07,0,0,0-.25,2.29c.17.67.25,1.34.43,2,.2-.71.28-1.38.41-2a3.62,3.62,0,0,1,.58-1.71,3.23,3.23,0,0,1,2.77-1.47,4.08,4.08,0,0,0,4-5Zm-49.6,42.32c-.16-.67-.24-1.34-.42-2a20.64,20.64,0,0,0-.41,2,4.3,4.3,0,0,1-.54,1.76,3.14,3.14,0,0,1-2.68,1.55,4.16,4.16,0,0,0-3.89,2.59,3.41,3.41,0,0,0-.2,2.25c.12.71.2,1.38.37,2.05a16.91,16.91,0,0,0,.42-2.05,4.06,4.06,0,0,1,.59-1.67,3.09,3.09,0,0,1,2.75-1.46,4.25,4.25,0,0,0,3.85-2.72A4.94,4.94,0,0,0,103.79,320.4Zm24.68,29.42a3.33,3.33,0,0,1-1.58.79,3.1,3.1,0,0,1-3-.91,4.25,4.25,0,0,0-4.64-.8,2.87,2.87,0,0,0-1,.66l1.54.59h0a3.07,3.07,0,0,1,2.91.76,3.59,3.59,0,0,0,.87.68,4.17,4.17,0,0,0,1.36.52h0a3.91,3.91,0,0,0,2.32-.24,4.27,4.27,0,0,0,1.8-1.46c.38-.59.79-1.14,1.13-1.76C129.6,349,129.06,349.44,128.47,349.82Zm-6.92-55.06a3.31,3.31,0,0,1-1.59.79,3.09,3.09,0,0,1-3-.91,3.47,3.47,0,0,0-.29-.25l-1.07,1.28.19.18a4.1,4.1,0,0,0,4.55,1,4.21,4.21,0,0,0,1.8-1.46c.39-.59.79-1.13,1.14-1.76C122.68,294,122.13,294.38,121.55,294.76Z" style="fill:#FFC727"></path><path d="M153.29,315.9c.05-.13-.14-.23-.2-.1-.92,1.71-1.82,3.43-2.73,5.15q1.42-5.24,2.63-10.54c0-.11-.16-.18-.19-.06q-4,11.4-7.85,22.86c-2.55,7.66-5.46,15.2-7.92,22.88-1.52-.31-2.33-.55-3.47-.75-.26,0-.43.25-.18.37,1.42.73,4.23,1.83,4.32,1.64,3.34-7.34,6-15.57,8.64-23.2,1.28-3.76,2.44-7.54,3.51-11.35A69.29,69.29,0,0,0,153.29,315.9Z" style="fill:#263238"></path><path d="M137.46,346.51a453.52,453.52,0,0,0-44.1-16.73c-.22-.07-.34.29-.13.38a453.5,453.5,0,0,0,44.08,16.78C137.55,347,137.69,346.61,137.46,346.51Z" style="fill:#263238"></path><path d="M169.28,258.34c-13.48,1.16-16.79,13.17-11,27.36s16.57,27.59,27.06,27.63S203,295,203.12,284.6,186.33,256.88,169.28,258.34Z" style="fill:#FFC727"></path><path d="M184.48,305.72c-10.41-1.16-21.66-21.71-23.92-35.93-.15-1,14.87-32.38,17.2-38.91l37.42,24.57s-8.91,12.26-12.91,23.67C202,280.08,194.55,306.83,184.48,305.72Z" style="fill:#eb9481"></path><path d="M215.19,255.45s-8.92,12.26-12.92,23.67c-.07.22-.5,1.74-1.24,3.94-3.66-1.05-25.37-9.22-29.95-36.89,3-6.67,5.79-12.81,6.68-15.3Z" style="fill:#263238"></path><path d="M233.23,178.69c2.44.33,12,15.74,11.06,24.28s-6.06,24.94-8.6,24.94S231.34,178.43,233.23,178.69Z" style="fill:#263238"></path><path d="M171.67,182c-7.53,14.26-7.92,59.55,1,71.38,12.9,17.14,38.22,23.4,53.84,6.93,15.14-16,14.61-75,4.28-86.18C215.55,157.71,182.79,161,171.67,182Z" style="fill:#eb9481"></path><path d="M208.57,219.88c0-.12-.24.13-.25.26-.08,3.05-.69,6.53-3.5,7.38-.09,0-.09.18,0,.17C208.22,227.41,209,222.78,208.57,219.88Z" style="fill:#263238"></path><path d="M206,216.54c-4.88-.66-5.84,9.14-1.32,9.75S210.13,217.09,206,216.54Z" style="fill:#263238"></path><path d="M225.86,221.21c0-.12.23.16.21.29-.39,3-.34,6.56,2.31,7.84.08,0,.06.19,0,.16C225,228.7,225,224,225.86,221.21Z" style="fill:#263238"></path><path d="M228.89,218.3c4.92.11,4.34,9.94-.22,9.84S224.76,218.21,228.89,218.3Z" style="fill:#263238"></path><path d="M202.61,211.68a37.56,37.56,0,0,0,3.93-1c1.51-.38,2.74-.54,3.82-1.74a2.09,2.09,0,0,0-.09-2.55c-1.34-1.44-3.3-1.43-5.12-1a7.56,7.56,0,0,0-4.68,2.83C199.24,209.75,200.81,212,202.61,211.68Z" style="fill:#263238"></path><path d="M233.16,213.74c-1.33-.36-2.51-.91-3.79-1.39-1.45-.56-2.67-.84-3.6-2.16a2.07,2.07,0,0,1,.37-2.52c1.49-1.29,3.43-1.06,5.21-.46a7.57,7.57,0,0,1,4.33,3.34C236.73,212.2,234.93,214.21,233.16,213.74Z" style="fill:#263238"></path><path d="M203.13,247c.66.78,1.29,1.83,2.38,2a8.09,8.09,0,0,0,3.34-.44.11.11,0,0,1,.12.17,4.12,4.12,0,0,1-4,1.26,3.24,3.24,0,0,1-2.12-2.92C202.8,247,203,246.92,203.13,247Z" style="fill:#263238"></path><path d="M207.22,238.26a10.4,10.4,0,0,0,6.45,5.28,13.08,13.08,0,0,0,3.7.53,3.46,3.46,0,0,0,.72,0,5.33,5.33,0,0,0,.67,0,.75.75,0,0,0,.68-.61v0a1.07,1.07,0,0,0,0-.31v0l0-.27c.29-2.33.41-5.91.41-5.91.81.51,5,2.9,5,1.67.39-10.17.82-21.48-.93-31.68a.29.29,0,0,0-.57,0c-.76,9.76.2,19.59-.41,29.4-1.34-.66-3.51-1.86-4.73-2-.35.07-.12,6.92-.33,8a.82.82,0,0,1,0,.11c-4,.11-6.82-1.36-10.37-4.38C207.32,237.82,207.06,238,207.22,238.26Z" style="fill:#263238"></path><path d="M216.11,242.75a12.32,12.32,0,0,1-5.29,3.33,5.57,5.57,0,0,1-3.37-.12c-2.36-.88-2.21-3.11-1.57-5a13.15,13.15,0,0,1,1.37-2.81A16,16,0,0,0,216.11,242.75Z" style="fill:#263238"></path><path d="M210.82,246.08a5.57,5.57,0,0,1-3.37-.12c-2.36-.88-2.21-3.11-1.57-5C208.45,241.51,210.85,243.53,210.82,246.08Z" style="fill:#ff99ba"></path><path d="M170.68,219.65c7.55,2.13,12.95-5.69,17.85-17.15,2.86-6.69,3.64-21,3.64-21s17.89,12.92,29.22,14.05,22.64-6.66,23.79-15.49c1-7.58-9.81-19.71-26.3-23.57-11.5-2.69-32.85,2.91-43.85,13.74,0,0-15.92,4.21-15.83,15.64S162.1,217.22,170.68,219.65Z" style="fill:#263238"></path><path d="M171.39,218.88c9.71,4.06,17.94-10.17,19.7-18.06,1.82-8.2.24-17.14.32-25.46,0,0,.07-.05.08,0,1.57,10.41,2.93,23.47-2.33,33.06-3.31,6-10,15.77-18,11C170.89,219.24,171.08,218.75,171.39,218.88Z" style="fill:#263238"></path><path d="M157.61,182.16c2.72-6.52,11.72-11.75,18.51-12.11.06,0,.08.1,0,.11-8.3,1.36-19,8.62-18.23,17.78.61,7.32,2.23,17.12,5.92,23.54.1.16-.15.29-.25.14-3-4.43-3.74-9.61-4.79-14.79C157.88,192.33,155.74,186.68,157.61,182.16Z" style="fill:#263238"></path><path d="M173.36,171c11.63-11.41,34.22-22.58,50.33-15.36.05,0,0,.1,0,.08-17.39-6.12-36.44,6.05-49.8,15.94C173.46,172,173,171.33,173.36,171Z" style="fill:#263238"></path><path d="M199.54,236.35a14.45,14.45,0,1,1,17.54-14.59h0a14.47,14.47,0,0,1-14,14.92A14.13,14.13,0,0,1,199.54,236.35ZM205.32,210a12.15,12.15,0,0,0-3.09-.28,12.5,12.5,0,1,0,3.09.28Z" style="fill:#455a64"></path><path d="M231.33,239.2c-5.4-1.19-9.09-7.8-8.34-15.3a17.28,17.28,0,0,1,4-9.75,9,9,0,0,1,15.33,1.53,17.31,17.31,0,0,1,2,10.35c-.79,7.93-6.24,13.9-12.14,13.31C232,239.31,231.63,239.26,231.33,239.2Zm4.33-26.57-.72-.12a7.71,7.71,0,0,0-6.47,2.93,15.32,15.32,0,0,0-3.56,8.65c-.68,6.87,2.68,12.85,7.54,13.33s9.34-4.71,10-11.58a15.37,15.37,0,0,0-1.79-9.19A8,8,0,0,0,235.66,212.63Z" style="fill:#455a64"></path><path d="M216.57,223.39l-.91-1.35c2-1.36,6.45-3,9.09.45l-1.29,1C221.09,220.37,216.76,223.26,216.57,223.39Z" style="fill:#455a64"></path><path d="M157.76,220.7l-1.36-.89c.41-.63,4.15-6.22,7.82-6.45,3.44-.2,25,4,25.87,4.18l-.31,1.59c-6.17-1.21-22.8-4.31-25.46-4.14C161.9,215.13,158.76,219.16,157.76,220.7Z" style="fill:#455a64"></path><path d="M174.18,219.5s-7.5-15.91-14.55-13.47-3.11,24.31,4,28.42a7.81,7.81,0,0,0,11-2.37Z" style="fill:#eb9481"></path><path d="M160.92,212.27a.11.11,0,0,0-.08.2c4.94,3.05,6.89,8.45,8,13.89-1.24-2.24-3.2-3.68-6.15-2.25-.16.07-.06.31.09.31a4.79,4.79,0,0,1,4.93,2.54,23,23,0,0,1,1.77,4.64c.17.52,1.07.41,1-.17,0,0,0-.09,0-.13C171.7,224.56,168.06,214.19,160.92,212.27Z" style="fill:#263238"></path><g style="opacity:0.5"><path d="M211,304.16a24.14,24.14,0,0,1-.41,25.4,76.69,76.69,0,0,0,3,8.38l-14.71,10a76.16,76.16,0,0,0-6.69-5.85,24.14,24.14,0,0,1-23.74-9c-7-8.69-9.63-26.7,5.76-37.15l.16-.11C189.77,285.33,205.52,294.48,211,304.16Z" style="fill:#FFC727"></path></g><g style="opacity:0.7000000000000001"><path d="M209.24,305.46a22.07,22.07,0,0,1-.37,23.23c.51,2.34,4.08,9.68,4.08,9.68l-13.45,9.12s-5.5-6-7.49-7.37a22.06,22.06,0,0,1-21.71-8.25c-6.37-7.95-8.81-24.43,5.27-34l.15-.1C189.81,288.24,204.22,296.6,209.24,305.46Z" style="fill:#FFC727"></path></g><rect x="192.96" y="322.26" width="1.04" height="28.46" transform="translate(-180.76 233.51) rotate(-44.72)" style="fill:#fff"></rect><rect x="204.44" y="314.48" width="1.04" height="28.46" transform="translate(-114.45 109.54) rotate(-23.6)" style="fill:#fff"></rect><path d="M196.56,328.68c-1.15.78-2.94.63-5-.42a1.51,1.51,0,0,1-.22-.11,2.14,2.14,0,0,1-.78,1.57c-2.14,1.45-6-2.42-6.2-2.58l.25-.25s3.85,3.84,5.76,2.54h0A1.93,1.93,0,0,0,191,328a12.15,12.15,0,0,1-3.88-3.37c-.84-1.23-.86-2.25-.06-2.8h0a1.54,1.54,0,0,1,1.61-.12c1.41.68,2.52,3.34,2.67,5.4,0,.25,0,.48,0,.7,1.84,1,3.82,1.44,5,.61h0c.92-.62,1.35-2,1.22-3.78,0-.16,0-.33-.05-.5a7.17,7.17,0,0,1-4-3c-1.08-1.59-1.15-3-.2-3.63a1.19,1.19,0,0,1,1.25-.05c1.4.67,2.85,3.59,3.25,6.38a2.64,2.64,0,0,0,1.94-.39h0c1.64-1.11-.1-6.34-.12-6.4l.33-.11c.07.23,1.84,5.54,0,6.8h0a2.92,2.92,0,0,1-2.09.45c0,.14,0,.27,0,.4.1,1.38-.06,3.21-1.38,4.1Zm-3-10.88c-.92.63-.42,2.09.3,3.14a7.21,7.21,0,0,0,3.64,2.82c-.41-2.62-1.77-5.38-3-6A.83.83,0,0,0,193.55,317.8Zm-6.33,4.29h0c-.84.58-.27,1.7.15,2.31a11.72,11.72,0,0,0,3.61,3.19c0-.16,0-.32,0-.48-.14-1.92-1.19-4.5-2.48-5.12A1.2,1.2,0,0,0,187.22,322.09Z" style="fill:#fff"></path><g style="opacity:0.5"><path d="M171,326.8c.75-.35-.74-4.42.28-11,.45-2.92,5.24-9.45,3.38-11.21s-6,4.19-6.65,9.4C167,322.36,170.29,327.12,171,326.8Z" style="fill:#fff"></path><path d="M204.71,305a1.17,1.17,0,0,0-1.31-1.93A1.17,1.17,0,0,0,204.71,305Z" style="fill:#fff"></path><path d="M208.47,323.63c1,.06,2.27-5.22,1.29-9.86-.81-3.84-3.18-7.8-4.16-7.46s2,5.94,2.34,8.54C208.33,318.13,207.37,323.57,208.47,323.63Z" style="fill:#fff"></path></g><path d="M278.59,431.16h0l1.87,15.68.65,5.17-4.63-2.43-14-7.41h0v0l-64.19-93.6,16.07-11,64.19,93.61Z" style="fill:#FFC727"></path><polygon points="262.51 442.19 278.6 431.17 281.12 452.03 262.51 442.19" style="fill:#fff;opacity:0.6000000000000001"></polygon><polygon points="280.48 446.86 281.12 452.03 276.49 449.59 280.48 446.86" style="fill:#37474f"></polygon><polygon points="278.56 430.83 262.13 442.02 202.91 355.62 219.35 344.42 278.56 430.83" style="fill:#FFC727"></polygon><g style="opacity:0.1"><path d="M273.71,430.7c-18.08-25.78-38.08-54.9-55.65-81,18.08,25.78,38.07,54.9,55.65,81Z"></path><path d="M270.45,432.92c-18.08-25.78-38.08-54.9-55.65-81,18.08,25.78,38.08,54.9,55.65,81Z"></path><path d="M267.19,435.14c-18.08-25.78-38.08-54.9-55.65-81,18.08,25.78,38.08,54.9,55.65,81Z"></path><path d="M263.93,437.36c-18.08-25.78-38.08-54.9-55.65-81,18.08,25.78,38.08,54.9,55.65,81Z"></path></g><path d="M278.57,430.82l1.87,16,.63,5.28-4.72-2.5L262.11,442l0-3.52s3.19,1.26,3.26,1.27l0-3.51s3.19,1.26,3.26,1.27v-3.49s3.23,1.24,3.29,1.25v-3.49s3.23,1.24,3.29,1.25v-3.49S278.51,430.81,278.57,430.82Z" style="fill:#FFC727"></path><path d="M278.57,430.82l1.87,16,.63,5.28-4.72-2.5L262.11,442l0-3.52s3.19,1.26,3.26,1.27l0-3.51s3.19,1.26,3.26,1.27v-3.49s3.23,1.24,3.29,1.25v-3.49s3.23,1.24,3.29,1.25v-3.49S278.51,430.81,278.57,430.82Z" style="fill:#fff;opacity:0.8"></path><polygon points="280.44 446.86 281.07 452.14 276.35 449.64 280.44 446.86" style="fill:#263238"></polygon><rect x="195.92" y="342.16" width="22.74" height="4.51" transform="translate(-158.46 177.63) rotate(-34.44)" style="fill:#37474f"></rect><rect x="198.74" y="346.28" width="22.74" height="4.51" transform="translate(-160.3 179.95) rotate(-34.44)" style="fill:#37474f"></rect><path d="M257.57,380.61c.13,9.09-22.3,7.5-22.3,7.5s5.37,3.24,6.9,9.08c1.75,6.68-8,12.35-8,12.35A20.67,20.67,0,0,1,240,420.28c1,6.56-8,13.68-8,13.68s2.18,6.54-.89,12.63c-5.24,10.4-22.94,12-34.19,13.18s-44.23-6.1-50.65-6.85l-8-72.12s49-19.52,62.38-19C211.93,362.24,257.38,366.73,257.57,380.61Z" style="fill:#eb9481"></path><path d="M235.08,387.85c-11.91-3.35-24.59-3.84-36.83-4.18a.21.21,0,0,0,0,.42c12.18.2,24.6,3.66,36.75,4.34A.3.3,0,0,0,235.08,387.85Z" style="fill:#263238"></path><path d="M233.87,408.62c-2.71-.67-5.65-.45-8.42-.39-3,.06-6,.18-9,.35q-9,.48-17.88,1.43c-.26,0-.29.43,0,.42,6-.32,11.91-.54,17.87-.61q4.49,0,8.95,0c2.78,0,5.7.26,8.43-.35A.43.43,0,0,0,233.87,408.62Z" style="fill:#263238"></path><path d="M231.76,434c-2.34-.69-5.21-.14-7.6,0q-4.08.3-8.16.57c-5.44.35-10.88.7-16.33.86-.27,0-.28.43,0,.42,5.54-.13,11.08-.19,16.61-.38,2.72-.09,5.44-.19,8.16-.32,2.31-.1,5.21,0,7.35-.93A.15.15,0,0,0,231.76,434Z" style="fill:#263238"></path></g><g id="freepik--Shape--inject-96"><g style="opacity:0.7000000000000001"><path d="M210.25,308.59c-13.9-36.21,1.73-72.95,42.83-77.29,16.59-1.79,33.47,1.75,49.29,5.49,29,7.11,57.22,16.56,86.49,14.48,28.37-2.1,54.41-15,66.76-41.71a87.27,87.27,0,0,0,7.8-43.71c4.82,10.84,6.34,23.44,5.32,35.36-4.68,52.11-54.62,77.32-102.6,74.18-23.95-1.27-48-8.83-70-15.49-10.73-3.23-21-6.24-31.8-7.81-39.54-6.17-54.39,20.66-54.07,56.5Z" style="fill:#FFC727;opacity:0.7000000000000001"></path><path d="M210.24,308.59c-13.46-44.12,3.6-86.46,51.44-96,26.45-5.15,54.18,2.35,79.67,6.24,20.42,3.13,39.77,4.35,58.23-4,31.41-15.23,40.5-58.92,29-89.8A57.88,57.88,0,0,0,391,88.87a62.39,62.39,0,0,0-39.47-.67C338.93,91.8,327,98,313.82,99.89,306.59,101.1,299,100.11,292,98c-13.33-3.38-26.63-12.68-29.8-26.7a37.31,37.31,0,0,1,.46-19.62C261.7,64,266.48,76.85,277.36,83A43.25,43.25,0,0,0,294,88.3c5.63.87,11.09-.35,16.33-2.42,10.34-4.1,20.4-12.14,33.28-18.11a78.86,78.86,0,0,1,43.83-7.46c67.31,8.26,92.83,84.67,64.62,140.8-14.94,29.49-41,45.36-73.88,46.76-26.88,1.19-53.55-8-78.79-13.85-11.64-2.57-23.4-4.52-35.12-3.54-42.54,3.55-56.87,39.8-54,78.11Z" style="fill:#FFC727;opacity:0.5"></path><path d="M210.13,311.15c-3.85-11.39-2.8-24.73,3.48-35.17,11.33-18.17,35.93-28.54,56.65-20.69a39.87,39.87,0,0,1,20.92,17c6.41,10.25,5.71,25.26-3.42,33.81-8.68,8.64-25.72,8.15-30.17-4.47a18,18,0,0,1,.58-12.09c.37,6.81,3.84,13.91,10.89,14.15,9,.39,14.56-8.28,13.29-16.59-1.29-8.7-9-15.38-17-18.41-15.46-5.84-33.23.85-44.37,12.59-7.11,8.11-10.23,19.16-10.83,29.92Z" style="fill:#FFC727;opacity:0.5"></path><path d="M320,77.73c-10.15,8.45-26.15,10.24-37.27,2.15-8.5-6-12.76-17.79-8.68-27.9,3.08-8.46,13.62-13.92,21.9-9.06,8,4.46,7.87,16.9-2.2,17.81,2-2.19,3.76-5.94,1.2-8.12-2.3-2.2-5.91-1.21-7.67,1.11-2.05,2.72-2.24,6.55-1.23,10,1.68,5.66,6.41,9.58,12.06,12,6.62,2.65,14.47,2.56,21.89,2Z" style="fill:#FFC727;opacity:0.7000000000000001"></path><path d="M210.25,308.59a97.76,97.76,0,0,1-2-56.91C215.5,224.2,238,204,264.05,194.08c12-5,25.13-6.9,37.94-6.76a264.45,264.45,0,0,1,29.09,2.2c16.61,1.74,34.88,5,50,.12,21.58-7.22,29.68-33.47,22.88-54-5-15.66-17-25.49-32.9-29.21-17-4.5-35.47-.78-50.42,9.4,14.59-21.61,43.86-29.21,68.23-21.5,16.09,5,29.33,18,35.66,33.52,11.25,26.3,4.23,60.17-19.71,77.31-13.68,10.29-31.88,12.67-48.27,11.25-27.36-1.92-53.64-12.13-80.73-7.6-16.7,3.74-32.92,11.56-44.83,24-18.92,19.71-24.15,49.19-20.77,75.74Z" style="fill:#FFC727;opacity:0.7000000000000001"></path><path d="M214.22,249.05c5.16-48,41.8-81.53,90-82.86,18.58-.81,37.43,4.13,55.94,3.4,7.12-.37,13.52-2.39,18.3-7.89,9.94-11.7,8.4-31.66-3.67-42-6.6-5.9-15.14-8.58-24.08-9.66,9.16-1.58,19.48-.45,27.77,4.49,20.89,12.33,23.84,42,8.65,60.25C374.09,190.58,351.44,189.6,333,188c-9.42-.81-18.93-2.33-28.38-2.32-44-.16-72.58,24.79-90.39,63.42Z" style="fill:#FFC727;opacity:0.5"></path><path d="M297.33,265.41c8.27-.63,16.59,4.66,20.75,11.79,5.27,8.23,5.8,17.84,11.26,25.36a20.56,20.56,0,0,0,27.37,3.61,18.11,18.11,0,0,1-8,8.69c-12,6.6-28,0-33.92-12-7.52-15.06-3.39-24.86-17.49-37.46Z" style="fill:#FFC727;opacity:0.7000000000000001"></path><path d="M299.3,164.6c7.77-9.06,21.21-11.95,32.56-12.23,7.82-.54,15,.57,21.36-2.34,3.17-1.61,5.6-5.32,6.39-8.87a16.51,16.51,0,0,0-6.77-16.73c-8.57-6.29-20.14-2.32-28.23,3.51,4.81-7.17,13.37-13.25,22.68-13,10.3.09,19.62,7.46,22.71,17.45a26.1,26.1,0,0,1-5.83,25.25c-3.73,4.07-9.91,6.4-14.94,6.86-6.19.66-11.88,0-17.76-.69-11.12-1.37-21-2.18-32.17.78Z" style="fill:#FFC727;opacity:0.7000000000000001"></path><path d="M393,294.78c-8.87-2-18.2-2.38-26.25,1.89-4.42,2.12-8.12,4.26-13.6,5.31-7.47,1.62-15.89-1.49-20.73-7a26.25,26.25,0,0,1-5.31-8.44c3.29.78,6.22,1.73,9,2.32,13.21,3.64,18.13-4.91,30-7.52,10.62-2.39,23.11,3,26.9,13.42Z" style="fill:#FFC727;opacity:0.5"></path></g><polygon points="246.77 192.91 252.37 191.87 253.63 185.96 254.88 191.87 260.49 192.91 254.9 194.27 253.63 199.86 252.35 194.27 246.77 192.91" style="fill:#fff"></polygon><polygon points="427.66 211.78 433.27 210.74 434.52 204.83 435.78 210.74 441.38 211.78 435.8 213.14 434.52 218.72 433.25 213.14 427.66 211.78" style="fill:#fff"></polygon><polygon points="340.54 266.12 346.14 265.08 347.4 259.17 348.65 265.08 354.26 266.12 348.68 267.48 347.4 273.07 346.12 267.48 340.54 266.12" style="fill:#fff"></polygon><polygon points="409.47 145.99 415.08 144.96 416.33 139.05 417.59 144.96 423.19 146 417.61 147.36 416.33 152.94 415.06 147.36 409.47 145.99" style="fill:#fff"></polygon><polygon points="350.06 73.16 355.66 72.13 356.92 66.22 358.17 72.13 363.77 73.17 358.19 74.53 356.92 80.11 355.64 74.53 350.06 73.16" style="fill:#fff"></polygon><polygon points="213.74 254.44 219.35 253.41 220.6 247.5 221.85 253.41 227.46 254.45 221.88 255.81 220.6 261.39 219.32 255.81 213.74 254.44" style="fill:#fff"></polygon><polygon points="320.94 160.37 326.54 159.33 327.8 153.43 329.05 159.33 334.65 160.37 329.07 161.74 327.8 167.32 326.52 161.74 320.94 160.37" style="fill:#fff"></polygon><polygon points="273.97 251.73 277.11 251.15 277.81 247.85 278.51 251.15 281.64 251.73 278.52 252.49 277.81 255.61 277.09 252.49 273.97 251.73" style="fill:#fff"></polygon><polygon points="405.64 219.03 408.77 218.46 409.47 215.15 410.17 218.46 413.31 219.04 410.19 219.8 409.47 222.92 408.76 219.8 405.64 219.03" style="fill:#fff"></polygon><polygon points="373.3 124.03 376.43 123.45 377.13 120.14 377.83 123.45 380.96 124.03 377.84 124.79 377.13 127.91 376.42 124.79 373.3 124.03" style="fill:#fff"></polygon><polygon points="448.97 127.91 452.1 127.33 452.8 124.03 453.5 127.33 456.63 127.91 453.51 128.67 452.8 131.79 452.09 128.67 448.97 127.91" style="fill:#fff"></polygon><polygon points="265.41 305.48 268.54 304.9 269.25 301.6 269.94 304.9 273.08 305.48 269.96 306.25 269.25 309.37 268.53 306.25 265.41 305.48" style="fill:#fff"></polygon><polygon points="385.01 264.41 388.14 263.83 388.84 260.53 389.54 263.83 392.67 264.42 389.55 265.18 388.84 268.3 388.13 265.18 385.01 264.41" style="fill:#fff"></polygon><polygon points="322.14 206.68 325.27 206.1 325.98 202.8 326.68 206.1 329.81 206.69 326.69 207.45 325.98 210.57 325.26 207.45 322.14 206.68" style="fill:#fff"></polygon><polygon points="346 155.79 349.14 155.21 349.84 151.9 350.54 155.21 353.67 155.79 350.55 156.55 349.84 159.67 349.13 156.55 346 155.79" style="fill:#fff"></polygon><polygon points="296.26 79.69 299.39 79.12 300.09 75.81 300.79 79.12 303.93 79.7 300.81 80.46 300.09 83.58 299.38 80.46 296.26 79.69" style="fill:#fff"></polygon><polygon points="380.26 192.72 383.4 192.13 384.1 188.83 384.8 192.13 387.93 192.72 384.81 193.48 384.1 196.6 383.38 193.48 380.26 192.72" style="fill:#fff"></polygon><polygon points="225.17 242.57 228.3 241.99 229 238.69 229.7 241.99 232.84 242.57 229.72 243.34 229 246.46 228.29 243.34 225.17 242.57" style="fill:#fff"></polygon><polygon points="280.93 180.81 284.06 180.23 284.76 176.93 285.46 180.23 288.59 180.81 285.47 181.58 284.76 184.7 284.05 181.58 280.93 180.81" style="fill:#fff"></polygon><polygon points="418.26 165.85 421.39 165.27 422.09 161.97 422.79 165.27 425.93 165.85 422.81 166.62 422.09 169.74 421.38 166.62 418.26 165.85" style="fill:#fff"></polygon><path d="M280.93,267.93a.91.91,0,0,0,0-1.81A.91.91,0,0,0,280.93,267.93Z" style="fill:#fff"></path><path d="M449,231a.91.91,0,0,0,0-1.82A.91.91,0,0,0,449,231Z" style="fill:#fff"></path><path d="M355.13,291a.91.91,0,0,0,0-1.82A.91.91,0,0,0,355.13,291Z" style="fill:#fff"></path><path d="M405.64,201.35a.91.91,0,0,0,0-1.82A.91.91,0,0,0,405.64,201.35Z" style="fill:#fff"></path><path d="M349.84,125.84a.91.91,0,0,0,0-1.81A.91.91,0,0,0,349.84,125.84Z" style="fill:#fff"></path><path d="M399.74,75.81a.91.91,0,0,0,0-1.81A.91.91,0,0,0,399.74,75.81Z" style="fill:#fff"></path><path d="M316.39,252.64a.91.91,0,0,0,0-1.82A.91.91,0,0,0,316.39,252.64Z" style="fill:#fff"></path><path d="M444.5,191.48a.91.91,0,0,0,0-1.82A.91.91,0,0,0,444.5,191.48Z" style="fill:#fff"></path><path d="M388.84,165.51a.91.91,0,0,0,0-1.82A.91.91,0,0,0,388.84,165.51Z" style="fill:#fff"></path><path d="M335.94,175.68a.91.91,0,0,0,0-1.82A.91.91,0,0,0,335.94,175.68Z" style="fill:#fff"></path><path d="M396.37,103.89a.91.91,0,0,0,0-1.81A.91.91,0,0,0,396.37,103.89Z" style="fill:#fff"></path><path d="M365,290.38a.64.64,0,0,0,0-1.28A.64.64,0,0,0,365,290.38Z" style="fill:#fff"></path><path d="M263.27,198.75a.64.64,0,0,0,0-1.28A.64.64,0,0,0,263.27,198.75Z" style="fill:#fff"></path><path d="M290.21,223a.65.65,0,0,0,0-1.29A.65.65,0,0,0,290.21,223Z" style="fill:#fff"></path><path d="M403.08,225.67a.65.65,0,0,0,0-1.29A.65.65,0,0,0,403.08,225.67Z" style="fill:#fff"></path><path d="M408.23,265.51a.65.65,0,0,0,0-1.29A.65.65,0,0,0,408.23,265.51Z" style="fill:#fff"></path><path d="M365.24,228.46a.65.65,0,0,0,0-1.29A.65.65,0,0,0,365.24,228.46Z" style="fill:#fff"></path><path d="M327.17,187.75a.65.65,0,0,0,0-1.29A.65.65,0,0,0,327.17,187.75Z" style="fill:#fff"></path><path d="M238.73,258.67a.65.65,0,0,0,0-1.29A.65.65,0,0,0,238.73,258.67Z" style="fill:#fff"></path><path d="M441.38,126.49a.65.65,0,0,0,0-1.29A.65.65,0,0,0,441.38,126.49Z" style="fill:#fff"></path><path d="M284.76,71.52a.64.64,0,0,0,0-1.28A.64.64,0,0,0,284.76,71.52Z" style="fill:#fff"></path><path d="M372.48,201.48a.64.64,0,0,0,0-1.28A.64.64,0,0,0,372.48,201.48Z" style="fill:#fff"></path><path d="M315.8,290a.64.64,0,0,0,0-1.28A.64.64,0,0,0,315.8,290Z" style="fill:#fff"></path><path d="M388,139.05a.65.65,0,0,0,0-1.29A.65.65,0,0,0,388,139.05Z" style="fill:#fff"></path><path d="M356,235.5a1.75,1.75,0,0,0,0-3.49A1.75,1.75,0,0,0,356,235.5Z" style="fill:#fff"></path><path d="M418.78,93.75a1.74,1.74,0,0,0,0-3.48A1.74,1.74,0,0,0,418.78,93.75Z" style="fill:#fff"></path><path d="M244.54,208.43a1.75,1.75,0,0,0,0-3.49A1.75,1.75,0,0,0,244.54,208.43Z" style="fill:#fff"></path></g><g id="freepik--paper-plane--inject-96"><path d="M166.79,334h-.26v-.75h.26l3.74,0V334Zm-5.26-.05c-1.35,0-2.69-.05-4-.09l0-.75q2,.06,4,.09Zm14-.07,0-.75,4-.12,0,.75Zm-23-.21c-1.35-.07-2.68-.14-4-.23l0-.74,4,.22Zm32-.11,0-.75,4-.21,0,.75Zm-41-.48-4-.37.08-.75c1.3.13,2.63.26,4,.37Zm50-.05-.06-.75c1.32-.09,2.65-.18,4-.29l.06.75C196.19,332.85,194.85,332.94,193.54,333Zm9-.7-.07-.75,4-.36.07.75Zm-68-.19c-1.34-.17-2.66-.36-4-.55l.11-.74c1.29.19,2.61.37,3.95.54Zm76.92-.67-.08-.74,4-.43.08.75Zm-85.83-.69c-1.34-.24-2.65-.49-3.94-.76l.16-.73c1.28.26,2.58.51,3.91.75Zm94.78-.31-.09-.74,4-.49.09.74Zm8.93-1.14-.1-.74,3.67-.5.3,0,.1.74-.3,0Zm-112.54-.4c-1.31-.32-2.61-.66-3.88-1l.2-.72c1.26.35,2.56.68,3.86,1ZM238.28,328l-.13-.74c1.31-.23,2.62-.47,3.92-.73l.15.73C240.91,327.53,239.6,327.78,238.28,328Zm-130.14-1.54c-1.3-.42-2.58-.87-3.79-1.32l.26-.7c1.21.45,2.47.89,3.76,1.31Zm139-.25-.17-.73c1.3-.29,2.6-.61,3.88-.93l.19.72C249.72,325.61,248.43,325.93,247.12,326.22Zm8.73-2.23-.2-.73c1.29-.36,2.56-.74,3.83-1.12l.22.71C258.43,323.24,257.15,323.62,255.85,324ZM99.7,323.27c-1.25-.55-2.47-1.12-3.64-1.71l.34-.67c1.16.58,2.37,1.15,3.6,1.69Zm164.77-1.95-.24-.71c1.27-.42,2.53-.86,3.78-1.31l.25.71C267,320.46,265.74,320.9,264.47,321.32ZM91.66,319.13c-1.16-.7-2.3-1.43-3.37-2.19l.43-.61c1.06.74,2.18,1.47,3.33,2.16Zm181.3-.86-.27-.7c1.25-.48,2.48-1,3.71-1.48l.28.7C275.45,317.29,274.21,317.78,273,318.27Zm8.34-3.43-.3-.68c1.23-.54,2.45-1.08,3.65-1.63l.31.68C283.75,313.76,282.53,314.31,281.3,314.84Zm-197-1c-1-.89-2-1.82-2.93-2.77l.54-.52c.9.93,1.86,1.85,2.88,2.73Zm205.18-2.76-.33-.67,3.59-1.77.33.67C291.91,309.91,290.71,310.5,289.5,311.08ZM78.15,307.2a23.14,23.14,0,0,1-2.05-3.5l.67-.32a24,24,0,0,0,2,3.39ZM297.54,307l-.35-.66c1.19-.63,2.36-1.27,3.52-1.9l.36.65C299.91,305.74,298.73,306.38,297.54,307Zm7.9-4.37-.38-.65c1.17-.67,2.32-1.35,3.45-2l.38.64C307.76,301.29,306.61,302,305.44,302.64ZM74.49,298.88a20.4,20.4,0,0,1-.38-3.91v-.14h.75V295a18.88,18.88,0,0,0,.37,3.76ZM313.17,298l-.4-.64c1.15-.71,2.27-1.43,3.38-2.14l.4.63C315.45,296.57,314.32,297.28,313.17,298Zm7.57-4.9-.42-.63q1.69-1.12,3.3-2.25l.43.62C323,291.58,321.87,292.34,320.74,293.1ZM75.48,290l-.73-.18A25.49,25.49,0,0,1,76,286l.69.3A23.58,23.58,0,0,0,75.48,290Zm252.67-2-.44-.61c1.11-.8,2.19-1.59,3.23-2.36l.44.6C330.34,286.36,329.26,287.15,328.15,288Zm7.23-5.4-.46-.59c1.1-.85,2.15-1.67,3.15-2.47l.47.59C337.54,280.88,336.48,281.7,335.38,282.55Zm-256.33-.64-.63-.41a35,35,0,0,1,2.37-3.27l.58.47A35.53,35.53,0,0,0,79.05,281.91Zm263.38-5-.48-.58q1.67-1.38,3.06-2.58l.49.57C344.57,275.13,343.54,276,342.43,276.92ZM84.71,275.05l-.52-.54c.94-.92,1.94-1.82,3-2.69l.48.57C86.63,273.25,85.64,274.14,84.71,275.05Zm264.56-4-.5-.56c1.9-1.71,2.92-2.72,2.93-2.73l.52.54S351.18,269.28,349.27,271ZM91.61,269.39l-.42-.62c1.07-.74,2.2-1.48,3.37-2.19l.39.64C93.8,267.92,92.67,268.65,91.61,269.39Zm7.68-4.6-.34-.66c1.17-.61,2.39-1.19,3.62-1.75l.31.69C101.66,263.62,100.45,264.2,99.29,264.79Zm8.18-3.63-.26-.7c1.22-.46,2.49-.91,3.78-1.34l.24.71C109.94,260.26,108.68,260.71,107.47,261.16Zm8.53-2.75-.19-.72c1.27-.34,2.59-.67,3.89-1l.17.73C118.57,257.75,117.27,258.07,116,258.41Zm8.76-1.92-.13-.74c1.31-.22,2.64-.42,4-.6l.1.75C127.38,256.07,126.05,256.27,124.76,256.49Zm8.89-1.13-.06-.74c1.31-.12,2.66-.2,4-.26l0,.75C136.29,255.17,135,255.25,133.65,255.36Z" style="fill:#263238"></path><polygon points="352.78 248.76 346.25 272.15 362.59 257.22 427.21 227.98 352.78 248.76" style="fill:#FFC727"></polygon><polygon points="352.78 248.76 346.25 272.15 362.59 257.22 427.21 227.98 352.78 248.76" style="opacity:0.1"></polygon><polygon points="365.24 262.35 346.25 272.15 362.59 257.22 365.24 262.35" style="fill:#263238"></polygon><polygon points="362.59 257.22 427.21 227.98 376.8 285.4 362.59 257.22" style="fill:#FFC727"></polygon><polygon points="352.78 248.76 323.77 233.06 427.21 227.98 352.78 248.76" style="fill:#FFC727"></polygon></g></svg>